<?xml version="1.0" standalone="no"?>
<!DOCTYPE svg PUBLIC "-//W3C//DTD SVG 20010904//EN"
 "http://www.w3.org/TR/2001/REC-SVG-20010904/DTD/svg10.dtd">
<svg version="1.0" xmlns="http://www.w3.org/2000/svg"
 width="600.000000pt" height="600.000000pt" viewBox="0 0 600.000000 600.000000"
 preserveAspectRatio="xMidYMid meet">
<metadata>
Created by potrace 1.16, written by Peter Selinger 2001-2019
</metadata>
<g transform="translate(0.000000,600.000000) scale(0.100000,-0.100000)"
fill="#000000" stroke="none">
<path d="M3961 5954 c-22 -45 -22 -49 -19 -652 3 -675 -1 -634 73 -720 64 -73
193 -121 290 -107 50 8 52 5 34 -55 -15 -49 -5 -98 26 -134 34 -39 38 -59 22
-98 -19 -47 -13 -100 17 -154 14 -25 26 -61 26 -78 0 -92 56 -208 138 -290
102 -102 230 -146 422 -146 229 0 385 69 451 200 50 100 49 82 49 1093 l0 947
185 0 185 0 0 -2100 0 -2100 -2675 0 -2675 0 0 928 c0 590 -4 940 -10 963 -42
151 -232 200 -337 87 -56 -60 -53 20 -53 -1463 l0 -1366 28 15 c100 51 286 64
402 27 151 -48 270 -151 337 -291 l38 -79 2263 -1 c1803 0 2262 3 2262 13 0 6
13 37 28 67 95 186 266 305 468 326 l64 7 0 2603 0 2604 -64 0 -65 0 -3 -37
-3 -38 -187 -3 -188 -2 0 40 0 40 -85 0 -85 0 0 -40 0 -40 -125 0 c-123 0
-126 0 -135 24 -21 57 -9 56 -566 56 l-512 0 -21 -46z m1349 -1158 l0 -963
-31 -46 c-24 -37 -42 -51 -87 -69 -50 -20 -75 -22 -202 -22 -129 0 -151 2
-205 23 -101 40 -175 137 -190 248 -6 48 -4 56 19 84 32 37 34 80 6 140 l-20
44 23 20 c57 51 73 127 43 199 l-14 33 45 -11 c92 -21 234 30 296 106 77 95
72 52 75 643 2 291 7 532 11 535 5 3 59 4 120 2 l111 -3 0 -963z m-730 749
c43 -22 60 -63 60 -145 l0 -70 69 0 c65 0 72 -2 105 -34 28 -26 36 -41 36 -69
0 -87 -47 -127 -146 -127 l-62 0 -4 -80 c-3 -75 -5 -82 -33 -105 -55 -44 -145
-45 -200 -1 -28 22 -30 29 -33 105 l-4 81 -70 0 c-66 0 -72 2 -104 34 -29 29
-34 40 -34 83 1 80 42 113 142 113 l68 0 0 79 c0 87 10 108 65 136 38 19 108
19 145 0z m1280 -4530 l0 -95 -2677 2 -2678 3 -3 93 -3 92 2681 0 2680 0 0
-95z"/>
<path d="M2110 4234 c-89 -17 -212 -85 -277 -154 -213 -224 -213 -560 0 -773
84 -84 115 -106 181 -129 49 -18 76 -34 76 -48 0 -4 -21 -15 -47 -25 -114 -42
-221 -115 -316 -215 -82 -88 -139 -169 -182 -264 -61 -134 -91 -241 -101 -360
-6 -61 -11 -79 -33 -102 -33 -36 -109 -136 -142 -186 -41 -65 -49 -52 -49 82
l0 120 -78 0 c-94 0 -176 -22 -196 -53 -17 -25 -57 -163 -85 -289 l-19 -88
471 0 470 0 -6 73 c-3 40 -17 99 -30 134 l-25 62 31 6 c78 15 117 29 137 50
50 53 -10 115 -112 115 -43 0 -60 4 -64 15 -6 16 32 217 46 244 5 9 23 46 41
83 52 111 59 108 59 -21 l0 -110 33 5 c95 16 248 47 287 58 25 8 88 26 140 41
95 27 187 63 289 113 l53 26 -6 55 c-3 31 -8 68 -12 82 -5 23 2 30 77 80 46
30 124 85 174 122 49 38 106 81 125 95 20 15 51 41 70 58 128 116 202 187 249
239 64 72 191 239 191 252 0 6 9 18 19 27 17 15 28 16 96 7 99 -14 148 -3 170
40 14 27 14 33 0 63 -19 39 -37 46 -117 46 -32 0 -58 4 -58 9 0 9 75 101 109
135 31 29 37 74 13 105 -16 21 -27 26 -63 25 -34 -1 -47 -6 -63 -29 -29 -38
-84 -93 -105 -104 -16 -9 -17 -5 -9 52 10 69 5 98 -18 121 -19 20 -78 21 -97
2 -7 -8 -22 -58 -31 -112 -25 -134 -41 -183 -82 -240 -19 -27 -46 -67 -60 -89
-26 -38 -253 -269 -306 -310 -15 -11 -62 -47 -105 -81 -99 -77 -247 -177 -296
-200 -36 -17 -39 -17 -107 5 -70 22 -90 45 -52 57 155 52 275 151 341 281 127
253 45 561 -192 718 -90 60 -148 77 -272 80 -60 2 -121 1 -135 -1z m308 -728
c-6 -75 -40 -118 -115 -146 -68 -26 -123 -22 -193 13 -56 27 -90 77 -90 129 0
52 19 57 88 24 85 -42 196 -34 277 21 32 22 38 15 33 -41z"/>
<path d="M910 3250 c-103 -21 -186 -95 -209 -187 -14 -53 -15 -1083 -2 -1083
5 0 19 33 30 73 12 39 29 90 39 112 22 52 90 118 155 153 50 25 59 27 202 27
l151 0 23 97 c62 268 225 531 412 665 27 19 49 39 49 44 0 18 -121 88 -171 98
-56 12 -622 13 -679 1z"/>
<path d="M3182 2689 c-29 -5 -78 -18 -110 -29 -31 -11 -79 -28 -107 -37 -27
-9 -75 -33 -105 -53 -230 -154 -403 -222 -777 -306 l-123 -28 19 -20 c46 -51
38 -127 -20 -188 l-39 -41 15 -50 c8 -28 15 -81 15 -119 l0 -68 1799 0 1799 0
-8 38 c-5 20 -18 82 -30 137 -27 125 -57 203 -84 220 -27 17 -117 32 -296 50
-211 22 -442 56 -505 75 -16 5 -57 14 -90 20 -120 23 -355 97 -460 145 -38 17
-126 66 -195 107 -136 82 -232 118 -374 143 -95 16 -239 18 -324 4z"/>
<path d="M5914 610 c-106 -21 -239 -122 -284 -215 -47 -97 -60 -237 -34 -362
l7 -33 198 0 199 0 0 310 0 310 -22 -1 c-13 -1 -42 -5 -64 -9z"/>
<path d="M265 581 c-111 -31 -207 -116 -244 -215 -28 -75 -30 -244 -4 -317
l18 -49 346 0 346 0 23 77 c42 143 13 283 -82 386 -68 73 -114 103 -187 122
-75 19 -140 18 -216 -4z"/>
</g>
</svg>
