<?xml version="1.0" standalone="no"?>
<!DOCTYPE svg PUBLIC "-//W3C//DTD SVG 20010904//EN"
 "http://www.w3.org/TR/2001/REC-SVG-20010904/DTD/svg10.dtd">
<svg version="1.0" xmlns="http://www.w3.org/2000/svg"
 width="600.000000pt" height="600.000000pt" viewBox="0 0 600.000000 600.000000"
 preserveAspectRatio="xMidYMid meet">
<metadata>
Created by potrace 1.16, written by Peter Selinger 2001-2019
</metadata>
<g transform="translate(0.000000,600.000000) scale(0.100000,-0.100000)"
fill="#000000" stroke="none">
<path d="M280 5985 c-57 -18 -114 -65 -143 -118 -29 -56 -31 -184 -3 -237 23
-45 64 -88 98 -106 l28 -15 0 -2275 0 -2275 -36 -15 c-53 -22 -136 -105 -167
-167 -36 -71 -45 -161 -23 -244 41 -161 173 -263 339 -263 141 0 257 72 319
197 29 60 32 75 32 153 -1 71 -5 96 -26 142 -33 72 -99 143 -160 174 l-48 24
0 53 0 52 2450 0 2450 0 0 -52 0 -53 -48 -24 c-189 -96 -249 -358 -119 -526
81 -104 170 -145 301 -138 136 7 238 73 297 194 29 59 33 75 33 157 1 81 -3
99 -27 150 -34 69 -107 143 -164 169 -42 19 -43 20 -43 68 l0 50 89 0 c74 0
92 3 115 21 22 17 26 28 26 74 0 83 -15 94 -130 97 l-95 3 -3 168 -2 167 65 0
c78 0 115 16 144 63 20 34 21 45 21 476 l0 441 -2680 0 -2680 0 0 170 0 170
195 0 195 0 0 -69 c0 -65 2 -72 32 -101 17 -18 42 -36 55 -41 13 -5 191 -9
394 -9 351 0 372 1 409 20 51 26 70 64 70 140 l0 60 478 0 478 0 12 89 c7 48
12 96 12 105 0 15 -43 16 -484 16 l-485 0 -3 21 c-2 17 -18 26 -78 44 -41 12
-138 45 -215 72 -111 39 -143 54 -154 74 -12 22 -12 29 0 54 25 52 56 54 166
11 154 -59 257 -96 271 -96 8 0 12 17 12 50 l0 50 241 0 c224 0 245 2 283 21
l41 20 205 -100 c113 -56 210 -101 216 -101 6 0 16 43 23 98 21 160 90 643
101 706 5 33 9 61 7 62 -1 1 -77 4 -168 6 l-166 4 -34 -66 c-43 -81 -191 -234
-272 -279 -69 -39 -81 -59 -75 -122 l5 -49 -201 0 -202 0 -103 35 c-102 35
-103 35 -284 35 l-182 0 -49 -40 c-27 -23 -82 -56 -122 -74 -94 -44 -156 -102
-196 -184 -28 -56 -34 -81 -38 -157 l-5 -90 -192 -3 -193 -2 0 1196 0 1196 44
39 c62 54 86 109 86 192 0 183 -160 297 -340 242z m5118 -4562 l-3 -168 -2452
-3 -2453 -2 0 170 0 170 2455 0 2455 0 -2 -167z"/>
<path d="M4634 5672 c-5 -4 -18 -18 -27 -32 -14 -20 -17 -51 -17 -187 l0 -162
-162 4 c-230 5 -227 7 -228 -188 0 -133 1 -139 25 -162 24 -25 27 -25 195 -25
l170 0 0 -166 0 -166 29 -29 c29 -29 30 -29 156 -29 120 0 127 1 150 25 14 13
25 34 26 47 0 13 1 84 1 158 0 74 3 141 5 148 4 9 48 12 172 12 115 1 171 4
182 13 32 25 39 56 39 181 0 118 -1 127 -24 153 l-24 28 -170 3 -171 3 -3 164
c-3 157 -4 164 -27 189 -24 25 -28 26 -155 26 -72 0 -136 -4 -142 -8z"/>
<path d="M1490 5404 c-86 -14 -107 -21 -210 -73 -149 -75 -274 -180 -318 -267
-45 -88 -57 -152 -56 -299 0 -77 5 -158 12 -180 10 -35 18 -43 54 -56 32 -12
47 -26 63 -55 123 -232 224 -414 230 -414 10 0 178 237 217 305 178 314 252
650 165 743 l-22 24 30 24 c40 32 70 30 105 -5 27 -26 35 -28 137 -34 197 -11
334 -54 482 -151 44 -29 78 -48 74 -42 -30 51 -134 175 -193 229 -233 216
-485 298 -770 251z"/>
<path d="M1800 4946 c0 -117 -64 -343 -144 -509 -25 -50 -76 -143 -115 -205
-39 -61 -71 -118 -71 -125 0 -35 61 -136 106 -176 160 -141 370 -182 571 -111
254 89 437 355 420 610 -10 151 -70 275 -180 376 -132 118 -289 181 -479 191
l-108 6 0 -57z m281 -165 c20 -20 29 -39 29 -61 0 -45 -47 -90 -93 -90 -48 0
-97 46 -97 90 0 46 47 90 95 90 27 0 44 -8 66 -29z m248 -265 c33 -40 19 -180
-27 -275 -15 -30 -48 -78 -74 -106 -126 -139 -390 -178 -390 -59 0 42 29 63
100 69 159 13 253 113 268 285 4 41 11 81 17 88 13 17 92 15 106 -2z m-575
-90 c70 -29 87 -97 37 -147 -38 -38 -80 -39 -121 -1 -41 37 -48 79 -19 115 17
23 44 41 67 46 1 1 18 -5 36 -13z"/>
<path d="M2710 4877 c-49 -14 -110 -48 -130 -72 -10 -11 -5 -25 23 -72 41 -68
72 -154 86 -242 6 -35 12 -65 14 -67 10 -11 130 -34 175 -34 181 0 322 95 436
293 l27 48 -73 -6 c-90 -8 -128 4 -231 74 -41 28 -91 58 -112 67 -51 21 -160
27 -215 11z"/>
<path d="M748 4490 c-85 -15 -161 -103 -161 -185 0 -34 22 -86 108 -256 189
-376 202 -391 315 -391 113 0 190 67 198 171 5 65 18 35 -177 401 -108 203
-116 216 -154 239 -38 23 -79 30 -129 21z"/>
<path d="M3330 4269 c-127 -16 -199 -31 -208 -42 -5 -7 -14 -50 -21 -97 -7
-47 -18 -125 -26 -175 -14 -87 -50 -338 -80 -555 -8 -58 -33 -235 -55 -394
-22 -159 -40 -295 -40 -303 0 -11 252 -13 1475 -13 l1475 0 0 503 c0 388 -3
507 -12 519 -9 10 -46 19 -118 27 -298 35 -567 105 -980 256 -226 83 -461 160
-575 189 -309 78 -631 111 -835 85z"/>
<path d="M1343 3998 c-26 -28 -30 -37 -21 -58 5 -14 8 -53 6 -87 l-4 -63 31 0
c36 0 146 17 152 24 3 3 -5 15 -17 28 -36 37 -84 110 -100 150 l-16 38 -31
-32z"/>
</g>
</svg>
