<?xml version="1.0" standalone="no"?>
<!DOCTYPE svg PUBLIC "-//W3C//DTD SVG 20010904//EN"
 "http://www.w3.org/TR/2001/REC-SVG-20010904/DTD/svg10.dtd">
<svg version="1.0" xmlns="http://www.w3.org/2000/svg"
 width="600.000000pt" height="600.000000pt" viewBox="0 0 600.000000 600.000000"
 preserveAspectRatio="xMidYMid meet">
<metadata>
Created by potrace 1.16, written by Peter Selinger 2001-2019
</metadata>
<g transform="translate(0.000000,600.000000) scale(0.100000,-0.100000)"
fill="#000000" stroke="none">
<path d="M3922 5840 c-42 -26 -59 -62 -82 -176 -26 -124 -25 -169 3 -224 26
-53 19 -51 307 -115 269 -59 290 -62 324 -40 39 26 71 87 101 194 42 144 28
218 -45 256 -25 13 -456 108 -536 119 -29 3 -49 0 -72 -14z m343 -145 l35 -14
-20 -33 c-11 -18 -20 -36 -20 -40 0 -4 25 -12 56 -18 62 -13 72 -26 53 -71
-13 -33 -13 -33 -106 -13 -32 6 -33 5 -33 -24 0 -38 -6 -42 -58 -35 l-42 6 2
41 3 41 -47 9 c-50 10 -56 20 -42 73 5 19 11 21 59 16 l54 -6 11 42 c9 34 15
41 36 41 13 0 40 -7 59 -15z"/>
<path d="M4637 5603 c-4 -3 -7 -19 -7 -34 0 -15 -6 -52 -14 -81 -33 -127 -70
-245 -83 -272 -28 -55 0 -196 56 -282 54 -81 248 -211 275 -184 20 20 13 187
-11 254 l-21 59 24 81 c57 188 39 332 -54 429 -34 35 -40 37 -97 37 -34 0 -65
-3 -68 -7z"/>
<path d="M3762 5424 c-65 -131 -70 -255 -13 -367 57 -113 152 -185 271 -207
140 -25 314 59 377 184 28 54 65 167 58 174 -4 5 -481 114 -546 126 -49 9 -87
40 -109 89 l-18 40 -20 -39z"/>
<path d="M4350 4769 c-112 -63 -177 -82 -280 -82 -84 -1 -104 3 -170 30 -42
17 -91 40 -110 52 -53 32 -94 27 -174 -20 -39 -23 -123 -72 -186 -109 -63 -37
-167 -98 -230 -135 -63 -38 -225 -131 -360 -207 -135 -77 -258 -152 -275 -169
-28 -27 -30 -34 -30 -104 0 -68 2 -76 29 -104 68 -71 138 -77 261 -21 39 18
117 53 175 80 58 26 159 71 225 100 66 29 169 75 229 102 59 27 110 47 113 45
2 -3 -16 -83 -41 -178 -163 -622 -285 -1125 -275 -1132 15 -12 220 -81 299
-101 l95 -24 5 -388 c6 -441 4 -432 88 -485 83 -53 199 -33 256 44 20 28 21
41 24 413 l3 384 24 0 25 0 0 -360 c0 -380 2 -403 48 -453 59 -66 190 -76 260
-20 73 58 72 51 72 496 0 310 3 398 13 401 210 58 407 144 407 178 0 18 -22
106 -139 558 -68 262 -156 595 -167 633 -8 27 20 21 120 -24 50 -23 145 -66
211 -96 66 -30 163 -74 215 -98 185 -84 210 -95 255 -106 56 -14 99 -6 140 26
80 60 86 185 14 252 -13 12 -55 39 -94 61 -137 76 -397 229 -764 451 -128 77
-239 141 -245 141 -6 0 -36 -14 -66 -31z"/>
<path d="M1690 3579 c-36 -28 -103 -85 -150 -127 -101 -91 -496 -449 -560
-508 -261 -239 -301 -278 -287 -285 7 -5 48 -15 90 -24 143 -29 373 -113 545
-198 221 -109 383 -235 480 -372 46 -65 162 -259 162 -271 0 -22 186 -252 271
-335 223 -217 267 -241 710 -387 423 -140 563 -172 744 -172 178 0 444 50 647
121 312 109 392 172 390 306 -2 75 -52 140 -131 168 -36 12 -83 14 -295 9
-245 -6 -316 -2 -558 32 l-47 7 21 -69 c15 -51 19 -86 16 -134 -7 -96 -35
-129 -126 -150 -55 -13 -190 36 -254 91 -14 13 -58 50 -96 81 -65 54 -190 194
-181 203 2 2 33 -23 69 -56 111 -103 237 -206 285 -235 62 -36 164 -44 214
-17 89 47 92 158 11 362 -98 243 -318 611 -483 806 -157 186 -258 268 -657
531 -388 256 -551 397 -695 602 -27 39 -54 71 -60 71 -5 0 -39 -22 -75 -50z"/>
</g>
</svg>
