<?xml version="1.0" standalone="no"?>
<!DOCTYPE svg PUBLIC "-//W3C//DTD SVG 20010904//EN"
 "http://www.w3.org/TR/2001/REC-SVG-20010904/DTD/svg10.dtd">
<svg version="1.0" xmlns="http://www.w3.org/2000/svg"
 width="600.000000pt" height="600.000000pt" viewBox="0 0 600.000000 600.000000"
 preserveAspectRatio="xMidYMid meet">
<metadata>
Created by potrace 1.16, written by Peter Selinger 2001-2019
</metadata>
<g transform="translate(0.000000,600.000000) scale(0.100000,-0.100000)"
fill="#000000" stroke="none">
<path d="M3838 5153 l-618 -3 0 -795 0 -795 528 -2 527 -3 0 -440 c1 -242 -1
-583 -3 -757 l-4 -318 -64 0 -64 0 0 -170 0 -170 -240 0 c-143 0 -240 4 -240
9 0 6 23 56 50 112 50 103 60 150 37 180 -18 23 -52 39 -84 39 -36 0 -122 -41
-147 -69 l-20 -21 -30 28 c-55 50 -196 161 -248 194 -24 16 -35 16 -144 3 -65
-8 -159 -15 -210 -15 -77 0 -95 3 -117 21 -31 23 -60 86 -87 181 l-18 67 166
176 c161 171 167 176 199 170 36 -6 73 20 73 53 0 10 8 25 19 34 25 21 35 96
21 150 -8 30 -26 57 -61 89 -66 63 -65 79 6 79 46 0 56 3 66 22 12 21 14 125
3 159 -5 18 -45 39 -74 39 -27 0 -50 38 -50 81 0 31 -4 37 -25 41 -20 4 -26 1
-30 -16 -2 -11 -7 -37 -11 -56 -4 -19 -9 -109 -11 -200 l-5 -165 -36 -54 c-30
-43 -57 -67 -137 -116 -55 -34 -148 -92 -207 -129 -58 -36 -111 -66 -117 -66
-6 0 -31 21 -57 46 l-46 46 20 22 c33 35 80 137 91 197 13 74 -1 175 -35 244
-80 162 -244 249 -426 225 -150 -20 -245 -90 -324 -240 -27 -50 -27 -255 -1
-319 52 -127 171 -220 312 -244 l65 -11 0 -112 c0 -141 37 -347 81 -459 49
-122 125 -230 205 -294 66 -54 159 -100 199 -101 11 0 27 -5 35 -10 10 -6
-120 -10 -377 -10 l-393 0 -2 383 -3 382 -148 3 -147 3 0 534 0 535 -180 0
-180 0 0 -1355 0 -1355 330 0 330 0 0 190 0 190 1178 -2 1177 -3 3 -187 2
-188 325 0 325 0 0 605 0 605 -232 2 -233 3 0 755 0 755 395 1 c217 1 434 2
483 3 l87 1 0 793 0 794 -262 6 c-145 4 -333 6 -418 5 -85 -2 -433 -4 -772 -5z
m652 -378 l0 -195 210 0 210 0 0 -235 0 -235 -210 0 -210 0 0 -190 0 -190
-235 0 -235 0 0 190 0 190 -210 0 -210 0 0 235 0 235 210 0 210 0 0 195 0 195
235 0 235 0 0 -195z m-1325 -2945 c6 -4 22 -10 38 -14 52 -12 242 -105 227
-111 -24 -9 -677 -1 -655 8 11 5 72 28 135 53 63 25 131 54 150 64 34 19 80
19 105 0z"/>
</g>
</svg>
