<?xml version="1.0" standalone="no"?>
<!DOCTYPE svg PUBLIC "-//W3C//DTD SVG 20010904//EN"
 "http://www.w3.org/TR/2001/REC-SVG-20010904/DTD/svg10.dtd">
<svg version="1.0" xmlns="http://www.w3.org/2000/svg"
 width="600.000000pt" height="600.000000pt" viewBox="0 0 600.000000 600.000000"
 preserveAspectRatio="xMidYMid meet">
<metadata>
Created by potrace 1.16, written by Peter Selinger 2001-2019
</metadata>
<g transform="translate(0.000000,600.000000) scale(0.100000,-0.100000)"
fill="#000000" stroke="none">
<path d="M2480 4830 c-87 -19 -167 -74 -199 -139 -47 -94 -48 -190 -2 -279 68
-132 235 -182 377 -112 81 40 115 74 142 145 38 99 22 203 -43 289 -51 67
-189 115 -275 96z"/>
<path d="M2194 4249 c-9 -10 -32 -56 -51 -101 -69 -165 -127 -305 -173 -418
-61 -148 -185 -440 -216 -507 -42 -93 -42 -99 6 -143 l43 -40 -6 -142 c-4 -79
-11 -233 -16 -343 -5 -110 -13 -296 -16 -412 l-6 -213 85 0 c47 0 86 3 86 8 0
4 7 138 15 297 21 438 49 715 73 723 12 4 14 -49 18 -623 1 -115 2 -254 3
-307 l1 -98 85 0 85 0 0 526 c0 347 -3 523 -10 519 -5 -3 -10 -3 -10 0 0 22
139 384 204 532 l36 82 -60 90 c-96 143 -130 237 -130 360 0 44 5 65 21 85 29
37 68 54 107 49 26 -4 32 -2 32 14 0 15 -19 25 -94 50 -92 30 -95 30 -112 12z"/>
<path d="M2427 4164 c-55 -29 -23 -103 47 -108 22 -1 24 -5 19 -31 -7 -37 -13
-45 -13 -19 0 12 -17 32 -44 51 -32 23 -45 40 -48 60 -4 33 -26 40 -69 22 -47
-19 -63 -60 -56 -144 9 -100 38 -175 112 -284 109 -163 216 -262 417 -388 60
-38 81 -40 126 -13 30 19 32 22 26 61 -5 28 -4 40 3 36 14 -9 22 -56 16 -90
-7 -35 -35 -48 -127 -56 l-69 -6 40 -50 c60 -75 183 -196 228 -225 58 -37 161
-82 225 -97 75 -17 252 -17 323 2 31 8 88 31 127 50 l69 35 -19 42 c-11 24
-20 58 -20 76 0 38 -5 39 -86 13 -131 -41 -180 -53 -234 -58 -114 -11 -258 55
-372 168 l-68 68 0 76 0 76 -105 68 c-178 115 -283 216 -345 333 -30 57 -32
65 -28 139 3 44 8 82 12 87 5 4 16 -4 25 -18 9 -14 31 -40 49 -59 33 -36 43
-58 19 -44 -8 4 -29 25 -46 46 -40 45 -51 47 -51 5 0 -63 19 -106 63 -141 61
-50 215 -124 347 -169 107 -36 116 -38 127 -21 7 9 13 20 13 25 0 13 58 38 90
38 42 0 64 -13 90 -55 21 -34 23 -35 90 -35 144 0 227 75 164 149 l-26 31
-121 0 c-202 0 -379 36 -512 102 -73 37 -205 126 -205 139 0 5 -21 9 -47 10
l-48 0 38 17 c37 17 38 18 20 33 -23 20 -53 36 -101 53 -32 12 -42 11 -65 0z"/>
<path d="M4288 3789 l-78 -39 0 -589 0 -588 -112 -6 c-62 -4 -429 -7 -815 -7
l-703 0 0 395 c0 370 -1 395 -17 395 -26 0 -111 -29 -89 -29 11 -1 17 -4 13
-7 -5 -5 -27 -9 -79 -13 -5 -1 -8 -309 -8 -686 l0 -685 91 0 90 0 -3 150 c-3
142 -2 149 17 155 11 3 180 3 375 1 195 -3 554 -5 798 -6 l442 0 0 -150 0
-150 90 0 90 0 0 950 c0 754 -3 950 -12 950 -7 -1 -48 -19 -90 -41z"/>
<path d="M3101 3671 c-23 -23 -36 -95 -26 -143 23 -104 180 -323 296 -410 38
-28 61 -38 88 -38 34 0 200 38 173 39 -19 1 -152 93 -205 142 -79 71 -237 331
-237 389 0 38 -58 52 -89 21z"/>
<path d="M3868 3566 c-57 -16 -105 -50 -143 -107 -28 -39 -30 -49 -30 -133 0
-86 2 -94 32 -136 47 -69 119 -105 208 -105 58 0 79 5 120 28 118 66 157 200
94 325 -54 108 -166 159 -281 128z"/>
<path d="M2620 2770 l0 -170 775 0 775 0 0 170 0 170 -189 0 c-189 0 -189 0
-256 -30 -73 -33 -237 -70 -307 -70 -104 0 -244 35 -310 77 -37 22 -44 23
-263 23 l-225 0 0 -170z"/>
<path d="M1970 1480 c-218 -14 -305 -22 -319 -30 -39 -21 2547 -35 2904 -15
l170 9 -100 7 c-55 4 -188 9 -295 13 -107 4 -265 11 -350 16 -179 11 -1839 11
-2010 0z"/>
</g>
</svg>
