<?xml version="1.0" standalone="no"?>
<!DOCTYPE svg PUBLIC "-//W3C//DTD SVG 20010904//EN"
 "http://www.w3.org/TR/2001/REC-SVG-20010904/DTD/svg10.dtd">
<svg version="1.0" xmlns="http://www.w3.org/2000/svg"
 width="600.000000pt" height="600.000000pt" viewBox="0 0 600.000000 600.000000"
 preserveAspectRatio="xMidYMid meet">
<metadata>
Created by potrace 1.16, written by Peter Selinger 2001-2019
</metadata>
<g transform="translate(0.000000,600.000000) scale(0.100000,-0.100000)"
fill="#000000" stroke="none">
<path d="M3384 4409 c-135 -51 -203 -203 -160 -352 29 -99 126 -178 232 -190
87 -10 216 40 260 100 91 127 81 280 -27 385 -78 76 -198 99 -305 57z"/>
<path d="M3930 3913 c-41 -14 -112 -33 -335 -93 -44 -12 -88 -28 -97 -37 -9
-8 -45 -64 -80 -124 -35 -60 -83 -144 -108 -187 l-45 -77 -150 -48 c-207 -66
-219 -73 -223 -119 -5 -57 11 -78 59 -78 38 0 341 95 400 126 17 8 54 56 96
123 37 61 71 107 74 103 8 -9 63 -213 89 -329 19 -88 20 -125 20 -683 0 -652
-2 -631 63 -670 19 -12 50 -20 76 -20 40 0 49 5 88 45 l43 45 0 549 0 549 30
4 30 4 2 -558 3 -559 42 -40 c37 -34 48 -39 89 -39 42 0 51 5 91 44 l44 44 -4
639 -3 638 -27 115 c-14 63 -40 162 -56 220 -17 58 -31 109 -31 114 0 15 58
-44 90 -89 25 -37 63 -119 124 -274 15 -36 32 -68 39 -73 21 -13 75 -9 91 8
42 41 31 91 -70 316 -45 100 -70 139 -160 251 -59 72 -118 142 -133 154 -31
27 -91 29 -161 6z"/>
<path d="M1403 3756 c-17 -8 -36 -23 -42 -34 -8 -15 -16 -797 -11 -1109 0 -22
3 -23 105 -23 l105 0 0 555 0 555 -27 30 c-33 37 -84 47 -130 26z"/>
<path d="M2838 3610 c-23 -14 -58 -73 -58 -100 0 -12 15 -37 34 -56 30 -30 40
-34 86 -34 44 0 56 4 81 29 41 42 41 98 -2 140 -25 26 -38 31 -77 31 -26 0
-55 -5 -64 -10z m105 -11 c62 -32 73 -91 26 -138 -43 -43 -95 -43 -144 0 -45
40 -46 70 -1 115 36 36 77 44 119 23z"/>
<path d="M2841 3564 c-29 -37 -27 -68 10 -98 37 -31 62 -33 89 -6 50 50 26
122 -42 128 -29 2 -40 -2 -57 -24z"/>
<path d="M1797 3496 c-65 -32 -95 -61 -123 -121 -31 -66 -33 -172 -4 -238 22
-50 85 -110 140 -134 55 -24 175 -20 233 7 60 28 121 97 137 155 17 61 9 160
-18 215 -24 50 -94 110 -151 129 -59 19 -160 13 -214 -13z"/>
<path d="M2275 3133 c-48 -54 -124 -132 -168 -173 -75 -71 -80 -78 -79 -114 1
-36 24 -76 43 -76 4 0 45 -22 91 -48 46 -26 113 -62 151 -79 62 -30 90 -50 50
-37 -14 5 -15 4 -4 -4 8 -6 21 -8 29 -4 9 3 13 1 10 -4 -4 -5 229 -7 590 -4
l597 5 3 52 3 51 -38 6 c-21 3 -114 15 -208 26 -463 57 -634 96 -823 188 -54
27 -114 54 -132 61 l-33 11 44 40 44 39 162 1 162 0 20 26 c27 34 27 88 1 114
-19 19 -33 20 -224 20 l-204 0 -87 -97z"/>
<path d="M1370 2553 c1 -5 23 -48 51 -98 27 -49 68 -127 91 -172 l43 -83 1012
0 1013 0 0 180 0 180 -1105 0 c-608 0 -1105 -3 -1105 -7z"/>
</g>
</svg>
