<?xml version="1.0" standalone="no"?>
<!DOCTYPE svg PUBLIC "-//W3C//DTD SVG 20010904//EN"
 "http://www.w3.org/TR/2001/REC-SVG-20010904/DTD/svg10.dtd">
<svg version="1.0" xmlns="http://www.w3.org/2000/svg"
 width="600.000000pt" height="600.000000pt" viewBox="0 0 600.000000 600.000000"
 preserveAspectRatio="xMidYMid meet">
<metadata>
Created by potrace 1.16, written by Peter Selinger 2001-2019
</metadata>
<g transform="translate(0.000000,600.000000) scale(0.100000,-0.100000)"
fill="#28ffff" stroke="none">
<path d="M2758 5770 c-579 -61 -1057 -247 -1509 -588 -82 -62 -109 -85 -234
-201 -300 -279 -555 -650 -707 -1029 -46 -116 -64 -172 -127 -393 -12 -42 -34
-155 -48 -250 -22 -151 -26 -207 -26 -419 0 -216 3 -266 27 -420 14 -96 40
-227 57 -290 33 -125 87 -299 99 -315 4 -5 17 -37 30 -70 37 -96 143 -302 208
-406 247 -396 565 -711 979 -971 94 -58 331 -178 383 -193 14 -4 30 -11 35
-15 18 -13 180 -70 307 -107 438 -128 1008 -136 1453 -21 213 55 228 59 390
125 237 95 412 191 629 343 198 138 428 356 583 550 401 502 604 1053 630
1705 9 233 -24 555 -79 765 -95 366 -224 650 -435 955 -148 213 -420 498 -613
639 -134 98 -251 176 -335 224 -129 73 -354 182 -375 182 -9 0 -20 4 -25 8
-16 14 -152 61 -270 93 -115 32 -251 59 -420 85 -120 18 -485 26 -607 14z
m567 -450 c672 -99 1261 -449 1671 -995 285 -380 459 -853 480 -1300 14 -324
-32 -655 -129 -920 -128 -351 -317 -651 -568 -905 -140 -141 -318 -293 -389
-330 -14 -7 -42 -26 -62 -42 -36 -28 -363 -199 -403 -210 -11 -4 -65 -22 -120
-41 -294 -101 -505 -137 -800 -137 -652 0 -1272 261 -1740 734 -68 69 -213
236 -248 286 -222 320 -359 619 -420 920 -3 14 -12 60 -21 104 -37 186 -40
591 -6 781 86 469 288 890 586 1220 105 116 149 161 246 248 92 83 114 99 278
208 309 205 714 348 1103 389 100 11 445 4 542 -10z"/>
<path d="M2340 4770 c-118 -93 -167 -131 -277 -210 -70 -50 -103 -80 -103 -94
0 -10 16 -48 36 -83 41 -74 42 -72 -52 -139 -44 -31 -71 -44 -96 -44 -18 0
-49 -8 -69 -18 -32 -16 -199 -150 -199 -159 0 -2 14 -22 30 -44 126 -165 191
-252 200 -268 6 -11 29 1 106 55 108 75 131 96 140 134 9 33 48 75 100 105 35
20 48 23 69 15 14 -5 28 -16 31 -24 9 -24 39 -28 83 -10 40 16 43 16 62 -2 12
-10 61 -80 110 -154 49 -74 112 -169 140 -210 28 -41 110 -167 184 -280 213
-328 278 -420 297 -420 9 0 26 12 37 26 16 20 233 253 265 285 6 6 -32 67
-191 304 -62 92 -113 170 -113 173 0 3 -9 15 -19 26 -22 24 -244 355 -314 468
l-48 78 25 33 c14 19 26 38 26 43 0 5 -16 34 -37 64 l-36 54 47 43 c69 62 116
73 351 83 208 9 295 18 295 30 0 12 -131 61 -335 126 -104 34 -132 39 -215 39
l-95 0 -112 -58 c-62 -31 -114 -57 -116 -57 -2 0 -19 21 -37 48 -37 53 -81
102 -89 101 -3 0 -40 -27 -81 -59z"/>
<path d="M4330 4144 c-69 -46 -135 -90 -146 -98 -12 -8 -40 -54 -64 -101 -34
-70 -62 -108 -147 -198 -58 -62 -122 -128 -142 -147 -33 -33 -402 -415 -616
-639 -50 -51 -132 -137 -182 -190 -51 -53 -93 -100 -93 -105 0 -5 26 -33 58
-62 l57 -54 215 218 c118 119 245 251 281 292 37 41 200 208 363 370 259 259
304 299 365 330 38 19 84 49 102 65 31 30 42 45 119 160 21 33 43 65 48 71 15
17 32 52 32 64 0 18 -92 110 -109 109 -9 0 -72 -39 -141 -85z"/>
<path d="M3570 3045 c0 -6 -64 -76 -141 -155 -78 -80 -170 -175 -206 -212
l-64 -66 17 -34 c18 -35 99 -159 209 -318 99 -143 450 -667 535 -799 123 -189
166 -202 321 -96 52 36 121 83 154 103 138 86 154 132 83 244 -77 120 -663
993 -676 1006 -7 8 -20 28 -28 45 -9 17 -35 57 -58 89 -22 31 -51 75 -64 95
-31 50 -81 111 -82 98z"/>
<path d="M2663 2779 c-32 -20 -38 -31 -111 -190 -47 -104 -137 -241 -189 -290
-21 -20 -69 -58 -108 -84 -122 -84 -250 -217 -440 -455 -33 -41 -68 -84 -77
-95 -89 -106 -157 -212 -175 -274 -53 -182 72 -374 277 -427 115 -29 208 5
332 123 121 115 330 348 397 443 73 103 134 196 153 234 36 71 120 189 176
248 52 55 67 66 182 140 30 20 84 69 119 109 l63 73 -40 35 c-22 20 -103 91
-179 158 -76 67 -156 138 -178 158 -62 57 -140 115 -156 115 -8 0 -28 -10 -46
-21z"/>
</g>
</svg>
