  0
SECTION
  2
HEADER
  9
$ACADVER
  1
AC1032
  9
$ACADMAINTVER
 90
      197
  9
$DWGCODEPAGE
  3
ANSI_1254
  9
$REQUIREDVERSIONS
160
                 0
  9
$INSBASE
 10
0.0
 20
0.0
 30
0.0
  9
$EXTMIN
 10
1.000000000000000E+20
 20
1.000000000000000E+20
 30
1.000000000000000E+20
  9
$EXTMAX
 10
-1.000000000000000E+20
 20
-1.000000000000000E+20
 30
-1.000000000000000E+20
  9
$LIMMIN
 10
0.0
 20
0.0
  9
$LIMMAX
 10
12.0
 20
9.0
  9
$ORTHOMODE
 70
     0
  9
$REGENMODE
 70
     1
  9
$FILLMODE
 70
     1
  9
$QTEXTMODE
 70
     0
  9
$MIRRTEXT
 70
     0
  9
$LTSCALE
 40
1.0
  9
$ATTMODE
 70
     1
  9
$TEXTSIZE
 40
0.2
  9
$TRACEWID
 40
0.05
  9
$TEXTSTYLE
  7
Standard
  9
$CLAYER
  8
0
  9
$CELTYPE
  6
ByLayer
  9
$CECOLOR
 62
   256
  9
$CELTSCALE
 40
1.0
  9
$DISPSILH
 70
     0
  9
$DIMSCALE
 40
1.0
  9
$DIMASZ
 40
0.18
  9
$DIMEXO
 40
0.0625
  9
$DIMDLI
 40
0.38
  9
$DIMRND
 40
0.0
  9
$DIMDLE
 40
0.0
  9
$DIMEXE
 40
0.18
  9
$DIMTP
 40
0.0
  9
$DIMTM
 40
0.0
  9
$DIMTXT
 40
0.18
  9
$DIMCEN
 40
0.09
  9
$DIMTSZ
 40
0.0
  9
$DIMTOL
 70
     0
  9
$DIMLIM
 70
     0
  9
$DIMTIH
 70
     1
  9
$DIMTOH
 70
     1
  9
$DIMSE1
 70
     0
  9
$DIMSE2
 70
     0
  9
$DIMTAD
 70
     0
  9
$DIMZIN
 70
     0
  9
$DIMBLK
  1

  9
$DIMASO
 70
     1
  9
$DIMSHO
 70
     1
  9
$DIMPOST
  1

  9
$DIMAPOST
  1

  9
$DIMALT
 70
     0
  9
$DIMALTD
 70
     2
  9
$DIMALTF
 40
25.4
  9
$DIMLFAC
 40
1.0
  9
$DIMTOFL
 70
     0
  9
$DIMTVP
 40
0.0
  9
$DIMTIX
 70
     0
  9
$DIMSOXD
 70
     0
  9
$DIMSAH
 70
     0
  9
$DIMBLK1
  1

  9
$DIMBLK2
  1

  9
$DIMSTYLE
  2
Standard
  9
$DIMCLRD
 70
     0
  9
$DIMCLRE
 70
     0
  9
$DIMCLRT
 70
     0
  9
$DIMTFAC
 40
1.0
  9
$DIMGAP
 40
0.09
  9
$DIMJUST
 70
     0
  9
$DIMSD1
 70
     0
  9
$DIMSD2
 70
     0
  9
$DIMTOLJ
 70
     1
  9
$DIMTZIN
 70
     0
  9
$DIMALTZ
 70
     0
  9
$DIMALTTZ
 70
     0
  9
$DIMUPT
 70
     0
  9
$DIMDEC
 70
     4
  9
$DIMTDEC
 70
     4
  9
$DIMALTU
 70
     2
  9
$DIMALTTD
 70
     2
  9
$DIMTXSTY
  7
Standard
  9
$DIMAUNIT
 70
     0
  9
$DIMADEC
 70
     0
  9
$DIMALTRND
 40
0.0
  9
$DIMAZIN
 70
     0
  9
$DIMDSEP
 70
    46
  9
$DIMATFIT
 70
     3
  9
$DIMFRAC
 70
     0
  9
$DIMLDRBLK
  1

  9
$DIMLUNIT
 70
     2
  9
$DIMLWD
 70
    -2
  9
$DIMLWE
 70
    -2
  9
$DIMTMOVE
 70
     0
  9
$DIMFXL
 40
1.0
  9
$DIMFXLON
 70
     0
  9
$DIMJOGANG
 40
0.7853981633974483
  9
$DIMTFILL
 70
     0
  9
$DIMTFILLCLR
 70
     0
  9
$DIMARCSYM
 70
     0
  9
$DIMLTYPE
  6

  9
$DIMLTEX1
  6

  9
$DIMLTEX2
  6

  9
$DIMTXTDIRECTION
 70
     0
  9
$LUNITS
 70
     2
  9
$LUPREC
 70
     4
  9
$SKETCHINC
 40
0.1
  9
$FILLETRAD
 40
0.0
  9
$AUNITS
 70
     0
  9
$AUPREC
 70
     0
  9
$MENU
  1
.
  9
$ELEVATION
 40
0.0
  9
$PELEVATION
 40
0.0
  9
$THICKNESS
 40
0.0
  9
$LIMCHECK
 70
     0
  9
$CHAMFERA
 40
0.0
  9
$CHAMFERB
 40
0.0
  9
$CHAMFERC
 40
0.0
  9
$CHAMFERD
 40
0.0
  9
$SKPOLY
 70
     0
  9
$TDCREATE
 40
2459595.866782407
  9
$TDUCREATE
 40
2459595.741782407
  9
$TDUPDATE
 40
2459595.866782407
  9
$TDUUPDATE
 40
2459595.741782407
  9
$TDINDWG
 40
0.0000000000
  9
$TDUSRTIMER
 40
0.0000000000
  9
$USRTIMER
 70
     1
  9
$ANGBASE
 50
0.0
  9
$ANGDIR
 70
     0
  9
$PDMODE
 70
     0
  9
$PDSIZE
 40
0.0
  9
$PLINEWID
 40
0.0
  9
$SPLFRAME
 70
     0
  9
$SPLINETYPE
 70
     6
  9
$SPLINESEGS
 70
     8
  9
$HANDSEED
  5
B2
  9
$SURFTAB1
 70
     6
  9
$SURFTAB2
 70
     6
  9
$SURFTYPE
 70
     6
  9
$SURFU
 70
     6
  9
$SURFV
 70
     6
  9
$UCSBASE
  2

  9
$UCSNAME
  2

  9
$UCSORG
 10
0.0
 20
0.0
 30
0.0
  9
$UCSXDIR
 10
1.0
 20
0.0
 30
0.0
  9
$UCSYDIR
 10
0.0
 20
1.0
 30
0.0
  9
$UCSORTHOREF
  2

  9
$UCSORTHOVIEW
 70
     0
  9
$UCSORGTOP
 10
0.0
 20
0.0
 30
0.0
  9
$UCSORGBOTTOM
 10
0.0
 20
0.0
 30
0.0
  9
$UCSORGLEFT
 10
0.0
 20
0.0
 30
0.0
  9
$UCSORGRIGHT
 10
0.0
 20
0.0
 30
0.0
  9
$UCSORGFRONT
 10
0.0
 20
0.0
 30
0.0
  9
$UCSORGBACK
 10
0.0
 20
0.0
 30
0.0
  9
$PUCSBASE
  2

  9
$PUCSNAME
  2

  9
$PUCSORG
 10
0.0
 20
0.0
 30
0.0
  9
$PUCSXDIR
 10
1.0
 20
0.0
 30
0.0
  9
$PUCSYDIR
 10
0.0
 20
1.0
 30
0.0
  9
$PUCSORTHOREF
  2

  9
$PUCSORTHOVIEW
 70
     0
  9
$PUCSORGTOP
 10
0.0
 20
0.0
 30
0.0
  9
$PUCSORGBOTTOM
 10
0.0
 20
0.0
 30
0.0
  9
$PUCSORGLEFT
 10
0.0
 20
0.0
 30
0.0
  9
$PUCSORGRIGHT
 10
0.0
 20
0.0
 30
0.0
  9
$PUCSORGFRONT
 10
0.0
 20
0.0
 30
0.0
  9
$PUCSORGBACK
 10
0.0
 20
0.0
 30
0.0
  9
$USERI1
 70
     0
  9
$USERI2
 70
     0
  9
$USERI3
 70
     0
  9
$USERI4
 70
     0
  9
$USERI5
 70
     0
  9
$USERR1
 40
0.0
  9
$USERR2
 40
0.0
  9
$USERR3
 40
0.0
  9
$USERR4
 40
0.0
  9
$USERR5
 40
0.0
  9
$WORLDVIEW
 70
     1
  9
$SHADEDGE
 70
     3
  9
$SHADEDIF
 70
    70
  9
$TILEMODE
 70
     1
  9
$MAXACTVP
 70
    64
  9
$PINSBASE
 10
0.0
 20
0.0
 30
0.0
  9
$PLIMCHECK
 70
     0
  9
$PEXTMIN
 10
1.000000000000000E+20
 20
1.000000000000000E+20
 30
1.000000000000000E+20
  9
$PEXTMAX
 10
-1.000000000000000E+20
 20
-1.000000000000000E+20
 30
-1.000000000000000E+20
  9
$PLIMMIN
 10
0.0
 20
0.0
  9
$PLIMMAX
 10
12.0
 20
9.0
  9
$UNITMODE
 70
     0
  9
$VISRETAIN
 70
     1
  9
$PLINEGEN
 70
     0
  9
$PSLTSCALE
 70
     1
  9
$TREEDEPTH
 70
  3020
  9
$CMLSTYLE
  2
Standard
  9
$CMLJUST
 70
     0
  9
$CMLSCALE
 40
1.0
  9
$PROXYGRAPHICS
 70
     1
  9
$MEASUREMENT
 70
     0
  9
$CELWEIGHT
370
    -1
  9
$ENDCAPS
280
     0
  9
$JOINSTYLE
280
     0
  9
$LWDISPLAY
290
     1
  9
$INSUNITS
 70
     0
  9
$HYPERLINKBASE
  1

  9
$STYLESHEET
  1

  9
$XEDIT
290
     1
  9
$CEPSNTYPE
380
     0
  9
$PSTYLEMODE
290
     1
  9
$FINGERPRINTGUID
  2
{1B98DAD8-496A-0148-8358-439D748E1580}
  9
$VERSIONGUID
  2
{A6476078-A88C-E441-94E4-AB5D041C3B02}
  9
$EXTNAMES
290
     1
  9
$PSVPSCALE
 40
0.0
  9
$OLESTARTUP
290
     0
  9
$SORTENTS
280
   127
  9
$INDEXCTL
280
     0
  9
$HIDETEXT
280
     1
  9
$XCLIPFRAME
280
     2
  9
$HALOGAP
280
     0
  9
$OBSCOLOR
 70
   257
  9
$OBSLTYPE
280
     0
  9
$INTERSECTIONDISPLAY
280
     0
  9
$INTERSECTIONCOLOR
 70
   257
  9
$DIMASSOC
280
     2
  9
$PROJECTNAME
  1

  9
$CAMERADISPLAY
290
     0
  9
$LENSLENGTH
 40
50.0
  9
$CAMERAHEIGHT
 40
0.0
  9
$STEPSPERSEC
 40
2.0
  9
$STEPSIZE
 40
6.0
  9
$3DDWFPREC
 40
2.0
  9
$PSOLWIDTH
 40
0.25
  9
$PSOLHEIGHT
 40
4.0
  9
$LOFTANG1
 40
1.570796326794896
  9
$LOFTANG2
 40
1.570796326794896
  9
$LOFTMAG1
 40
0.0
  9
$LOFTMAG2
 40
0.0
  9
$LOFTPARAM
 70
     7
  9
$LOFTNORMALS
280
     1
  9
$LATITUDE
 40
37.795
  9
$LONGITUDE
 40
-122.394
  9
$NORTHDIRECTION
 40
0.0
  9
$TIMEZONE
 70
 -8000
  9
$LIGHTGLYPHDISPLAY
280
     1
  9
$TILEMODELIGHTSYNCH
280
     1
  9
$CMATERIAL
347
11
  9
$SOLIDHIST
280
     0
  9
$SHOWHIST
280
     1
  9
$DWFFRAME
280
     2
  9
$DGNFRAME
280
     0
  9
$REALWORLDSCALE
290
     1
  9
$INTERFERECOLOR
 62
     1
  9
$INTERFEREOBJVS
345
33
  9
$INTERFEREVPVS
346
30
  9
$CSHADOW
280
     0
  9
$SHADOWPLANELOCATION
 40
0.0
  0
ENDSEC
  0
SECTION
  2
CLASSES
  0
CLASS
  1
ACDBDICTIONARYWDFLT
  2
AcDbDictionaryWithDefault
  3
ObjectDBX Classes
 90
        0
 91
        1
280
     0
281
     0
  0
CLASS
  1
MATERIAL
  2
AcDbMaterial
  3
ObjectDBX Classes
 90
     1153
 91
        3
280
     0
281
     0
  0
CLASS
  1
VISUALSTYLE
  2
AcDbVisualStyle
  3
ObjectDBX Classes
 90
     4095
 91
       24
280
     0
281
     0
  0
CLASS
  1
SCALE
  2
AcDbScale
  3
ObjectDBX Classes
 90
     1153
 91
       17
280
     0
281
     0
  0
CLASS
  1
TABLESTYLE
  2
AcDbTableStyle
  3
ObjectDBX Classes
 90
     4095
 91
        1
280
     0
281
     0
  0
CLASS
  1
MLEADERSTYLE
  2
AcDbMLeaderStyle
  3
ACDB_MLEADERSTYLE_CLASS
 90
     4095
 91
        1
280
     0
281
     0
  0
CLASS
  1
ACDBSECTIONVIEWSTYLE
  2
AcDbSectionViewStyle
  3
ObjectDBX Classes
 90
     1025
 91
        1
280
     0
281
     0
  0
CLASS
  1
ACDBDETAILVIEWSTYLE
  2
AcDbDetailViewStyle
  3
ObjectDBX Classes
 90
     1025
 91
        1
280
     0
281
     0
  0
CLASS
  1
DICTIONARYVAR
  2
AcDbDictionaryVar
  3
ObjectDBX Classes
 90
        0
 91
        5
280
     0
281
     0
  0
CLASS
  1
CELLSTYLEMAP
  2
AcDbCellStyleMap
  3
ObjectDBX Classes
 90
     1152
 91
        1
280
     0
281
     0
  0
ENDSEC
  0
SECTION
  2
TABLES
  0
TABLE
  2
VPORT
  5
8
330
0
100
AcDbSymbolTable
 70
     1
  0
VPORT
  5
57
330
8
100
AcDbSymbolTableRecord
100
AcDbViewportTableRecord
  2
*Active
 70
     0
 10
0.0
 20
0.0
 11
1.0
 21
1.0
 12
0.0
 22
0.0
 13
0.0
 23
0.0
 14
1.0
 24
1.0
 15
0.0
 25
0.0
 16
0.0
 26
0.0
 36
1.0
 17
500.0
 27
-500.0
 37
0.0
 40
1020.0
 41
1.0
 42
50.0
 43
0.0
 44
0.0
 50
0.0
 51
0.0
 71
     0
 72
   100
 73
     1
 74
     1
 75
     0
 76
     0
 77
     0
 78
     0
281
     0
 65
     1
110
0.0
120
0.0
130
0.0
111
1.0
121
0.0
131
0.0
112
0.0
122
1.0
132
0.0
 79
     0
146
0.0
 60
     3
 61
     5
292
     1
282
     1
141
0.0
142
0.0
 63
   250
421
  3355443
  0
ENDTAB
  0
TABLE
  2
LTYPE
  5
5
330
0
100
AcDbSymbolTable
 70
     1
  0
LTYPE
  5
5B
330
5
100
AcDbSymbolTableRecord
100
AcDbLinetypeTableRecord
  2
ByBlock
 70
     0
  3

 72
    65
 73
     0
 40
0.0
  0
LTYPE
  5
5C
330
5
100
AcDbSymbolTableRecord
100
AcDbLinetypeTableRecord
  2
ByLayer
 70
     0
  3

 72
    65
 73
     0
 40
0.0
  0
LTYPE
  5
5D
330
5
100
AcDbSymbolTableRecord
100
AcDbLinetypeTableRecord
  2
Continuous
 70
     0
  3
Solid line
 72
    65
 73
     0
 40
0.0
  0
ENDTAB
  0
TABLE
  2
LAYER
  5
2
330
0
100
AcDbSymbolTable
 70
     2
  0
LAYER
  5
54
330
2
100
AcDbSymbolTableRecord
100
AcDbLayerTableRecord
  2
0
 70
     0
 62
     7
  6
Continuous
370
    -3
390
F
347
21
348
0
  0
LAYER
  5
78
330
2
100
AcDbSymbolTableRecord
100
AcDbLayerTableRecord
  2
katman 1
 70
     0
 62
     7
  6
Continuous
370
     0
390
F
347
21
348
0
  0
ENDTAB
  0
TABLE
  2
STYLE
  5
3
330
0
100
AcDbSymbolTable
 70
     2
  0
STYLE
  5
55
330
3
100
AcDbSymbolTableRecord
100
AcDbTextStyleTableRecord
  2
Standard
 70
     0
 40
0.0
 41
1.0
 50
0.0
 71
     0
 42
0.2
  3
txt
  4

  0
STYLE
  5
5A
330
3
100
AcDbSymbolTableRecord
100
AcDbTextStyleTableRecord
  2
Annotative
 70
     0
 40
0.0
 41
1.0
 50
0.0
 71
     0
 42
0.2
  3
txt
  4

1001
AcadAnnotative
1000
AnnotativeData
1002
{
1070
     1
1070
     1
1002
}
  0
ENDTAB
  0
TABLE
  2
VIEW
  5
6
330
0
100
AcDbSymbolTable
 70
     0
  0
ENDTAB
  0
TABLE
  2
UCS
  5
7
330
0
100
AcDbSymbolTable
 70
     0
  0
ENDTAB
  0
TABLE
  2
APPID
  5
9
330
0
100
AcDbSymbolTable
 70
     2
  0
APPID
  5
56
330
9
100
AcDbSymbolTableRecord
100
AcDbRegAppTableRecord
  2
ACAD
 70
     0
  0
APPID
  5
5E
330
9
100
AcDbSymbolTableRecord
100
AcDbRegAppTableRecord
  2
AcadAnnotative
 70
     0
  0
ENDTAB
  0
TABLE
  2
DIMSTYLE
  5
A
330
0
100
AcDbSymbolTable
 70
     2
100
AcDbDimStyleTable
 71
     0
  0
DIMSTYLE
105
58
330
A
100
AcDbSymbolTableRecord
100
AcDbDimStyleTableRecord
  2
Standard
 70
     0
340
55
  0
DIMSTYLE
105
59
330
A
100
AcDbSymbolTableRecord
100
AcDbDimStyleTableRecord
  2
Annotative
 70
     0
340
55
1001
AcadAnnotative
1000
AnnotativeData
1002
{
1070
     1
1070
     1
1002
}
  0
ENDTAB
  0
TABLE
  2
BLOCK_RECORD
  5
1
330
0
100
AcDbSymbolTable
 70
     2
  0
BLOCK_RECORD
  5
70
330
1
100
AcDbSymbolTableRecord
100
AcDbBlockTableRecord
  2
*Model_Space
340
73
 70
     0
280
     1
281
     0
  0
BLOCK_RECORD
  5
6C
330
1
100
AcDbSymbolTableRecord
100
AcDbBlockTableRecord
  2
*Paper_Space
340
6F
 70
     0
280
     1
281
     0
  0
BLOCK_RECORD
  5
74
330
1
100
AcDbSymbolTableRecord
100
AcDbBlockTableRecord
  2
*Paper_Space0
340
77
 70
     0
280
     1
281
     0
  0
BLOCK_RECORD
  5
79
330
1
100
AcDbSymbolTableRecord
100
AcDbBlockTableRecord
  2
Block_0
340
0
102
{BLKREFS
331
7A
102
}
 70
     0
280
     1
281
     0
  0
ENDTAB
  0
ENDSEC
  0
SECTION
  2
BLOCKS
  0
BLOCK
  5
71
330
70
100
AcDbEntity
  8
0
100
AcDbBlockBegin
  2
*Model_Space
 70
     0
 10
0.0
 20
0.0
 30
0.0
  3
*Model_Space
  1

  0
ENDBLK
  5
72
330
70
100
AcDbEntity
  8
0
100
AcDbBlockEnd
  0
BLOCK
  5
6D
330
6C
100
AcDbEntity
 67
     1
  8
0
100
AcDbBlockBegin
  2
*Paper_Space
 70
     0
 10
0.0
 20
0.0
 30
0.0
  3
*Paper_Space
  1

  0
ENDBLK
  5
6E
330
6C
100
AcDbEntity
 67
     1
  8
0
100
AcDbBlockEnd
  0
BLOCK
  5
75
330
74
100
AcDbEntity
 67
     1
  8
0
100
AcDbBlockBegin
  2
*Paper_Space0
 70
     0
 10
0.0
 20
0.0
 30
0.0
  3
*Paper_Space0
  1

  0
ENDBLK
  5
76
330
74
100
AcDbEntity
 67
     1
  8
0
100
AcDbBlockEnd
  0
BLOCK
  5
7B
330
79
100
AcDbEntity
  8
0
100
AcDbBlockBegin
  2
Block_0
 70
     0
 10
0.0
 20
0.0
 30
0.0
  3
Block_0
  1

  0
SPLINE
  5
7D
330
79
100
AcDbEntity
  8
katman 1
100
AcDbSpline
210
0.0
220
0.0
230
1.0
 70
     9
 71
     3
 72
    17
 73
    13
 74
     0
 42
0.0000000001
 43
0.0000000001
 40
0.0
 40
0.0
 40
0.0
 40
0.0
 40
1.0
 40
1.0
 40
1.0
 40
2.0
 40
2.0
 40
2.0
 40
3.0
 40
3.0
 40
3.0
 40
4.0
 40
4.0
 40
4.0
 40
4.0
 10
322.2926887466856
 20
-671.1564715107852
 30
0.0
 10
318.756017400472
 20
-676.9870845262012
 30
0.0
 10
320.6368656071172
 20
-684.2839740188428
 30
0.0
 10
326.5954308322071
 20
-687.850046450465
 30
0.0
 10
332.3122172990934
 20
-691.2714129812847
 30
0.0
 10
339.6219184378897
 20
-689.4536374941708
 30
0.0
 10
343.0541255923809
 20
-683.7570540077595
 30
0.0
 10
346.5489127107812
 20
-677.9569918408669
 30
0.0
 10
344.6414557005828
 20
-670.4633286034368
 30
0.0
 10
338.7847266372373
 20
-666.9834884055508
 30
0.0
 10
333.1865300232203
 20
-663.6573879615207
 30
0.0
 10
325.6912242670523
 20
-665.5538400961759
 30
0.0
 10
322.2926887466856
 20
-671.1564715107852
 30
0.0
  0
HATCH
  5
7E
330
79
100
AcDbEntity
  8
katman 1
 62
    18
420
        0
440
 33554687
100
AcDbHatch
 10
0.0
 20
0.0
 30
0.0
210
0.0
220
0.0
230
1.0
  2
SOLID
 70
     1
 71
     1
 91
        1
 92
        1
 93
        1
 72
     4
 94
        3
 73
     0
 74
     0
 95
       17
 96
       13
 40
0.0
 40
0.0
 40
0.0
 40
0.0
 40
1.0
 40
1.0
 40
1.0
 40
2.0
 40
2.0
 40
2.0
 40
3.0
 40
3.0
 40
3.0
 40
4.0
 40
4.0
 40
4.0
 40
4.0
 10
322.2926887466856
 20
-671.1564715107852
 10
318.756017400472
 20
-676.9870845262012
 10
320.6368656071172
 20
-684.2839740188428
 10
326.5954308322071
 20
-687.850046450465
 10
332.3122172990934
 20
-691.2714129812847
 10
339.6219184378897
 20
-689.4536374941708
 10
343.0541255923809
 20
-683.7570540077595
 10
346.5489127107812
 20
-677.9569918408669
 10
344.6414557005828
 20
-670.4633286034368
 10
338.7847266372373
 20
-666.9834884055508
 10
333.1865300232203
 20
-663.6573879615207
 10
325.6912242670523
 20
-665.5538400961759
 10
322.2926887466856
 20
-671.1564715107852
 97
        0
 97
        1
330
7D
 75
     2
 76
     1
 98
        1
 10
0.0
 20
0.0
450
        0
451
        0
460
0.0
461
0.0
452
        0
462
0.0
453
        0
470

  0
SPLINE
  5
7F
330
79
100
AcDbEntity
  8
katman 1
100
AcDbSpline
210
0.0
220
0.0
230
1.0
 70
     9
 71
     3
 72
    17
 73
    13
 74
     0
 42
0.0000000001
 43
0.0000000001
 40
0.0
 40
0.0
 40
0.0
 40
0.0
 40
1.0
 40
1.0
 40
1.0
 40
2.0
 40
2.0
 40
2.0
 40
3.0
 40
3.0
 40
3.0
 40
4.0
 40
4.0
 40
4.0
 40
4.0
 10
356.0117916629506
 20
-638.7710938096079
 30
0.0
 10
361.9559027231471
 20
-642.4033597463622
 30
0.0
 10
369.2409660808771
 20
-640.6788793235537
 30
0.0
 10
372.7300043836958
 20
-634.8136091627711
 30
0.0
 10
376.1630327975554
 20
-629.042619577538
 30
0.0
 10
374.3919048425941
 20
-622.0624076975418
 30
0.0
 10
368.586586615741
 20
-618.4841806272616
 30
0.0
 10
362.7126111056477
 20
-614.8634123216725
 30
0.0
 10
355.6676839873835
 20
-616.3572831136953
 30
0.0
 10
352.1080173788396
 20
-621.9784749900409
 30
0.0
 10
348.5429304584613
 20
-627.6082079638253
 30
0.0
 10
350.3309763564221
 20
-635.2996304572843
 30
0.0
 10
356.0117916629506
 20
-638.7710938096079
 30
0.0
  0
HATCH
  5
80
330
79
100
AcDbEntity
  8
katman 1
 62
    18
420
        0
440
 33554687
100
AcDbHatch
 10
0.0
 20
0.0
 30
0.0
210
0.0
220
0.0
230
1.0
  2
SOLID
 70
     1
 71
     1
 91
        1
 92
        1
 93
        1
 72
     4
 94
        3
 73
     0
 74
     0
 95
       17
 96
       13
 40
0.0
 40
0.0
 40
0.0
 40
0.0
 40
1.0
 40
1.0
 40
1.0
 40
2.0
 40
2.0
 40
2.0
 40
3.0
 40
3.0
 40
3.0
 40
4.0
 40
4.0
 40
4.0
 40
4.0
 10
356.0117916629506
 20
-638.7710938096079
 10
361.9559027231471
 20
-642.4033597463622
 10
369.2409660808771
 20
-640.6788793235537
 10
372.7300043836958
 20
-634.8136091627711
 10
376.1630327975554
 20
-629.042619577538
 10
374.3919048425941
 20
-622.0624076975418
 10
368.586586615741
 20
-618.4841806272616
 10
362.7126111056477
 20
-614.8634123216725
 10
355.6676839873835
 20
-616.3572831136953
 10
352.1080173788396
 20
-621.9784749900409
 10
348.5429304584613
 20
-627.6082079638253
 10
350.3309763564221
 20
-635.2996304572843
 10
356.0117916629506
 20
-638.7710938096079
 97
        0
 97
        1
330
7F
 75
     2
 76
     1
 98
        1
 10
0.0
 20
0.0
450
        0
451
        0
460
0.0
461
0.0
452
        0
462
0.0
453
        0
470

  0
SPLINE
  5
81
330
79
100
AcDbEntity
  8
katman 1
100
AcDbSpline
210
0.0
220
0.0
230
1.0
 70
     9
 71
     3
 72
    17
 73
    13
 74
     0
 42
0.0000000001
 43
0.0000000001
 40
0.0
 40
0.0
 40
0.0
 40
0.0
 40
1.0
 40
1.0
 40
1.0
 40
2.0
 40
2.0
 40
2.0
 40
3.0
 40
3.0
 40
3.0
 40
4.0
 40
4.0
 40
4.0
 40
4.0
 10
361.5600557073394
 20
-661.4163353956773
 30
0.0
 10
357.9348526011581
 20
-667.264851865335
 30
0.0
 10
359.7501643101659
 20
-674.4150644346919
 30
0.0
 10
365.7892129534066
 20
-678.0741034268721
 30
0.0
 10
371.5620093092511
 20
-681.5718470790016
 30
0.0
 10
378.7790723912376
 20
-679.883830572171
 30
0.0
 10
382.253656529163
 20
-674.2233824979921
 30
0.0
 10
385.8581638992482
 20
-668.3507210028892
 30
0.0
 10
384.0428521902404
 20
-661.1711073481256
 30
0.0
 10
378.0394462036093
 20
-657.5569091174875
 30
0.0
 10
372.2676353590068
 20
-654.0821607276866
 30
0.0
 10
365.0599346338267
 20
-655.7701772345171
 30
0.0
 10
361.5600557073394
 20
-661.4163353956773
 30
0.0
  0
HATCH
  5
82
330
79
100
AcDbEntity
  8
katman 1
 62
    18
420
        0
440
 33554687
100
AcDbHatch
 10
0.0
 20
0.0
 30
0.0
210
0.0
220
0.0
230
1.0
  2
SOLID
 70
     1
 71
     1
 91
        1
 92
        1
 93
        1
 72
     4
 94
        3
 73
     0
 74
     0
 95
       17
 96
       13
 40
0.0
 40
0.0
 40
0.0
 40
0.0
 40
1.0
 40
1.0
 40
1.0
 40
2.0
 40
2.0
 40
2.0
 40
3.0
 40
3.0
 40
3.0
 40
4.0
 40
4.0
 40
4.0
 40
4.0
 10
361.5600557073394
 20
-661.4163353956773
 10
357.9348526011581
 20
-667.264851865335
 10
359.7501643101659
 20
-674.4150644346919
 10
365.7892129534066
 20
-678.0741034268721
 10
371.5620093092511
 20
-681.5718470790016
 10
378.7790723912376
 20
-679.883830572171
 10
382.253656529163
 20
-674.2233824979921
 10
385.8581638992482
 20
-668.3507210028892
 10
384.0428521902404
 20
-661.1711073481256
 10
378.0394462036093
 20
-657.5569091174875
 10
372.2676353590068
 20
-654.0821607276866
 10
365.0599346338267
 20
-655.7701772345171
 10
361.5600557073394
 20
-661.4163353956773
 97
        0
 97
        1
330
81
 75
     2
 76
     1
 98
        1
 10
0.0
 20
0.0
450
        0
451
        0
460
0.0
461
0.0
452
        0
462
0.0
453
        0
470

  0
SPLINE
  5
83
330
79
100
AcDbEntity
  8
katman 1
100
AcDbSpline
210
0.0
220
0.0
230
1.0
 70
     9
 71
     3
 72
    17
 73
    13
 74
     0
 42
0.0000000001
 43
0.0000000001
 40
0.0
 40
0.0
 40
0.0
 40
0.0
 40
1.0
 40
1.0
 40
1.0
 40
2.0
 40
2.0
 40
2.0
 40
3.0
 40
3.0
 40
3.0
 40
4.0
 40
4.0
 40
4.0
 40
4.0
 10
316.4853994973473
 20
-648.1861754665078
 30
0.0
 10
322.5257621555793
 20
-652.0303263204368
 30
0.0
 10
329.5079450580597
 20
-650.5709484219078
 30
0.0
 10
333.2113320561603
 20
-644.6904028368644
 30
0.0
 10
336.9442843915412
 20
-638.7627169640454
 30
0.0
 10
335.2978236087783
 20
-632.084235776183
 30
0.0
 10
329.1354218083288
 20
-628.1577947334899
 30
0.0
 10
323.3452147538628
 20
-624.4685333965353
 30
0.0
 10
316.3924329367883
 20
-625.9939405483219
 30
0.0
 10
312.818312163352
 20
-631.7376643225088
 30
0.0
 10
309.2363072999751
 20
-637.4940354909758
 30
0.0
 10
310.815589066362
 20
-644.577890303326
 30
0.0
 10
316.4853994973473
 20
-648.1861754665078
 30
0.0
  0
HATCH
  5
84
330
79
100
AcDbEntity
  8
katman 1
 62
    18
420
        0
440
 33554687
100
AcDbHatch
 10
0.0
 20
0.0
 30
0.0
210
0.0
220
0.0
230
1.0
  2
SOLID
 70
     1
 71
     1
 91
        1
 92
        1
 93
        1
 72
     4
 94
        3
 73
     0
 74
     0
 95
       17
 96
       13
 40
0.0
 40
0.0
 40
0.0
 40
0.0
 40
1.0
 40
1.0
 40
1.0
 40
2.0
 40
2.0
 40
2.0
 40
3.0
 40
3.0
 40
3.0
 40
4.0
 40
4.0
 40
4.0
 40
4.0
 10
316.4853994973473
 20
-648.1861754665078
 10
322.5257621555793
 20
-652.0303263204368
 10
329.5079450580597
 20
-650.5709484219078
 10
333.2113320561603
 20
-644.6904028368644
 10
336.9442843915412
 20
-638.7627169640454
 10
335.2978236087783
 20
-632.084235776183
 10
329.1354218083288
 20
-628.1577947334899
 10
323.3452147538628
 20
-624.4685333965353
 10
316.3924329367883
 20
-625.9939405483219
 10
312.818312163352
 20
-631.7376643225088
 10
309.2363072999751
 20
-637.4940354909758
 10
310.815589066362
 20
-644.577890303326
 10
316.4853994973473
 20
-648.1861754665078
 97
        0
 97
        1
330
83
 75
     2
 76
     1
 98
        1
 10
0.0
 20
0.0
450
        0
451
        0
460
0.0
461
0.0
452
        0
462
0.0
453
        0
470

  0
SPLINE
  5
85
330
79
100
AcDbEntity
  8
katman 1
100
AcDbSpline
210
0.0
220
0.0
230
1.0
 70
     9
 71
     3
 72
    29
 73
    25
 74
     0
 42
0.0000000001
 43
0.0000000001
 40
0.0
 40
0.0
 40
0.0
 40
0.0
 40
1.0
 40
1.0
 40
1.0
 40
2.0
 40
2.0
 40
2.0
 40
3.0
 40
3.0
 40
3.0
 40
4.0
 40
4.0
 40
4.0
 40
5.0
 40
5.0
 40
5.0
 40
6.0
 40
6.0
 40
6.0
 40
7.0
 40
7.0
 40
7.0
 40
8.0
 40
8.0
 40
8.0
 40
8.0
 10
197.3083461799815
 20
-532.6280836841196
 30
0.0
 10
202.6182807555169
 20
-521.6877591273077
 30
0.0
 10
204.1096877694327
 20
-524.1372473209776
 30
0.0
 10
193.4531904505093
 20
-517.5734139410105
 30
0.0
 10
191.4366701961226
 20
-516.3525297632095
 30
0.0
 10
189.3781014620472
 20
-515.1945540530668
 30
0.0
 10
187.4152915703853
 20
-513.8925294496184
 30
0.0
 10
184.8580541475167
 20
-512.1961360972273
 30
0.0
 10
183.103351379933
 20
-512.835568641849
 30
0.0
 10
181.6700895293352
 20
-515.4292699806974
 30
0.0
 10
179.8429516854148
 20
-518.73598870362
 30
0.0
 10
178.0800363241423
 20
-522.1136642360161
 30
0.0
 10
175.8807037342385
 20
-525.1662853102043
 30
0.0
 10
174.4264176437973
 20
-527.1851050908244
 30
0.0
 10
173.9579712997793
 20
-529.1686107185815
 30
0.0
 10
174.4737221834457
 20
-531.4007936832422
 30
0.0
 10
175.2072710517441
 20
-534.5759466552681
 30
0.0
 10
176.1806276557599
 20
-537.6952539902085
 30
0.0
 10
177.0194619751501
 20
-540.8469189442858
 30
0.0
 10
177.4087389160067
 20
-542.310238887785
 30
0.0
 10
178.0800363241423
 20
-543.0506863347818
 30
0.0
 10
179.8018887169701
 20
-542.7597962663185
 30
0.0
 10
186.8974054123591
 20
-541.561414595224
 30
0.0
 10
193.4347942406466
 20
-540.6089179791798
 30
0.0
 10
197.3083461799815
 20
-532.6280836841196
 30
0.0
  0
HATCH
  5
86
330
79
100
AcDbEntity
  8
katman 1
 62
    18
420
        0
440
 33554687
100
AcDbHatch
 10
0.0
 20
0.0
 30
0.0
210
0.0
220
0.0
230
1.0
  2
SOLID
 70
     1
 71
     1
 91
        1
 92
        1
 93
        1
 72
     4
 94
        3
 73
     0
 74
     0
 95
       29
 96
       25
 40
0.0
 40
0.0
 40
0.0
 40
0.0
 40
1.0
 40
1.0
 40
1.0
 40
2.0
 40
2.0
 40
2.0
 40
3.0
 40
3.0
 40
3.0
 40
4.0
 40
4.0
 40
4.0
 40
5.0
 40
5.0
 40
5.0
 40
6.0
 40
6.0
 40
6.0
 40
7.0
 40
7.0
 40
7.0
 40
8.0
 40
8.0
 40
8.0
 40
8.0
 10
197.3083461799815
 20
-532.6280836841196
 10
202.6182807555169
 20
-521.6877591273077
 10
204.1096877694327
 20
-524.1372473209776
 10
193.4531904505093
 20
-517.5734139410105
 10
191.4366701961226
 20
-516.3525297632095
 10
189.3781014620472
 20
-515.1945540530668
 10
187.4152915703853
 20
-513.8925294496184
 10
184.8580541475167
 20
-512.1961360972273
 10
183.103351379933
 20
-512.835568641849
 10
181.6700895293352
 20
-515.4292699806974
 10
179.8429516854148
 20
-518.73598870362
 10
178.0800363241423
 20
-522.1136642360161
 10
175.8807037342385
 20
-525.1662853102043
 10
174.4264176437973
 20
-527.1851050908244
 10
173.9579712997793
 20
-529.1686107185815
 10
174.4737221834457
 20
-531.4007936832422
 10
175.2072710517441
 20
-534.5759466552681
 10
176.1806276557599
 20
-537.6952539902085
 10
177.0194619751501
 20
-540.8469189442858
 10
177.4087389160067
 20
-542.310238887785
 10
178.0800363241423
 20
-543.0506863347818
 10
179.8018887169701
 20
-542.7597962663185
 10
186.8974054123591
 20
-541.561414595224
 10
193.4347942406466
 20
-540.6089179791798
 10
197.3083461799815
 20
-532.6280836841196
 97
        0
 97
        1
330
85
 75
     2
 76
     1
 98
        1
 10
0.0
 20
0.0
450
        0
451
        0
460
0.0
461
0.0
452
        0
462
0.0
453
        0
470

  0
SPLINE
  5
87
330
79
100
AcDbEntity
  8
katman 1
100
AcDbSpline
210
0.0
220
0.0
230
1.0
 70
     9
 71
     3
 72
    29
 73
    25
 74
     0
 42
0.0000000001
 43
0.0000000001
 40
0.0
 40
0.0
 40
0.0
 40
0.0
 40
1.0
 40
1.0
 40
1.0
 40
2.0
 40
2.0
 40
2.0
 40
3.0
 40
3.0
 40
3.0
 40
4.0
 40
4.0
 40
4.0
 40
5.0
 40
5.0
 40
5.0
 40
6.0
 40
6.0
 40
6.0
 40
7.0
 40
7.0
 40
7.0
 40
8.0
 40
8.0
 40
8.0
 40
8.0
 10
208.0964092498016
 20
-556.6926257115155
 30
0.0
 10
204.7898547787518
 20
-554.8654878675952
 30
0.0
 10
201.4121792463557
 20
-553.1024082544481
 30
0.0
 10
198.3593939202956
 20
-550.9032399164189
 30
0.0
 10
196.3405741396746
 20
-549.4487895741039
 30
0.0
 10
194.3572327637903
 20
-548.980343230085
 30
0.0
 10
192.1250497991314
 20
-549.4960941137524
 30
0.0
 10
188.9497325752309
 20
-550.2298072339235
 30
0.0
 10
185.8305894921632
 20
-551.2031638379394
 30
0.0
 10
182.6787602862132
 20
-552.0418339054558
 30
0.0
 10
181.2156045945885
 20
-552.4312750981862
 30
0.0
 10
180.4751571475917
 20
-553.1025725063227
 30
0.0
 10
180.7658829641805
 20
-554.8242606472759
 30
0.0
 10
181.964264635274
 20
-561.9197773426658
 30
0.0
 10
182.9169255031938
 20
-568.4571661709524
 30
0.0
 10
190.897759798252
 20
-572.3307181102882
 30
0.0
 10
201.8379201031921
 20
-577.6408169376972
 30
0.0
 10
199.388596161396
 20
-579.1320596997393
 30
0.0
 10
205.9522652894884
 20
-568.4755623808159
 30
0.0
 10
207.1733137191622
 20
-566.4590421264292
 30
0.0
 10
208.3311251774321
 20
-564.4004733923538
 30
0.0
 10
209.6333140327542
 20
-562.4378277525647
 30
0.0
 10
211.3297073851463
 20
-559.8805903296961
 30
0.0
 10
210.69011058865
 20
-558.1257233102387
 30
0.0
 10
208.0964092498016
 20
-556.6926257115155
 30
0.0
  0
HATCH
  5
88
330
79
100
AcDbEntity
  8
katman 1
 62
    18
420
        0
440
 33554687
100
AcDbHatch
 10
0.0
 20
0.0
 30
0.0
210
0.0
220
0.0
230
1.0
  2
SOLID
 70
     1
 71
     1
 91
        1
 92
        1
 93
        1
 72
     4
 94
        3
 73
     0
 74
     0
 95
       29
 96
       25
 40
0.0
 40
0.0
 40
0.0
 40
0.0
 40
1.0
 40
1.0
 40
1.0
 40
2.0
 40
2.0
 40
2.0
 40
3.0
 40
3.0
 40
3.0
 40
4.0
 40
4.0
 40
4.0
 40
5.0
 40
5.0
 40
5.0
 40
6.0
 40
6.0
 40
6.0
 40
7.0
 40
7.0
 40
7.0
 40
8.0
 40
8.0
 40
8.0
 40
8.0
 10
208.0964092498016
 20
-556.6926257115155
 10
204.7898547787518
 20
-554.8654878675952
 10
201.4121792463557
 20
-553.1024082544481
 10
198.3593939202956
 20
-550.9032399164189
 10
196.3405741396746
 20
-549.4487895741039
 10
194.3572327637903
 20
-548.980343230085
 10
192.1250497991314
 20
-549.4960941137524
 10
188.9497325752309
 20
-550.2298072339235
 10
185.8305894921632
 20
-551.2031638379394
 10
182.6787602862132
 20
-552.0418339054558
 10
181.2156045945885
 20
-552.4312750981862
 10
180.4751571475917
 20
-553.1025725063227
 10
180.7658829641805
 20
-554.8242606472759
 10
181.964264635274
 20
-561.9197773426658
 10
182.9169255031938
 20
-568.4571661709524
 10
190.897759798252
 20
-572.3307181102882
 10
201.8379201031921
 20
-577.6408169376972
 10
199.388596161396
 20
-579.1320596997393
 10
205.9522652894884
 20
-568.4755623808159
 10
207.1733137191622
 20
-566.4590421264292
 10
208.3311251774321
 20
-564.4004733923538
 10
209.6333140327542
 20
-562.4378277525647
 10
211.3297073851463
 20
-559.8805903296961
 10
210.69011058865
 20
-558.1257233102387
 10
208.0964092498016
 20
-556.6926257115155
 97
        0
 97
        1
330
87
 75
     2
 76
     1
 98
        1
 10
0.0
 20
0.0
450
        0
451
        0
460
0.0
461
0.0
452
        0
462
0.0
453
        0
470

  0
SPLINE
  5
89
330
79
100
AcDbEntity
  8
katman 1
100
AcDbSpline
210
0.0
220
0.0
230
1.0
 70
     9
 71
     3
 72
    29
 73
    25
 74
     0
 42
0.0000000001
 43
0.0000000001
 40
0.0
 40
0.0
 40
0.0
 40
0.0
 40
1.0
 40
1.0
 40
1.0
 40
2.0
 40
2.0
 40
2.0
 40
3.0
 40
3.0
 40
3.0
 40
4.0
 40
4.0
 40
4.0
 40
5.0
 40
5.0
 40
5.0
 40
6.0
 40
6.0
 40
6.0
 40
7.0
 40
7.0
 40
7.0
 40
8.0
 40
8.0
 40
8.0
 40
8.0
 10
171.6147540684442
 20
-557.1873523553385
 30
0.0
 10
171.2253128757138
 20
-555.7240324118392
 30
0.0
 10
170.5540154675782
 20
-554.9835849648425
 30
0.0
 10
168.8321630747505
 20
-555.2744750333058
 30
0.0
 10
161.7368106312351
 20
-556.4728567043984
 30
0.0
 10
155.1992575510739
 20
-557.4253533204446
 30
0.0
 10
151.3257056117391
 20
-565.4061876155028
 30
0.0
 10
146.0157710362036
 20
-576.3465121723165
 30
0.0
 10
144.5243640222888
 20
-573.8970239786467
 30
0.0
 10
155.181025593085
 20
-580.4608573586119
 30
0.0
 10
157.1975458474726
 20
-581.6819057882876
 30
0.0
 10
159.2559503296743
 20
-582.8397172465574
 30
0.0
 10
161.2187602213362
 20
-584.1417418500059
 30
0.0
 10
163.7759976442048
 20
-585.8381352023971
 30
0.0
 10
165.5307004117876
 20
-585.1987026577753
 30
0.0
 10
166.9639622623854
 20
-582.6050013189269
 30
0.0
 10
168.7911001063057
 20
-579.2984468478771
 30
0.0
 10
170.5540154675782
 20
-575.9206070636064
 30
0.0
 10
172.7533480574821
 20
-572.86798598942
 30
0.0
 10
174.2077983997969
 20
-570.8491662087999
 30
0.0
 10
174.6760804919422
 20
-568.8658248329156
 30
0.0
 10
174.1603296082748
 20
-566.6334776163821
 30
0.0
 10
173.4267807399774
 20
-563.4583246443562
 30
0.0
 10
172.4534241359615
 20
-560.339017309414
 30
0.0
 10
171.6147540684442
 20
-557.1873523553385
 30
0.0
  0
HATCH
  5
8A
330
79
100
AcDbEntity
  8
katman 1
 62
    18
420
        0
440
 33554687
100
AcDbHatch
 10
0.0
 20
0.0
 30
0.0
210
0.0
220
0.0
230
1.0
  2
SOLID
 70
     1
 71
     1
 91
        1
 92
        1
 93
        1
 72
     4
 94
        3
 73
     0
 74
     0
 95
       29
 96
       25
 40
0.0
 40
0.0
 40
0.0
 40
0.0
 40
1.0
 40
1.0
 40
1.0
 40
2.0
 40
2.0
 40
2.0
 40
3.0
 40
3.0
 40
3.0
 40
4.0
 40
4.0
 40
4.0
 40
5.0
 40
5.0
 40
5.0
 40
6.0
 40
6.0
 40
6.0
 40
7.0
 40
7.0
 40
7.0
 40
8.0
 40
8.0
 40
8.0
 40
8.0
 10
171.6147540684442
 20
-557.1873523553385
 10
171.2253128757138
 20
-555.7240324118392
 10
170.5540154675782
 20
-554.9835849648425
 10
168.8321630747505
 20
-555.2744750333058
 10
161.7368106312351
 20
-556.4728567043984
 10
155.1992575510739
 20
-557.4253533204446
 10
151.3257056117391
 20
-565.4061876155028
 10
146.0157710362036
 20
-576.3465121723165
 10
144.5243640222888
 20
-573.8970239786467
 10
155.181025593085
 20
-580.4608573586119
 10
157.1975458474726
 20
-581.6819057882876
 10
159.2559503296743
 20
-582.8397172465574
 10
161.2187602213362
 20
-584.1417418500059
 10
163.7759976442048
 20
-585.8381352023971
 10
165.5307004117876
 20
-585.1987026577753
 10
166.9639622623854
 20
-582.6050013189269
 10
168.7911001063057
 20
-579.2984468478771
 10
170.5540154675782
 20
-575.9206070636064
 10
172.7533480574821
 20
-572.86798598942
 10
174.2077983997969
 20
-570.8491662087999
 10
174.6760804919422
 20
-568.8658248329156
 10
174.1603296082748
 20
-566.6334776163821
 10
173.4267807399774
 20
-563.4583246443562
 10
172.4534241359615
 20
-560.339017309414
 10
171.6147540684442
 20
-557.1873523553385
 97
        0
 97
        1
330
89
 75
     2
 76
     1
 98
        1
 10
0.0
 20
0.0
450
        0
451
        0
460
0.0
461
0.0
452
        0
462
0.0
453
        0
470

  0
SPLINE
  5
8B
330
79
100
AcDbEntity
  8
katman 1
100
AcDbSpline
210
0.0
220
0.0
230
1.0
 70
     9
 71
     3
 72
    29
 73
    25
 74
     0
 42
0.0000000001
 43
0.0000000001
 40
0.0
 40
0.0
 40
0.0
 40
0.0
 40
1.0
 40
1.0
 40
1.0
 40
2.0
 40
2.0
 40
2.0
 40
3.0
 40
3.0
 40
3.0
 40
4.0
 40
4.0
 40
4.0
 40
5.0
 40
5.0
 40
5.0
 40
6.0
 40
6.0
 40
6.0
 40
7.0
 40
7.0
 40
7.0
 40
8.0
 40
8.0
 40
8.0
 40
8.0
 10
166.185408380672
 20
-545.9860315710902
 30
0.0
 10
167.8463233283273
 20
-545.4474496769671
 30
0.0
 10
168.0991069620741
 20
-544.4803346441549
 30
0.0
 10
167.7673181770396
 20
-543.003053291386
 30
0.0
 10
167.0529867779741
 20
-539.8208374887872
 30
0.0
 10
166.4730134116598
 20
-536.6051143039367
 30
0.0
 10
165.6545463246175
 20
-533.4506570680059
 30
0.0
 10
165.079172010769
 20
-531.2330925201131
 30
0.0
 10
163.7464323069243
 20
-529.6912601809472
 30
0.0
 10
161.5231189434489
 20
-528.5743474392493
 30
0.0
 10
158.1612115909356
 20
-526.8851811693038
 30
0.0
 10
155.0356626847906
 20
-524.7062158117478
 30
0.0
 10
151.8861330050731
 20
-522.6198885110043
 30
0.0
 10
149.4157848234335
 20
-520.9832828406688
 30
0.0
 10
147.5641734503206
 20
-521.2280181325986
 30
0.0
 10
146.081800289463
 20
-523.9150145357525
 30
0.0
 10
144.9438633079207
 20
-525.9773610629253
 30
0.0
 10
143.6544860987533
 20
-527.9561033863428
 30
0.0
 10
142.4316308984671
 20
-529.9714738776146
 30
0.0
 10
136.0202232573683
 20
-540.7202807496014
 30
0.0
 10
136.2092771640891
 20
-537.8588488564928
 30
0.0
 10
145.977664601487
 20
-545.1018637345368
 30
0.0
 10
153.1038963972733
 20
-550.3855180102673
 30
0.0
 10
159.3403757927963
 20
-548.2058956452164
 30
0.0
 10
166.185408380672
 20
-545.9860315710902
 30
0.0
  0
HATCH
  5
8C
330
79
100
AcDbEntity
  8
katman 1
 62
    18
420
        0
440
 33554687
100
AcDbHatch
 10
0.0
 20
0.0
 30
0.0
210
0.0
220
0.0
230
1.0
  2
SOLID
 70
     1
 71
     1
 91
        1
 92
        1
 93
        1
 72
     4
 94
        3
 73
     0
 74
     0
 95
       29
 96
       25
 40
0.0
 40
0.0
 40
0.0
 40
0.0
 40
1.0
 40
1.0
 40
1.0
 40
2.0
 40
2.0
 40
2.0
 40
3.0
 40
3.0
 40
3.0
 40
4.0
 40
4.0
 40
4.0
 40
5.0
 40
5.0
 40
5.0
 40
6.0
 40
6.0
 40
6.0
 40
7.0
 40
7.0
 40
7.0
 40
8.0
 40
8.0
 40
8.0
 40
8.0
 10
166.185408380672
 20
-545.9860315710902
 10
167.8463233283273
 20
-545.4474496769671
 10
168.0991069620741
 20
-544.4803346441549
 10
167.7673181770396
 20
-543.003053291386
 10
167.0529867779741
 20
-539.8208374887872
 10
166.4730134116598
 20
-536.6051143039367
 10
165.6545463246175
 20
-533.4506570680059
 10
165.079172010769
 20
-531.2330925201131
 10
163.7464323069243
 20
-529.6912601809472
 10
161.5231189434489
 20
-528.5743474392493
 10
158.1612115909356
 20
-526.8851811693038
 10
155.0356626847906
 20
-524.7062158117478
 10
151.8861330050731
 20
-522.6198885110043
 10
149.4157848234335
 20
-520.9832828406688
 10
147.5641734503206
 20
-521.2280181325986
 10
146.081800289463
 20
-523.9150145357525
 10
144.9438633079207
 20
-525.9773610629253
 10
143.6544860987533
 20
-527.9561033863428
 10
142.4316308984671
 20
-529.9714738776146
 10
136.0202232573683
 20
-540.7202807496014
 10
136.2092771640891
 20
-537.8588488564928
 10
145.977664601487
 20
-545.1018637345368
 10
153.1038963972733
 20
-550.3855180102673
 10
159.3403757927963
 20
-548.2058956452164
 10
166.185408380672
 20
-545.9860315710902
 97
        0
 97
        1
330
8B
 75
     2
 76
     1
 98
        1
 10
0.0
 20
0.0
450
        0
451
        0
460
0.0
461
0.0
452
        0
462
0.0
453
        0
470

  0
SPLINE
  5
8D
330
79
100
AcDbEntity
  8
katman 1
100
AcDbSpline
210
0.0
220
0.0
230
1.0
 70
     9
 71
     3
 72
    17
 73
    13
 74
     0
 42
0.0000000001
 43
0.0000000001
 40
0.0
 40
0.0
 40
0.0
 40
0.0
 40
1.0
 40
1.0
 40
1.0
 40
2.0
 40
2.0
 40
2.0
 40
3.0
 40
3.0
 40
3.0
 40
4.0
 40
4.0
 40
4.0
 40
4.0
 10
851.5715209898026
 20
-590.1136114768705
 30
0.0
 10
826.1867224009693
 20
-605.690109422976
 30
0.0
 10
793.9373452512809
 20
-598.1716441526059
 30
0.0
 10
778.5067029690926
 20
-573.351050750205
 30
0.0
 10
763.9020833601371
 20
-549.8590907548041
 30
0.0
 10
769.4378642621195
 20
-517.1609774859517
 30
0.0
 10
795.2989932849122
 20
-500.8312204466938
 30
0.0
 10
820.2955004441301
 20
-485.0472723840048
 30
0.0
 10
852.8260768017281
 20
-493.102841281634
 30
0.0
 10
868.1869120375614
 20
-518.1997063357303
 30
0.0
 10
883.2284416307684
 20
-542.7752359424539
 30
0.0
 10
875.7139184053684
 20
-575.2994064769736
 30
0.0
 10
851.5715209898026
 20
-590.1136114768705
 30
0.0
  0
SPLINE
  5
8E
330
79
100
AcDbEntity
  8
katman 1
100
AcDbSpline
210
0.0
220
0.0
230
1.0
 70
     9
 71
     3
 72
    17
 73
    13
 74
     0
 42
0.0000000001
 43
0.0000000001
 40
0.0
 40
0.0
 40
0.0
 40
0.0
 40
1.0
 40
1.0
 40
1.0
 40
2.0
 40
2.0
 40
2.0
 40
3.0
 40
3.0
 40
3.0
 40
4.0
 40
4.0
 40
4.0
 40
4.0
 10
816.6159299677273
 20
-649.1959959865016
 30
0.0
 10
808.2946015383241
 20
-654.2427990602427
 30
0.0
 10
797.4873209992729
 20
-651.7446923119351
 30
0.0
 10
792.5528662071956
 20
-643.6337705328424
 30
0.0
 10
787.2261779405362
 20
-634.8781601491664
 30
0.0
 10
789.6309896245384
 20
-624.0176620030106
 30
0.0
 10
798.0406855620349
 20
-618.8506265576634
 30
0.0
 10
806.3465743153027
 20
-613.7473208393421
 30
0.0
 10
817.3394594717247
 20
-616.3858629397327
 30
0.0
 10
822.4767653279178
 20
-624.7158967184459
 30
0.0
 10
827.5667666444624
 20
-632.9690606202311
 30
0.0
 10
824.8820697675419
 20
-644.1828645468867
 30
0.0
 10
816.6159299677273
 20
-649.1959959865016
 30
0.0
  0
SPLINE
  5
8F
330
79
100
AcDbEntity
  8
katman 1
100
AcDbSpline
210
0.0
220
0.0
230
1.0
 70
     9
 71
     3
 72
    17
 73
    13
 74
     0
 42
0.0000000001
 43
0.0000000001
 40
0.0
 40
0.0
 40
0.0
 40
0.0
 40
1.0
 40
1.0
 40
1.0
 40
2.0
 40
2.0
 40
2.0
 40
3.0
 40
3.0
 40
3.0
 40
4.0
 40
4.0
 40
4.0
 40
4.0
 10
747.8485979725774
 20
-690.8808220254377
 30
0.0
 10
739.6417530991985
 20
-696.0246979565818
 30
0.0
 10
728.4857658321125
 20
-693.3170058173327
 30
0.0
 10
723.3937934930818
 20
-684.9455805664256
 30
0.0
 10
718.2987003684502
 20
-676.5692277593061
 30
0.0
 10
720.9743633923135
 20
-665.5032505190519
 30
0.0
 10
729.3020976447951
 20
-660.5101578080375
 30
0.0
 10
737.673194391953
 20
-655.4912775528391
 30
0.0
 10
748.6903888256965
 20
-658.2554723366702
 30
0.0
 10
753.7248730089031
 20
-666.6379024631187
 30
0.0
 10
758.6343615161641
 20
-674.8123897173646
 30
0.0
 10
755.9741381684362
 20
-685.7880284270395
 30
0.0
 10
747.8485979725774
 20
-690.8808220254377
 30
0.0
  0
SPLINE
  5
90
330
79
100
AcDbEntity
  8
katman 1
100
AcDbSpline
210
0.0
220
0.0
230
1.0
 70
     9
 71
     3
 72
    17
 73
    13
 74
     0
 42
0.0000000001
 43
0.0000000001
 40
0.0
 40
0.0
 40
0.0
 40
0.0
 40
1.0
 40
1.0
 40
1.0
 40
2.0
 40
2.0
 40
2.0
 40
3.0
 40
3.0
 40
3.0
 40
4.0
 40
4.0
 40
4.0
 40
4.0
 10
696.6935016471524
 20
-579.9910969996035
 30
0.0
 10
689.0053641911672
 20
-567.2678183529169
 30
0.0
 10
692.9615348230145
 20
-551.5525275734689
 30
0.0
 10
705.8129299312495
 20
-543.7660032450894
 30
0.0
 10
718.2525455919185
 20
-536.2288132611083
 30
0.0
 10
734.3475867035449
 20
-540.1314377821035
 30
0.0
 10
741.9508059407853
 20
-552.528347955591
 30
0.0
 10
749.5234743295041
 20
-564.8756540631966
 30
0.0
 10
745.5392166272413
 20
-581.380010844281
 30
0.0
 10
733.1221034732789
 20
-589.1000131637793
 30
0.0
 10
720.886652891717
 20
-596.7070101941171
 30
0.0
 10
704.286044512597
 20
-592.5560368399674
 30
0.0
 10
696.6935016471524
 20
-579.9910969996035
 30
0.0
  0
SPLINE
  5
91
330
79
100
AcDbEntity
  8
katman 1
100
AcDbSpline
210
0.0
220
0.0
230
1.0
 70
     9
 71
     3
 72
    17
 73
    13
 74
     0
 42
0.0000000001
 43
0.0000000001
 40
0.0
 40
0.0
 40
0.0
 40
0.0
 40
1.0
 40
1.0
 40
1.0
 40
2.0
 40
2.0
 40
2.0
 40
3.0
 40
3.0
 40
3.0
 40
4.0
 40
4.0
 40
4.0
 40
4.0
 10
681.5003675744464
 20
-693.2018652538135
 30
0.0
 10
656.364739078137
 20
-708.8908757334575
 30
0.0
 10
623.7600851254646
 20
-701.7367211191285
 30
0.0
 10
608.4092692539325
 20
-677.5330577546428
 30
0.0
 10
593.3201066173296
 20
-653.7421593489634
 30
0.0
 10
598.7105246110149
 20
-620.9675047069303
 30
0.0
 10
624.329874875606
 20
-604.4932060187475
 30
0.0
 10
649.3654739807825
 20
-588.394222862149
 30
0.0
 10
681.9770265121551
 20
-596.229529997041
 30
0.0
 10
697.6356503951501
 20
-621.4216611379306
 30
0.0
 10
712.6408803242521
 20
-645.5625802866324
 30
0.0
 10
705.2667924509332
 20
-678.367293021567
 30
0.0
 10
681.5003675744464
 20
-693.2018652538135
 30
0.0
  0
SPLINE
  5
92
330
79
100
AcDbEntity
  8
katman 1
100
AcDbSpline
210
0.0
220
0.0
230
1.0
 70
     9
 71
     3
 72
    17
 73
    13
 74
     0
 42
0.0000000001
 43
0.0000000001
 40
0.0
 40
0.0
 40
0.0
 40
0.0
 40
1.0
 40
1.0
 40
1.0
 40
2.0
 40
2.0
 40
2.0
 40
3.0
 40
3.0
 40
3.0
 40
4.0
 40
4.0
 40
4.0
 40
4.0
 10
375.146477950736
 20
-608.0844089870552
 30
0.0
 10
400.7656639634515
 20
-624.5587076752399
 30
0.0
 10
406.1560819571386
 20
-657.333362317273
 30
0.0
 10
391.0670835724086
 20
-681.1242607229523
 30
0.0
 10
375.7161034490018
 20
-705.327924087438
 30
0.0
 10
343.1114494963294
 20
-712.482078701767
 30
0.0
 10
317.9759852518946
 20
-696.7930682221212
 30
0.0
 10
294.209396123535
 20
-681.9584959898766
 30
0.0
 10
286.8353082502163
 20
-649.153783254942
 30
0.0
 10
301.840702431191
 20
-625.0128641062383
 30
0.0
 10
317.4993263141869
 20
-599.8207329653487
 30
0.0
 10
350.110714593684
 20
-591.9854258304585
 30
0.0
 10
375.146477950736
 20
-608.0844089870552
 30
0.0
  0
SPLINE
  5
93
330
79
100
AcDbEntity
  8
katman 1
100
AcDbSpline
210
0.0
220
0.0
230
1.0
 70
     9
 71
     3
 72
    17
 73
    13
 74
     0
 42
0.0000000001
 43
0.0000000001
 40
0.0
 40
0.0
 40
0.0
 40
0.0
 40
1.0
 40
1.0
 40
1.0
 40
2.0
 40
2.0
 40
2.0
 40
3.0
 40
3.0
 40
3.0
 40
4.0
 40
4.0
 40
4.0
 40
4.0
 10
266.3540851011885
 20
-592.6912161320887
 30
0.0
 10
253.9371361990998
 20
-584.9712138125905
 30
0.0
 10
249.952878496837
 20
-568.4668570315061
 30
0.0
 10
257.5255468855548
 20
-556.1195509239005
 30
0.0
 10
265.1286018709216
 20
-543.7226407504131
 30
0.0
 10
281.223642982548
 20
-539.8200162294179
 30
0.0
 10
293.6632586432188
 20
-547.3570419615243
 30
0.0
 10
306.5146537514529
 20
-555.1437305417766
 30
0.0
 10
310.4709886351738
 20
-570.8590213212264
 30
0.0
 10
302.7826869273149
 20
-583.582299967913
 30
0.0
 10
295.190308313744
 20
-596.1472398082769
 30
0.0
 10
278.5895356827514
 20
-600.2982131624248
 30
0.0
 10
266.3540851011885
 20
-592.6912161320887
 30
0.0
  0
SPLINE
  5
94
330
79
100
AcDbEntity
  8
katman 1
100
AcDbSpline
210
0.0
220
0.0
230
1.0
 70
     9
 71
     3
 72
    17
 73
    13
 74
     0
 42
0.0000000001
 43
0.0000000001
 40
0.0
 40
0.0
 40
0.0
 40
0.0
 40
1.0
 40
1.0
 40
1.0
 40
2.0
 40
2.0
 40
2.0
 40
3.0
 40
3.0
 40
3.0
 40
4.0
 40
4.0
 40
4.0
 40
4.0
 10
276.0825593332584
 20
-688.5367835347351
 30
0.0
 10
270.9904227423549
 20
-696.9082087856405
 30
0.0
 10
259.8344354752699
 20
-699.6159009248913
 30
0.0
 10
251.6277548537637
 20
-694.4720249937472
 30
0.0
 10
243.5022146579049
 20
-689.379231395349
 30
0.0
 10
240.8418270583033
 20
-678.4035926856723
 30
0.0
 10
245.7514798174379
 20
-670.2291054314282
 30
0.0
 10
250.7857997487718
 20
-661.8466753049797
 30
0.0
 10
261.8031584343871
 20
-659.0824805211487
 30
0.0
 10
270.174255181546
 20
-664.101360776347
 30
0.0
 10
278.5019894340266
 20
-669.0944534873615
 30
0.0
 10
281.1776524578899
 20
-680.1604307276156
 30
0.0
 10
276.0825593332584
 20
-688.5367835347351
 30
0.0
  0
SPLINE
  5
95
330
79
100
AcDbEntity
  8
katman 1
100
AcDbSpline
210
0.0
220
0.0
230
1.0
 70
     9
 71
     3
 72
    17
 73
    13
 74
     0
 42
0.0000000001
 43
0.0000000001
 40
0.0
 40
0.0
 40
0.0
 40
0.0
 40
1.0
 40
1.0
 40
1.0
 40
2.0
 40
2.0
 40
2.0
 40
3.0
 40
3.0
 40
3.0
 40
4.0
 40
4.0
 40
4.0
 40
4.0
 10
220.9694856053757
 20
-576.9422537185146
 30
0.0
 10
205.5388433231856
 20
-601.7626828690408
 30
0.0
 10
173.2894661734972
 20
-609.2813123912856
 30
0.0
 10
147.9048318365385
 20
-593.70481444518
 30
0.0
 10
123.7622701690989
 20
-578.8906094452832
 30
0.0
 10
116.247746943699
 20
-546.3664389107616
 30
0.0
 10
131.2894407887797
 20
-521.7909093040398
 30
0.0
 10
146.6501117727393
 20
-496.6940442499426
 30
0.0
 10
179.180852382211
 20
-488.6384753523143
 30
0.0
 10
204.1773595414297
 20
-504.4224234150024
 30
0.0
 10
230.0383243123479
 20
-520.7521804542611
 30
0.0
 10
235.5742694662031
 20
-553.4502937231136
 30
0.0
 10
220.9694856053757
 20
-576.9422537185146
 30
0.0
  0
SPLINE
  5
96
330
79
100
AcDbEntity
  8
katman 1
100
AcDbSpline
210
0.0
220
0.0
230
1.0
 70
     9
 71
     3
 72
    17
 73
    13
 74
     0
 42
0.0000000001
 43
0.0000000001
 40
0.0
 40
0.0
 40
0.0
 40
0.0
 40
1.0
 40
1.0
 40
1.0
 40
2.0
 40
2.0
 40
2.0
 40
3.0
 40
3.0
 40
3.0
 40
4.0
 40
4.0
 40
4.0
 40
4.0
 10
206.9233223672709
 20
-647.2249735011518
 30
0.0
 10
201.9888675751954
 20
-655.3358952802446
 30
0.0
 10
191.181751288017
 20
-657.8340020285523
 30
0.0
 10
182.8602586067391
 20
-652.7871989548112
 30
0.0
 10
174.5942830588001
 20
-647.7740675151963
 30
0.0
 10
171.9095861818787
 20
-636.5602635885407
 30
0.0
 10
176.9995874984233
 20
-628.3070996867555
 30
0.0
 10
182.1368933546164
 20
-619.9770659080423
 30
0.0
 10
193.1296142591645
 20
-617.3385238076516
 30
0.0
 10
201.4356672643062
 20
-622.4418295259729
 30
0.0
 10
209.8451989499299
 20
-627.6088649713202
 30
0.0
 10
212.2500106339312
 20
-638.4693631174759
 30
0.0
 10
206.9233223672709
 20
-647.2249735011518
 30
0.0
  0
SPLINE
  5
97
330
79
100
AcDbEntity
  8
katman 1
100
AcDbSpline
210
0.0
220
0.0
230
1.0
 70
     9
 71
     3
 72
   278
 73
   274
 74
     0
 42
0.0000000001
 43
0.0000000001
 40
0.0
 40
0.0
 40
0.0
 40
0.0
 40
1.0
 40
1.0
 40
1.0
 40
2.0
 40
2.0
 40
2.0
 40
3.0
 40
3.0
 40
3.0
 40
4.0
 40
4.0
 40
4.0
 40
5.0
 40
5.0
 40
5.0
 40
6.0
 40
6.0
 40
6.0
 40
7.0
 40
7.0
 40
7.0
 40
8.0
 40
8.0
 40
8.0
 40
9.0
 40
9.0
 40
9.0
 40
10.0
 40
10.0
 40
10.0
 40
11.0
 40
11.0
 40
11.0
 40
12.0
 40
12.0
 40
12.0
 40
13.0
 40
13.0
 40
13.0
 40
14.0
 40
14.0
 40
14.0
 40
15.0
 40
15.0
 40
15.0
 40
16.0
 40
16.0
 40
16.0
 40
17.0
 40
17.0
 40
17.0
 40
18.0
 40
18.0
 40
18.0
 40
19.0
 40
19.0
 40
19.0
 40
20.0
 40
20.0
 40
20.0
 40
21.0
 40
21.0
 40
21.0
 40
22.0
 40
22.0
 40
22.0
 40
23.0
 40
23.0
 40
23.0
 40
24.0
 40
24.0
 40
24.0
 40
25.0
 40
25.0
 40
25.0
 40
26.0
 40
26.0
 40
26.0
 40
27.0
 40
27.0
 40
27.0
 40
28.0
 40
28.0
 40
28.0
 40
29.0
 40
29.0
 40
29.0
 40
30.0
 40
30.0
 40
30.0
 40
31.0
 40
31.0
 40
31.0
 40
32.0
 40
32.0
 40
32.0
 40
33.0
 40
33.0
 40
33.0
 40
34.0
 40
34.0
 40
34.0
 40
35.0
 40
35.0
 40
35.0
 40
36.0
 40
36.0
 40
36.0
 40
37.0
 40
37.0
 40
37.0
 40
38.0
 40
38.0
 40
38.0
 40
39.0
 40
39.0
 40
39.0
 40
40.0
 40
40.0
 40
40.0
 40
41.0
 40
41.0
 40
41.0
 40
42.0
 40
42.0
 40
42.0
 40
43.0
 40
43.0
 40
43.0
 40
44.0
 40
44.0
 40
44.0
 40
45.0
 40
45.0
 40
45.0
 40
46.0
 40
46.0
 40
46.0
 40
47.0
 40
47.0
 40
47.0
 40
48.0
 40
48.0
 40
48.0
 40
49.0
 40
49.0
 40
49.0
 40
50.0
 40
50.0
 40
50.0
 40
51.0
 40
51.0
 40
51.0
 40
52.0
 40
52.0
 40
52.0
 40
53.0
 40
53.0
 40
53.0
 40
54.0
 40
54.0
 40
54.0
 40
55.0
 40
55.0
 40
55.0
 40
56.0
 40
56.0
 40
56.0
 40
57.0
 40
57.0
 40
57.0
 40
58.0
 40
58.0
 40
58.0
 40
59.0
 40
59.0
 40
59.0
 40
60.0
 40
60.0
 40
60.0
 40
61.0
 40
61.0
 40
61.0
 40
62.0
 40
62.0
 40
62.0
 40
63.0
 40
63.0
 40
63.0
 40
64.0
 40
64.0
 40
64.0
 40
65.0
 40
65.0
 40
65.0
 40
66.0
 40
66.0
 40
66.0
 40
67.0
 40
67.0
 40
67.0
 40
68.0
 40
68.0
 40
68.0
 40
69.0
 40
69.0
 40
69.0
 40
70.0
 40
70.0
 40
70.0
 40
71.0
 40
71.0
 40
71.0
 40
72.0
 40
72.0
 40
72.0
 40
73.0
 40
73.0
 40
73.0
 40
74.0
 40
74.0
 40
74.0
 40
75.0
 40
75.0
 40
75.0
 40
76.0
 40
76.0
 40
76.0
 40
77.0
 40
77.0
 40
77.0
 40
78.0
 40
78.0
 40
78.0
 40
79.0
 40
79.0
 40
79.0
 40
80.0
 40
80.0
 40
80.0
 40
81.0
 40
81.0
 40
81.0
 40
82.0
 40
82.0
 40
82.0
 40
83.0
 40
83.0
 40
83.0
 40
84.0
 40
84.0
 40
84.0
 40
85.0
 40
85.0
 40
85.0
 40
86.0
 40
86.0
 40
86.0
 40
87.0
 40
87.0
 40
87.0
 40
88.0
 40
88.0
 40
88.0
 40
89.0
 40
89.0
 40
89.0
 40
90.0
 40
90.0
 40
90.0
 40
91.0
 40
91.0
 40
91.0
 40
91.0
 10
907.3258340329193
 20
-661.4550988378887
 30
0.0
 10
904.7281906491006
 20
-640.2235731294386
 30
0.0
 10
902.5756698432232
 20
-618.9371872951451
 30
0.0
 10
900.2769648696849
 20
-597.6695261744626
 30
0.0
 10
898.5702236492434
 20
-581.8778582737068
 30
0.0
 10
896.6616168759284
 20
-566.1001517822206
 30
0.0
 10
895.3807807641988
 20
-550.2726769729797
 30
0.0
 10
894.5844876801166
 20
-540.4333327261083
 30
0.0
 10
893.9450551354948
 20
-530.6966459003506
 30
0.0
 10
890.4837753993451
 20
-521.2991391939449
 30
0.0
 10
875.8357932957133
 20
-481.5291614995276
 30
0.0
 10
829.9779841515411
 20
-461.8320767959221
 30
0.0
 10
791.5289200260576
 20
-478.9262620557483
 30
0.0
 10
779.1193624582883
 20
-484.4433182441189
 30
0.0
 10
768.1522648460486
 20
-492.4581526770507
 30
0.0
 10
756.5210969081199
 20
-499.3178036816916
 30
0.0
 10
740.6752258890174
 20
-508.6632425441093
 30
0.0
 10
724.9913072174585
 20
-518.2861028213392
 30
0.0
 10
709.3295625488626
 20
-527.9385284358486
 30
0.0
 10
706.7383249881204
 20
-529.5353851527306
 30
0.0
 10
705.5276244264932
 20
-529.424022382309
 30
0.0
 10
703.9195985821952
 20
-526.669354207157
 30
0.0
 10
697.8997674081874
 20
-516.3564718081797
 30
0.0
 10
691.7349018296299
 20
-506.1222660567437
 30
0.0
 10
685.3660354238418
 20
-496.0215970786903
 30
0.0
 10
681.6022037361908
 20
-490.0525197336792
 30
0.0
 10
677.6652505735764
 20
-484.1972689371978
 30
0.0
 10
671.5903950218508
 20
-480.0837450102699
 30
0.0
 10
660.2364842468614
 20
-472.3952790505381
 30
0.0
 10
648.2661361895789
 20
-471.7842620800801
 30
0.0
 10
636.5475862547992
 20
-478.0820074245229
 30
0.0
 10
615.1311129364731
 20
-489.5914647239814
 30
0.0
 10
594.9370020628121
 20
-503.2104088383857
 30
0.0
 10
573.9935741409699
 20
-515.550816367293
 30
0.0
 10
565.1765335564996
 20
-520.7459388830575
 30
0.0
 10
556.8371374209818
 20
-526.7897508306377
 30
0.0
 10
547.2113206100239
 20
-530.5591670819977
 30
0.0
 10
542.5258716585976
 20
-532.3938605121111
 30
0.0
 10
537.7131275049923
 20
-533.6523583690068
 30
0.0
 10
532.7029525991037
 20
-533.9404561556166
 30
0.0
 10
526.7179428223371
 20
-534.2845638311846
 30
0.0
 10
521.3802496801327
 20
-533.0664719352371
 30
0.0
 10
516.9183475289192
 20
-530.0145078685455
 30
0.0
 10
546.7139659362201
 20
-512.5433645583962
 30
0.0
 10
575.3496376108905
 20
-493.4288812510858
 30
0.0
 10
601.193191683189
 20
-470.2903912880574
 30
0.0
 10
629.6366886655378
 20
-444.8241237698303
 30
0.0
 10
654.1732905781755
 20
-416.3218246166679
 30
0.0
 10
669.4206277692282
 20
-380.8407918503736
 30
0.0
 10
678.7227041369661
 20
-359.1945301606302
 30
0.0
 10
683.8486766138685
 20
-336.6808543254592
 30
0.0
 10
681.6859721918172
 20
-312.8930767053816
 30
0.0
 10
678.7985885026519
 20
-281.1313633689442
 30
0.0
 10
665.7796564831624
 20
-254.588753321842
 30
0.0
 10
640.6216897320192
 20
-234.6572811943533
 30
0.0
 10
608.4201098776011
 20
-209.1453516552156
 30
0.0
 10
565.2566884709049
 20
-206.7413612305827
 30
0.0
 10
530.8363943054773
 20
-232.2687304458559
 30
0.0
 10
520.0376548638614
 20
-240.2774875594569
 30
0.0
 10
511.1647686423075
 20
-250.1148607838431
 30
0.0
 10
503.6412115638486
 20
-261.1938139221256
 30
0.0
 10
501.7828658639118
 20
-263.9302501392876
 30
0.0
 10
500.5136916352194
 20
-264.5836440931816
 30
0.0
 10
498.3734897198756
 20
-261.3028771663157
 30
0.0
 10
495.6575849869359
 20
-257.139749173507
 30
0.0
 10
492.6090702095934
 20
-253.1523706856424
 30
0.0
 10
489.3618106649783
 20
-249.3841041973992
 30
0.0
 10
470.6484304334371
 20
-227.667542705678
 30
0.0
 10
447.483003163109
 20
-214.8841478731883
 30
0.0
 10
422.0648614438996
 20
-214.29054160135
 30
0.0
 10
401.8196682374927
 20
-214.3564066027356
 30
0.0
 10
386.3648809298575
 20
-218.5668391351919
 30
0.0
 10
372.4392785671061
 20
-227.1353666346331
 30
0.0
 10
337.8483267048214
 20
-248.4196171945677
 30
0.0
 10
321.4157479925789
 20
-280.4303363716544
 30
0.0
 10
319.9248337342851
 20
-320.291145352272
 30
0.0
 10
319.0165208722856
 20
-344.5770989055218
 30
0.0
 10
325.716683307488
 20
-367.451471855512
 30
0.0
 10
336.3680888183235
 20
-389.1181007776049
 30
0.0
 10
353.4230178803164
 20
-423.8107245497586
 30
0.0
 10
378.8621838393701
 20
-451.7360068703347
 30
0.0
 10
407.9769782298544
 20
-476.5659626295409
 30
0.0
 10
432.199859063573
 20
-497.223920794755
 30
0.0
 10
458.6877732367065
 20
-514.5710539402007
 30
0.0
 10
486.0780872043842
 20
-530.617640749062
 30
0.0
 10
481.0380184574678
 20
-535.893410934852
 30
0.0
 10
474.4263877822332
 20
-537.9716898937804
 30
0.0
 10
466.7732359753635
 20
-537.5316591239261
 30
0.0
 10
461.7630610694759
 20
-537.2435613373163
 30
0.0
 10
456.9503169158706
 20
-535.9850634804206
 30
0.0
 10
452.2650322163172
 20
-534.1503700503053
 30
0.0
 10
442.6392154053591
 20
-530.3809537989472
 30
0.0
 10
434.2996550179669
 20
-524.3369775994924
 30
0.0
 10
425.4827786853711
 20
-519.1418550837297
 30
0.0
 10
404.539350763529
 20
-506.8016118066952
 30
0.0
 10
384.3450756379943
 20
-493.1826676922901
 30
0.0
 10
362.9287665715419
 20
-481.6732103928315
 30
0.0
 10
351.2102166367622
 20
-475.3754650483888
 30
0.0
 10
339.2398685794796
 20
-475.9864820188477
 30
0.0
 10
327.8857935526166
 20
-483.6749479785794
 30
0.0
 10
321.8109380008919
 20
-487.7884719055064
 30
0.0
 10
317.8741490901511
 20
-493.6437227019887
 30
0.0
 10
314.1103174025002
 20
-499.6128000469998
 30
0.0
 10
307.7412867448365
 20
-509.7134690250531
 30
0.0
 10
301.5764211662808
 20
-519.9476747764893
 30
0.0
 10
295.5565899922713
 20
-530.2605571754666
 30
0.0
 10
293.9487283998469
 20
-533.0152253506184
 30
0.0
 10
292.737863586346
 20
-533.1265881210401
 30
0.0
 10
290.1467902774784
 20
-531.5297314041581
 30
0.0
 10
274.4848813570079
 20
-521.8773057896487
 30
0.0
 10
258.8011269373246
 20
-512.2544455124189
 30
0.0
 10
242.9552559182212
 20
-502.9090066500011
 30
0.0
 10
231.3240879802925
 20
-496.0493556453593
 30
0.0
 10
220.3569903680527
 20
-488.0345212124284
 30
0.0
 10
207.9472685484106
 20
-482.5173007721832
 30
0.0
 10
169.4983686747991
 20
-465.4232797642317
 30
0.0
 10
123.6403952787541
 20
-485.1203644678371
 30
0.0
 10
108.9925774269959
 20
-524.8901779103798
 30
0.0
 10
105.5312976908462
 20
-534.2878488686601
 30
0.0
 10
104.8918651462245
 20
-544.0245356944179
 30
0.0
 10
104.0955720621423
 20
-553.8638799412892
 30
0.0
 10
102.8145716985382
 20
-569.69135475053
 30
0.0
 10
100.9061291770977
 20
-585.4690612420145
 30
0.0
 10
99.19938795665713
 20
-601.2607291427721
 30
0.0
 10
96.9006829831169
 20
-622.5283902634546
 30
0.0
 10
94.7479979253667
 20
-643.814776097748
 30
0.0
 10
92.15035454154804
 20
-665.0463018061982
 30
0.0
 10
89.58441176936867
 20
-686.0188023096998
 30
0.0
 10
103.0520799080232
 20
-705.808032314495
 30
0.0
 10
124.0894599016665
 20
-711.2434553215971
 30
0.0
 10
144.3960833088667
 20
-716.489988673853
 30
0.0
 10
165.7230393559839
 20
-705.4312385160447
 30
0.0
 10
173.4952737713429
 20
-685.8561929546576
 30
0.0
 10
176.0396995480569
 20
-679.4479060991616
 30
0.0
 10
176.3079228579381
 20
-672.5401292955029
 30
0.0
 10
178.441061942709
 20
-665.9771171749053
 30
0.0
 10
190.8596533635354
 20
-670.7213682971451
 30
0.0
 10
202.3311684801511
 20
-669.7688716810989
 30
0.0
 10
212.5596254160046
 20
-660.7389606682118
 30
0.0
 10
214.1111486157233
 20
-659.3691000408925
 30
0.0
 10
215.7424982260991
 20
-659.3323076211673
 30
0.0
 10
217.5693075662711
 20
-660.5801291062671
 30
0.0
 10
221.1442495990768
 20
-663.0218974618692
 30
0.0
 10
224.7926122194603
 20
-665.3693852419219
 30
0.0
 10
228.5226080211132
 20
-667.566089801845
 30
0.0
 10
230.4684999697756
 20
-668.7120751252041
 30
0.0
 10
231.2280006341316
 20
-669.8028718189707
 30
0.0
 10
230.6659307220589
 20
-672.2615581175723
 30
0.0
 10
227.9429631585462
 20
-684.1724469965465
 30
0.0
 10
231.4482623968688
 20
-694.3563916746061
 30
0.0
 10
240.1697083907984
 20
-702.6547248416809
 30
0.0
 10
242.1950982463704
 20
-704.5817278248596
 30
0.0
 10
241.7936666668538
 20
-705.2545034998583
 30
0.0
 10
239.9983936864464
 20
-706.6499874194869
 30
0.0
 10
235.1329246813584
 20
-710.4322153170015
 30
0.0
 10
230.0631263452888
 20
-714.031466627126
 30
0.0
 10
226.1361925469746
 20
-718.8463460550901
 30
0.0
 10
214.3517776108101
 20
-733.2955833914493
 30
0.0
 10
213.3498411807568
 20
-752.9550544159592
 30
0.0
 10
223.3582006057468
 20
-768.8515150121875
 30
0.0
 10
232.7972630362183
 20
-783.8439332951347
 30
0.0
 10
252.7722619102578
 20
-791.2654899599747
 30
0.0
 10
269.4338077345492
 20
-786.6956743276896
 30
0.0
 10
276.7352962796576
 20
-784.6931154825725
 30
0.0
 10
282.6853204073104
 20
-780.5418136246771
 30
0.0
 10
288.7959828675184
 20
-776.4442221295066
 30
0.0
 10
306.8953895948734
 20
-764.3071584203371
 30
0.0
 10
325.0501492036919
 20
-752.2523848999317
 30
0.0
 10
343.2241262817424
 20
-740.2273409686804
 30
0.0
 10
355.4833933850023
 20
-732.1159264339676
 30
0.0
 10
367.3959247827152
 20
-723.3668861252426
 30
0.0
 10
380.1886819720112
 20
-716.1967990791581
 30
0.0
 10
416.3842103892448
 20
-695.9097216449372
 30
0.0
 10
429.4330362497621
 20
-649.3062089938084
 30
0.0
 10
408.4117529397481
 20
-613.5060348367606
 30
0.0
 10
401.0992595190973
 20
-601.0524577668202
 30
0.0
 10
390.6950530782997
 20
-592.0810204209974
 30
0.0
 10
378.3436406738483
 20
-584.8010488713553
 30
0.0
 10
355.4768233100513
 20
-571.3230328646532
 30
0.0
 10
332.8928476729025
 20
-557.3649086308941
 30
0.0
 10
310.1961952503407
 20
-543.5983020819621
 30
0.0
 10
308.5835703535758
 20
-542.6201821736067
 30
0.0
 10
306.5102189508616
 20
-542.0804505163669
 30
0.0
 10
308.2565448728819
 20
-539.2650091479172
 30
0.0
 10
315.6675894178006
 20
-527.3165065898465
 30
0.0
 10
322.6883715106205
 20
-515.1216262211091
 30
0.0
 10
330.2681027299104
 20
-503.2831724184707
 30
0.0
 10
337.0252605653141
 20
-492.7293325206592
 30
0.0
 10
347.1844032104336
 20
-490.4191299159547
 30
0.0
 10
357.8630745323162
 20
-496.8236389783542
 30
0.0
 10
381.9790273962044
 20
-511.2870019758593
 30
0.0
 10
405.9726126141267
 20
-525.9543658005968
 30
0.0
 10
430.0297633072022
 20
-540.5159514186197
 30
0.0
 10
439.7585660430195
 20
-546.40454534548
 30
0.0
 10
450.006733203727
 20
-551.0561584109073
 30
0.0
 10
461.367871061163
 20
-552.6858655025444
 30
0.0
 10
477.4872214501083
 20
-554.9982033816085
 30
0.0
 10
490.8129759698176
 20
-550.2953437315627
 30
0.0
 10
500.8722534756798
 20
-537.4782772649468
 30
0.0
 10
501.1268438800361
 20
-537.4809052949276
 30
0.0
 10
501.3824197956382
 20
-537.4552820026183
 30
0.0
 10
501.6368459481218
 20
-537.4380355558714
 30
0.0
 10
511.2866435326504
 20
-547.5768109686414
 30
0.0
 10
523.5644710976485
 20
-551.1809898349802
 30
0.0
 10
538.108481765179
 20
-549.0946625342367
 30
0.0
 10
549.4696196226141
 20
-547.4649554425978
 30
0.0
 10
559.7176225314469
 20
-542.8133423771705
 30
0.0
 10
569.446425267266
 20
-536.9247484503103
 30
0.0
 10
593.5035759603415
 20
-522.3631628322873
 30
0.0
 10
617.4973254301367
 20
-507.6957990075498
 30
0.0
 10
641.6131140421512
 20
-493.2324360100456
 30
0.0
 10
652.2917853640337
 20
-486.827926947646
 30
0.0
 10
662.4510922610279
 20
-489.1381295523506
 30
0.0
 10
669.2082500964316
 20
-499.6919694501611
 30
0.0
 10
676.7878170638469
 20
-511.5304232527996
 30
0.0
 10
683.8085991566658
 20
-523.7253036215388
 30
0.0
 10
691.2196437015845
 20
-535.6738061796095
 30
0.0
 10
692.9659696236067
 20
-538.4892475480592
 30
0.0
 10
690.8926182208906
 20
-539.0289792052972
 30
0.0
 10
689.2799933241258
 20
-540.0070991136526
 30
0.0
 10
666.5833409015649
 20
-553.7737056625847
 30
0.0
 10
643.9993652644152
 20
-567.7318298963436
 30
0.0
 10
621.1325479006191
 20
-581.2098459030457
 30
0.0
 10
608.7811354961687
 20
-588.4898174526897
 30
0.0
 10
598.3770933072446
 20
-597.4612547985107
 30
0.0
 10
591.0644356347184
 20
-609.9148318684529
 30
0.0
 10
570.0433165765789
 20
-645.7150060254989
 30
0.0
 10
583.0921424370972
 20
-692.3185186766277
 30
0.0
 10
619.2876708543299
 20
-712.6055961108486
 30
0.0
 10
632.0802637917513
 20
-719.7758474088077
 30
0.0
 10
643.9927951894642
 20
-728.5247234656581
 30
0.0
 10
656.2520622927259
 20
-736.6361380003709
 30
0.0
 10
674.42620362265
 20
-748.6611819316221
 30
0.0
 10
692.5809632314667
 20
-760.7159554520276
 30
0.0
 10
710.6803699588217
 20
-772.8530191611971
 30
0.0
 10
716.7910324190306
 20
-776.9506106563676
 30
0.0
 10
722.7410565466835
 20
-781.1019125142629
 30
0.0
 10
730.0423808399173
 20
-783.1044713593801
 30
0.0
 10
746.7040909160841
 20
-787.6742869916652
 30
0.0
 10
766.67892553825
 20
-780.2527303268252
 30
0.0
 10
776.1179879687206
 20
-765.2603120438779
 30
0.0
 10
786.1263473937106
 20
-749.3640156995243
 30
0.0
 10
785.1244109636573
 20
-729.7043804231398
 30
0.0
 10
773.3401602793656
 20
-715.2551430867807
 30
0.0
 10
769.4132264810523
 20
-710.4402636588165
 30
0.0
 10
764.3434281449827
 20
-706.8410123486919
 30
0.0
 10
759.4779591398946
 20
-703.0589487030519
 30
0.0
 10
757.6825219076127
 20
-701.6633005315489
 30
0.0
 10
757.2812545799715
 20
-700.9905248565501
 30
0.0
 10
759.3066444355427
 20
-699.0635218733732
 30
0.0
 10
768.0279261775977
 20
-690.7651887062984
 30
0.0
 10
771.5333896677948
 20
-680.5812440282388
 30
0.0
 10
768.8104221042831
 20
-668.6703551492628
 30
0.0
 10
768.2483521922095
 20
-666.2116688506612
 30
0.0
 10
769.0076886046917
 20
-665.1208721568946
 30
0.0
 10
770.9537448052287
 20
-663.9748868335373
 30
0.0
 10
774.6835763550061
 20
-661.7781822736124
 30
0.0
 10
778.3321032272652
 20
-659.4306944935596
 30
0.0
 10
781.9070452600699
 20
-656.9889261379576
 30
0.0
 10
783.7338546002428
 20
-655.7411046528577
 30
0.0
 10
785.3650399587441
 20
-655.7778970725848
 30
0.0
 10
786.9167274103365
 20
-657.1477576999022
 30
0.0
 10
797.1451843461909
 20
-666.1776687127894
 30
0.0
 10
808.6166994628056
 20
-667.1301653288355
 30
0.0
 10
821.0352908836322
 20
-662.3859142065957
 30
0.0
 10
823.1682657165292
 20
-668.9489263271934
 30
0.0
 10
823.4366532782841
 20
-675.8567031308521
 30
0.0
 10
825.9809148031235
 20
-682.2649899863481
 30
0.0
 10
833.7531492184844
 20
-701.8400355477369
 30
0.0
 10
855.0802695174752
 20
-712.8987857055435
 30
0.0
 10
875.3867286728
 20
-707.6522523532876
 30
0.0
 10
896.4242729183188
 20
-702.2168293461854
 30
0.0
 10
909.8917768050997
 20
-682.4275993413903
 30
0.0
 10
907.3258340329193
 20
-661.4550988378887
 30
0.0
  0
HATCH
  5
98
330
79
100
AcDbEntity
  8
katman 1
 62
    18
420
        0
440
 33554687
100
AcDbHatch
 10
0.0
 20
0.0
 30
0.0
210
0.0
220
0.0
230
1.0
  2
SOLID
 70
     1
 71
     1
 91
       11
 92
        1
 93
        1
 72
     4
 94
        3
 73
     0
 74
     0
 95
       17
 96
       13
 40
0.0
 40
0.0
 40
0.0
 40
0.0
 40
1.0
 40
1.0
 40
1.0
 40
2.0
 40
2.0
 40
2.0
 40
3.0
 40
3.0
 40
3.0
 40
4.0
 40
4.0
 40
4.0
 40
4.0
 10
851.5715209898026
 20
-590.1136114768705
 10
826.1867224009693
 20
-605.690109422976
 10
793.9373452512809
 20
-598.1716441526059
 10
778.5067029690926
 20
-573.351050750205
 10
763.9020833601371
 20
-549.8590907548041
 10
769.4378642621195
 20
-517.1609774859517
 10
795.2989932849122
 20
-500.8312204466938
 10
820.2955004441301
 20
-485.0472723840048
 10
852.8260768017281
 20
-493.102841281634
 10
868.1869120375614
 20
-518.1997063357303
 10
883.2284416307684
 20
-542.7752359424539
 10
875.7139184053684
 20
-575.2994064769736
 10
851.5715209898026
 20
-590.1136114768705
 97
        0
 97
        1
330
8D
 92
        1
 93
        1
 72
     4
 94
        3
 73
     0
 74
     0
 95
       17
 96
       13
 40
0.0
 40
0.0
 40
0.0
 40
0.0
 40
1.0
 40
1.0
 40
1.0
 40
2.0
 40
2.0
 40
2.0
 40
3.0
 40
3.0
 40
3.0
 40
4.0
 40
4.0
 40
4.0
 40
4.0
 10
816.6159299677273
 20
-649.1959959865016
 10
808.2946015383241
 20
-654.2427990602427
 10
797.4873209992729
 20
-651.7446923119351
 10
792.5528662071956
 20
-643.6337705328424
 10
787.2261779405362
 20
-634.8781601491664
 10
789.6309896245384
 20
-624.0176620030106
 10
798.0406855620349
 20
-618.8506265576634
 10
806.3465743153027
 20
-613.7473208393421
 10
817.3394594717247
 20
-616.3858629397327
 10
822.4767653279178
 20
-624.7158967184459
 10
827.5667666444624
 20
-632.9690606202311
 10
824.8820697675419
 20
-644.1828645468867
 10
816.6159299677273
 20
-649.1959959865016
 97
        0
 97
        1
330
8E
 92
        1
 93
        1
 72
     4
 94
        3
 73
     0
 74
     0
 95
       17
 96
       13
 40
0.0
 40
0.0
 40
0.0
 40
0.0
 40
1.0
 40
1.0
 40
1.0
 40
2.0
 40
2.0
 40
2.0
 40
3.0
 40
3.0
 40
3.0
 40
4.0
 40
4.0
 40
4.0
 40
4.0
 10
747.8485979725774
 20
-690.8808220254377
 10
739.6417530991985
 20
-696.0246979565818
 10
728.4857658321125
 20
-693.3170058173327
 10
723.3937934930818
 20
-684.9455805664256
 10
718.2987003684502
 20
-676.5692277593061
 10
720.9743633923135
 20
-665.5032505190519
 10
729.3020976447951
 20
-660.5101578080375
 10
737.673194391953
 20
-655.4912775528391
 10
748.6903888256965
 20
-658.2554723366702
 10
753.7248730089031
 20
-666.6379024631187
 10
758.6343615161641
 20
-674.8123897173646
 10
755.9741381684362
 20
-685.7880284270395
 10
747.8485979725774
 20
-690.8808220254377
 97
        0
 97
        1
330
8F
 92
        1
 93
        1
 72
     4
 94
        3
 73
     0
 74
     0
 95
       17
 96
       13
 40
0.0
 40
0.0
 40
0.0
 40
0.0
 40
1.0
 40
1.0
 40
1.0
 40
2.0
 40
2.0
 40
2.0
 40
3.0
 40
3.0
 40
3.0
 40
4.0
 40
4.0
 40
4.0
 40
4.0
 10
696.6935016471524
 20
-579.9910969996035
 10
689.0053641911672
 20
-567.2678183529169
 10
692.9615348230145
 20
-551.5525275734689
 10
705.8129299312495
 20
-543.7660032450894
 10
718.2525455919185
 20
-536.2288132611083
 10
734.3475867035449
 20
-540.1314377821035
 10
741.9508059407853
 20
-552.528347955591
 10
749.5234743295041
 20
-564.8756540631966
 10
745.5392166272413
 20
-581.380010844281
 10
733.1221034732789
 20
-589.1000131637793
 10
720.886652891717
 20
-596.7070101941171
 10
704.286044512597
 20
-592.5560368399674
 10
696.6935016471524
 20
-579.9910969996035
 97
        0
 97
        1
330
90
 92
        1
 93
        1
 72
     4
 94
        3
 73
     0
 74
     0
 95
       17
 96
       13
 40
0.0
 40
0.0
 40
0.0
 40
0.0
 40
1.0
 40
1.0
 40
1.0
 40
2.0
 40
2.0
 40
2.0
 40
3.0
 40
3.0
 40
3.0
 40
4.0
 40
4.0
 40
4.0
 40
4.0
 10
681.5003675744464
 20
-693.2018652538135
 10
656.364739078137
 20
-708.8908757334575
 10
623.7600851254646
 20
-701.7367211191285
 10
608.4092692539325
 20
-677.5330577546428
 10
593.3201066173296
 20
-653.7421593489634
 10
598.7105246110149
 20
-620.9675047069303
 10
624.329874875606
 20
-604.4932060187475
 10
649.3654739807825
 20
-588.394222862149
 10
681.9770265121551
 20
-596.229529997041
 10
697.6356503951501
 20
-621.4216611379306
 10
712.6408803242521
 20
-645.5625802866324
 10
705.2667924509332
 20
-678.367293021567
 10
681.5003675744464
 20
-693.2018652538135
 97
        0
 97
        1
330
91
 92
        1
 93
        1
 72
     4
 94
        3
 73
     0
 74
     0
 95
       17
 96
       13
 40
0.0
 40
0.0
 40
0.0
 40
0.0
 40
1.0
 40
1.0
 40
1.0
 40
2.0
 40
2.0
 40
2.0
 40
3.0
 40
3.0
 40
3.0
 40
4.0
 40
4.0
 40
4.0
 40
4.0
 10
375.146477950736
 20
-608.0844089870552
 10
400.7656639634515
 20
-624.5587076752399
 10
406.1560819571386
 20
-657.333362317273
 10
391.0670835724086
 20
-681.1242607229523
 10
375.7161034490018
 20
-705.327924087438
 10
343.1114494963294
 20
-712.482078701767
 10
317.9759852518946
 20
-696.7930682221212
 10
294.209396123535
 20
-681.9584959898766
 10
286.8353082502163
 20
-649.153783254942
 10
301.840702431191
 20
-625.0128641062383
 10
317.4993263141869
 20
-599.8207329653487
 10
350.110714593684
 20
-591.9854258304585
 10
375.146477950736
 20
-608.0844089870552
 97
        0
 97
        1
330
92
 92
        1
 93
        1
 72
     4
 94
        3
 73
     0
 74
     0
 95
       17
 96
       13
 40
0.0
 40
0.0
 40
0.0
 40
0.0
 40
1.0
 40
1.0
 40
1.0
 40
2.0
 40
2.0
 40
2.0
 40
3.0
 40
3.0
 40
3.0
 40
4.0
 40
4.0
 40
4.0
 40
4.0
 10
266.3540851011885
 20
-592.6912161320887
 10
253.9371361990998
 20
-584.9712138125905
 10
249.952878496837
 20
-568.4668570315061
 10
257.5255468855548
 20
-556.1195509239005
 10
265.1286018709216
 20
-543.7226407504131
 10
281.223642982548
 20
-539.8200162294179
 10
293.6632586432188
 20
-547.3570419615243
 10
306.5146537514529
 20
-555.1437305417766
 10
310.4709886351738
 20
-570.8590213212264
 10
302.7826869273149
 20
-583.582299967913
 10
295.190308313744
 20
-596.1472398082769
 10
278.5895356827514
 20
-600.2982131624248
 10
266.3540851011885
 20
-592.6912161320887
 97
        0
 97
        1
330
93
 92
        1
 93
        1
 72
     4
 94
        3
 73
     0
 74
     0
 95
       17
 96
       13
 40
0.0
 40
0.0
 40
0.0
 40
0.0
 40
1.0
 40
1.0
 40
1.0
 40
2.0
 40
2.0
 40
2.0
 40
3.0
 40
3.0
 40
3.0
 40
4.0
 40
4.0
 40
4.0
 40
4.0
 10
276.0825593332584
 20
-688.5367835347351
 10
270.9904227423549
 20
-696.9082087856405
 10
259.8344354752699
 20
-699.6159009248913
 10
251.6277548537637
 20
-694.4720249937472
 10
243.5022146579049
 20
-689.379231395349
 10
240.8418270583033
 20
-678.4035926856723
 10
245.7514798174379
 20
-670.2291054314282
 10
250.7857997487718
 20
-661.8466753049797
 10
261.8031584343871
 20
-659.0824805211487
 10
270.174255181546
 20
-664.101360776347
 10
278.5019894340266
 20
-669.0944534873615
 10
281.1776524578899
 20
-680.1604307276156
 10
276.0825593332584
 20
-688.5367835347351
 97
        0
 97
        1
330
94
 92
        1
 93
        1
 72
     4
 94
        3
 73
     0
 74
     0
 95
       17
 96
       13
 40
0.0
 40
0.0
 40
0.0
 40
0.0
 40
1.0
 40
1.0
 40
1.0
 40
2.0
 40
2.0
 40
2.0
 40
3.0
 40
3.0
 40
3.0
 40
4.0
 40
4.0
 40
4.0
 40
4.0
 10
220.9694856053757
 20
-576.9422537185146
 10
205.5388433231856
 20
-601.7626828690408
 10
173.2894661734972
 20
-609.2813123912856
 10
147.9048318365385
 20
-593.70481444518
 10
123.7622701690989
 20
-578.8906094452832
 10
116.247746943699
 20
-546.3664389107616
 10
131.2894407887797
 20
-521.7909093040398
 10
146.6501117727393
 20
-496.6940442499426
 10
179.180852382211
 20
-488.6384753523143
 10
204.1773595414297
 20
-504.4224234150024
 10
230.0383243123479
 20
-520.7521804542611
 10
235.5742694662031
 20
-553.4502937231136
 10
220.9694856053757
 20
-576.9422537185146
 97
        0
 97
        1
330
95
 92
        1
 93
        1
 72
     4
 94
        3
 73
     0
 74
     0
 95
       17
 96
       13
 40
0.0
 40
0.0
 40
0.0
 40
0.0
 40
1.0
 40
1.0
 40
1.0
 40
2.0
 40
2.0
 40
2.0
 40
3.0
 40
3.0
 40
3.0
 40
4.0
 40
4.0
 40
4.0
 40
4.0
 10
206.9233223672709
 20
-647.2249735011518
 10
201.9888675751954
 20
-655.3358952802446
 10
191.181751288017
 20
-657.8340020285523
 10
182.8602586067391
 20
-652.7871989548112
 10
174.5942830588001
 20
-647.7740675151963
 10
171.9095861818787
 20
-636.5602635885407
 10
176.9995874984233
 20
-628.3070996867555
 10
182.1368933546164
 20
-619.9770659080423
 10
193.1296142591645
 20
-617.3385238076516
 10
201.4356672643062
 20
-622.4418295259729
 10
209.8451989499299
 20
-627.6088649713202
 10
212.2500106339312
 20
-638.4693631174759
 10
206.9233223672709
 20
-647.2249735011518
 97
        0
 97
        1
330
96
 92
        1
 93
        1
 72
     4
 94
        3
 73
     0
 74
     0
 95
      278
 96
      274
 40
0.0
 40
0.0
 40
0.0
 40
0.0
 40
1.0
 40
1.0
 40
1.0
 40
2.0
 40
2.0
 40
2.0
 40
3.0
 40
3.0
 40
3.0
 40
4.0
 40
4.0
 40
4.0
 40
5.0
 40
5.0
 40
5.0
 40
6.0
 40
6.0
 40
6.0
 40
7.0
 40
7.0
 40
7.0
 40
8.0
 40
8.0
 40
8.0
 40
9.0
 40
9.0
 40
9.0
 40
10.0
 40
10.0
 40
10.0
 40
11.0
 40
11.0
 40
11.0
 40
12.0
 40
12.0
 40
12.0
 40
13.0
 40
13.0
 40
13.0
 40
14.0
 40
14.0
 40
14.0
 40
15.0
 40
15.0
 40
15.0
 40
16.0
 40
16.0
 40
16.0
 40
17.0
 40
17.0
 40
17.0
 40
18.0
 40
18.0
 40
18.0
 40
19.0
 40
19.0
 40
19.0
 40
20.0
 40
20.0
 40
20.0
 40
21.0
 40
21.0
 40
21.0
 40
22.0
 40
22.0
 40
22.0
 40
23.0
 40
23.0
 40
23.0
 40
24.0
 40
24.0
 40
24.0
 40
25.0
 40
25.0
 40
25.0
 40
26.0
 40
26.0
 40
26.0
 40
27.0
 40
27.0
 40
27.0
 40
28.0
 40
28.0
 40
28.0
 40
29.0
 40
29.0
 40
29.0
 40
30.0
 40
30.0
 40
30.0
 40
31.0
 40
31.0
 40
31.0
 40
32.0
 40
32.0
 40
32.0
 40
33.0
 40
33.0
 40
33.0
 40
34.0
 40
34.0
 40
34.0
 40
35.0
 40
35.0
 40
35.0
 40
36.0
 40
36.0
 40
36.0
 40
37.0
 40
37.0
 40
37.0
 40
38.0
 40
38.0
 40
38.0
 40
39.0
 40
39.0
 40
39.0
 40
40.0
 40
40.0
 40
40.0
 40
41.0
 40
41.0
 40
41.0
 40
42.0
 40
42.0
 40
42.0
 40
43.0
 40
43.0
 40
43.0
 40
44.0
 40
44.0
 40
44.0
 40
45.0
 40
45.0
 40
45.0
 40
46.0
 40
46.0
 40
46.0
 40
47.0
 40
47.0
 40
47.0
 40
48.0
 40
48.0
 40
48.0
 40
49.0
 40
49.0
 40
49.0
 40
50.0
 40
50.0
 40
50.0
 40
51.0
 40
51.0
 40
51.0
 40
52.0
 40
52.0
 40
52.0
 40
53.0
 40
53.0
 40
53.0
 40
54.0
 40
54.0
 40
54.0
 40
55.0
 40
55.0
 40
55.0
 40
56.0
 40
56.0
 40
56.0
 40
57.0
 40
57.0
 40
57.0
 40
58.0
 40
58.0
 40
58.0
 40
59.0
 40
59.0
 40
59.0
 40
60.0
 40
60.0
 40
60.0
 40
61.0
 40
61.0
 40
61.0
 40
62.0
 40
62.0
 40
62.0
 40
63.0
 40
63.0
 40
63.0
 40
64.0
 40
64.0
 40
64.0
 40
65.0
 40
65.0
 40
65.0
 40
66.0
 40
66.0
 40
66.0
 40
67.0
 40
67.0
 40
67.0
 40
68.0
 40
68.0
 40
68.0
 40
69.0
 40
69.0
 40
69.0
 40
70.0
 40
70.0
 40
70.0
 40
71.0
 40
71.0
 40
71.0
 40
72.0
 40
72.0
 40
72.0
 40
73.0
 40
73.0
 40
73.0
 40
74.0
 40
74.0
 40
74.0
 40
75.0
 40
75.0
 40
75.0
 40
76.0
 40
76.0
 40
76.0
 40
77.0
 40
77.0
 40
77.0
 40
78.0
 40
78.0
 40
78.0
 40
79.0
 40
79.0
 40
79.0
 40
80.0
 40
80.0
 40
80.0
 40
81.0
 40
81.0
 40
81.0
 40
82.0
 40
82.0
 40
82.0
 40
83.0
 40
83.0
 40
83.0
 40
84.0
 40
84.0
 40
84.0
 40
85.0
 40
85.0
 40
85.0
 40
86.0
 40
86.0
 40
86.0
 40
87.0
 40
87.0
 40
87.0
 40
88.0
 40
88.0
 40
88.0
 40
89.0
 40
89.0
 40
89.0
 40
90.0
 40
90.0
 40
90.0
 40
91.0
 40
91.0
 40
91.0
 40
91.0
 10
907.3258340329193
 20
-661.4550988378887
 10
904.7281906491006
 20
-640.2235731294386
 10
902.5756698432232
 20
-618.9371872951451
 10
900.2769648696849
 20
-597.6695261744626
 10
898.5702236492434
 20
-581.8778582737068
 10
896.6616168759284
 20
-566.1001517822206
 10
895.3807807641988
 20
-550.2726769729797
 10
894.5844876801166
 20
-540.4333327261083
 10
893.9450551354948
 20
-530.6966459003506
 10
890.4837753993451
 20
-521.2991391939449
 10
875.8357932957133
 20
-481.5291614995276
 10
829.9779841515411
 20
-461.8320767959221
 10
791.5289200260576
 20
-478.9262620557483
 10
779.1193624582883
 20
-484.4433182441189
 10
768.1522648460486
 20
-492.4581526770507
 10
756.5210969081199
 20
-499.3178036816916
 10
740.6752258890174
 20
-508.6632425441093
 10
724.9913072174585
 20
-518.2861028213392
 10
709.3295625488626
 20
-527.9385284358486
 10
706.7383249881204
 20
-529.5353851527306
 10
705.5276244264932
 20
-529.424022382309
 10
703.9195985821952
 20
-526.669354207157
 10
697.8997674081874
 20
-516.3564718081797
 10
691.7349018296299
 20
-506.1222660567437
 10
685.3660354238418
 20
-496.0215970786903
 10
681.6022037361908
 20
-490.0525197336792
 10
677.6652505735764
 20
-484.1972689371978
 10
671.5903950218508
 20
-480.0837450102699
 10
660.2364842468614
 20
-472.3952790505381
 10
648.2661361895789
 20
-471.7842620800801
 10
636.5475862547992
 20
-478.0820074245229
 10
615.1311129364731
 20
-489.5914647239814
 10
594.9370020628121
 20
-503.2104088383857
 10
573.9935741409699
 20
-515.550816367293
 10
565.1765335564996
 20
-520.7459388830575
 10
556.8371374209818
 20
-526.7897508306377
 10
547.2113206100239
 20
-530.5591670819977
 10
542.5258716585976
 20
-532.3938605121111
 10
537.7131275049923
 20
-533.6523583690068
 10
532.7029525991037
 20
-533.9404561556166
 10
526.7179428223371
 20
-534.2845638311846
 10
521.3802496801327
 20
-533.0664719352371
 10
516.9183475289192
 20
-530.0145078685455
 10
546.7139659362201
 20
-512.5433645583962
 10
575.3496376108905
 20
-493.4288812510858
 10
601.193191683189
 20
-470.2903912880574
 10
629.6366886655378
 20
-444.8241237698303
 10
654.1732905781755
 20
-416.3218246166679
 10
669.4206277692282
 20
-380.8407918503736
 10
678.7227041369661
 20
-359.1945301606302
 10
683.8486766138685
 20
-336.6808543254592
 10
681.6859721918172
 20
-312.8930767053816
 10
678.7985885026519
 20
-281.1313633689442
 10
665.7796564831624
 20
-254.588753321842
 10
640.6216897320192
 20
-234.6572811943533
 10
608.4201098776011
 20
-209.1453516552156
 10
565.2566884709049
 20
-206.7413612305827
 10
530.8363943054773
 20
-232.2687304458559
 10
520.0376548638614
 20
-240.2774875594569
 10
511.1647686423075
 20
-250.1148607838431
 10
503.6412115638486
 20
-261.1938139221256
 10
501.7828658639118
 20
-263.9302501392876
 10
500.5136916352194
 20
-264.5836440931816
 10
498.3734897198756
 20
-261.3028771663157
 10
495.6575849869359
 20
-257.139749173507
 10
492.6090702095934
 20
-253.1523706856424
 10
489.3618106649783
 20
-249.3841041973992
 10
470.6484304334371
 20
-227.667542705678
 10
447.483003163109
 20
-214.8841478731883
 10
422.0648614438996
 20
-214.29054160135
 10
401.8196682374927
 20
-214.3564066027356
 10
386.3648809298575
 20
-218.5668391351919
 10
372.4392785671061
 20
-227.1353666346331
 10
337.8483267048214
 20
-248.4196171945677
 10
321.4157479925789
 20
-280.4303363716544
 10
319.9248337342851
 20
-320.291145352272
 10
319.0165208722856
 20
-344.5770989055218
 10
325.716683307488
 20
-367.451471855512
 10
336.3680888183235
 20
-389.1181007776049
 10
353.4230178803164
 20
-423.8107245497586
 10
378.8621838393701
 20
-451.7360068703347
 10
407.9769782298544
 20
-476.5659626295409
 10
432.199859063573
 20
-497.223920794755
 10
458.6877732367065
 20
-514.5710539402007
 10
486.0780872043842
 20
-530.617640749062
 10
481.0380184574678
 20
-535.893410934852
 10
474.4263877822332
 20
-537.9716898937804
 10
466.7732359753635
 20
-537.5316591239261
 10
461.7630610694759
 20
-537.2435613373163
 10
456.9503169158706
 20
-535.9850634804206
 10
452.2650322163172
 20
-534.1503700503053
 10
442.6392154053591
 20
-530.3809537989472
 10
434.2996550179669
 20
-524.3369775994924
 10
425.4827786853711
 20
-519.1418550837297
 10
404.539350763529
 20
-506.8016118066952
 10
384.3450756379943
 20
-493.1826676922901
 10
362.9287665715419
 20
-481.6732103928315
 10
351.2102166367622
 20
-475.3754650483888
 10
339.2398685794796
 20
-475.9864820188477
 10
327.8857935526166
 20
-483.6749479785794
 10
321.8109380008919
 20
-487.7884719055064
 10
317.8741490901511
 20
-493.6437227019887
 10
314.1103174025002
 20
-499.6128000469998
 10
307.7412867448365
 20
-509.7134690250531
 10
301.5764211662808
 20
-519.9476747764893
 10
295.5565899922713
 20
-530.2605571754666
 10
293.9487283998469
 20
-533.0152253506184
 10
292.737863586346
 20
-533.1265881210401
 10
290.1467902774784
 20
-531.5297314041581
 10
274.4848813570079
 20
-521.8773057896487
 10
258.8011269373246
 20
-512.2544455124189
 10
242.9552559182212
 20
-502.9090066500011
 10
231.3240879802925
 20
-496.0493556453593
 10
220.3569903680527
 20
-488.0345212124284
 10
207.9472685484106
 20
-482.5173007721832
 10
169.4983686747991
 20
-465.4232797642317
 10
123.6403952787541
 20
-485.1203644678371
 10
108.9925774269959
 20
-524.8901779103798
 10
105.5312976908462
 20
-534.2878488686601
 10
104.8918651462245
 20
-544.0245356944179
 10
104.0955720621423
 20
-553.8638799412892
 10
102.8145716985382
 20
-569.69135475053
 10
100.9061291770977
 20
-585.4690612420145
 10
99.19938795665713
 20
-601.2607291427721
 10
96.9006829831169
 20
-622.5283902634546
 10
94.7479979253667
 20
-643.814776097748
 10
92.15035454154804
 20
-665.0463018061982
 10
89.58441176936867
 20
-686.0188023096998
 10
103.0520799080232
 20
-705.808032314495
 10
124.0894599016665
 20
-711.2434553215971
 10
144.3960833088667
 20
-716.489988673853
 10
165.7230393559839
 20
-705.4312385160447
 10
173.4952737713429
 20
-685.8561929546576
 10
176.0396995480569
 20
-679.4479060991616
 10
176.3079228579381
 20
-672.5401292955029
 10
178.441061942709
 20
-665.9771171749053
 10
190.8596533635354
 20
-670.7213682971451
 10
202.3311684801511
 20
-669.7688716810989
 10
212.5596254160046
 20
-660.7389606682118
 10
214.1111486157233
 20
-659.3691000408925
 10
215.7424982260991
 20
-659.3323076211673
 10
217.5693075662711
 20
-660.5801291062671
 10
221.1442495990768
 20
-663.0218974618692
 10
224.7926122194603
 20
-665.3693852419219
 10
228.5226080211132
 20
-667.566089801845
 10
230.4684999697756
 20
-668.7120751252041
 10
231.2280006341316
 20
-669.8028718189707
 10
230.6659307220589
 20
-672.2615581175723
 10
227.9429631585462
 20
-684.1724469965465
 10
231.4482623968688
 20
-694.3563916746061
 10
240.1697083907984
 20
-702.6547248416809
 10
242.1950982463704
 20
-704.5817278248596
 10
241.7936666668538
 20
-705.2545034998583
 10
239.9983936864464
 20
-706.6499874194869
 10
235.1329246813584
 20
-710.4322153170015
 10
230.0631263452888
 20
-714.031466627126
 10
226.1361925469746
 20
-718.8463460550901
 10
214.3517776108101
 20
-733.2955833914493
 10
213.3498411807568
 20
-752.9550544159592
 10
223.3582006057468
 20
-768.8515150121875
 10
232.7972630362183
 20
-783.8439332951347
 10
252.7722619102578
 20
-791.2654899599747
 10
269.4338077345492
 20
-786.6956743276896
 10
276.7352962796576
 20
-784.6931154825725
 10
282.6853204073104
 20
-780.5418136246771
 10
288.7959828675184
 20
-776.4442221295066
 10
306.8953895948734
 20
-764.3071584203371
 10
325.0501492036919
 20
-752.2523848999317
 10
343.2241262817424
 20
-740.2273409686804
 10
355.4833933850023
 20
-732.1159264339676
 10
367.3959247827152
 20
-723.3668861252426
 10
380.1886819720112
 20
-716.1967990791581
 10
416.3842103892448
 20
-695.9097216449372
 10
429.4330362497621
 20
-649.3062089938084
 10
408.4117529397481
 20
-613.5060348367606
 10
401.0992595190973
 20
-601.0524577668202
 10
390.6950530782997
 20
-592.0810204209974
 10
378.3436406738483
 20
-584.8010488713553
 10
355.4768233100513
 20
-571.3230328646532
 10
332.8928476729025
 20
-557.3649086308941
 10
310.1961952503407
 20
-543.5983020819621
 10
308.5835703535758
 20
-542.6201821736067
 10
306.5102189508616
 20
-542.0804505163669
 10
308.2565448728819
 20
-539.2650091479172
 10
315.6675894178006
 20
-527.3165065898465
 10
322.6883715106205
 20
-515.1216262211091
 10
330.2681027299104
 20
-503.2831724184707
 10
337.0252605653141
 20
-492.7293325206592
 10
347.1844032104336
 20
-490.4191299159547
 10
357.8630745323162
 20
-496.8236389783542
 10
381.9790273962044
 20
-511.2870019758593
 10
405.9726126141267
 20
-525.9543658005968
 10
430.0297633072022
 20
-540.5159514186197
 10
439.7585660430195
 20
-546.40454534548
 10
450.006733203727
 20
-551.0561584109073
 10
461.367871061163
 20
-552.6858655025444
 10
477.4872214501083
 20
-554.9982033816085
 10
490.8129759698176
 20
-550.2953437315627
 10
500.8722534756798
 20
-537.4782772649468
 10
501.1268438800361
 20
-537.4809052949276
 10
501.3824197956382
 20
-537.4552820026183
 10
501.6368459481218
 20
-537.4380355558714
 10
511.2866435326504
 20
-547.5768109686414
 10
523.5644710976485
 20
-551.1809898349802
 10
538.108481765179
 20
-549.0946625342367
 10
549.4696196226141
 20
-547.4649554425978
 10
559.7176225314469
 20
-542.8133423771705
 10
569.446425267266
 20
-536.9247484503103
 10
593.5035759603415
 20
-522.3631628322873
 10
617.4973254301367
 20
-507.6957990075498
 10
641.6131140421512
 20
-493.2324360100456
 10
652.2917853640337
 20
-486.827926947646
 10
662.4510922610279
 20
-489.1381295523506
 10
669.2082500964316
 20
-499.6919694501611
 10
676.7878170638469
 20
-511.5304232527996
 10
683.8085991566658
 20
-523.7253036215388
 10
691.2196437015845
 20
-535.6738061796095
 10
692.9659696236067
 20
-538.4892475480592
 10
690.8926182208906
 20
-539.0289792052972
 10
689.2799933241258
 20
-540.0070991136526
 10
666.5833409015649
 20
-553.7737056625847
 10
643.9993652644152
 20
-567.7318298963436
 10
621.1325479006191
 20
-581.2098459030457
 10
608.7811354961687
 20
-588.4898174526897
 10
598.3770933072446
 20
-597.4612547985107
 10
591.0644356347184
 20
-609.9148318684529
 10
570.0433165765789
 20
-645.7150060254989
 10
583.0921424370972
 20
-692.3185186766277
 10
619.2876708543299
 20
-712.6055961108486
 10
632.0802637917513
 20
-719.7758474088077
 10
643.9927951894642
 20
-728.5247234656581
 10
656.2520622927259
 20
-736.6361380003709
 10
674.42620362265
 20
-748.6611819316221
 10
692.5809632314667
 20
-760.7159554520276
 10
710.6803699588217
 20
-772.8530191611971
 10
716.7910324190306
 20
-776.9506106563676
 10
722.7410565466835
 20
-781.1019125142629
 10
730.0423808399173
 20
-783.1044713593801
 10
746.7040909160841
 20
-787.6742869916652
 10
766.67892553825
 20
-780.2527303268252
 10
776.1179879687206
 20
-765.2603120438779
 10
786.1263473937106
 20
-749.3640156995243
 10
785.1244109636573
 20
-729.7043804231398
 10
773.3401602793656
 20
-715.2551430867807
 10
769.4132264810523
 20
-710.4402636588165
 10
764.3434281449827
 20
-706.8410123486919
 10
759.4779591398946
 20
-703.0589487030519
 10
757.6825219076127
 20
-701.6633005315489
 10
757.2812545799715
 20
-700.9905248565501
 10
759.3066444355427
 20
-699.0635218733732
 10
768.0279261775977
 20
-690.7651887062984
 10
771.5333896677948
 20
-680.5812440282388
 10
768.8104221042831
 20
-668.6703551492628
 10
768.2483521922095
 20
-666.2116688506612
 10
769.0076886046917
 20
-665.1208721568946
 10
770.9537448052287
 20
-663.9748868335373
 10
774.6835763550061
 20
-661.7781822736124
 10
778.3321032272652
 20
-659.4306944935596
 10
781.9070452600699
 20
-656.9889261379576
 10
783.7338546002428
 20
-655.7411046528577
 10
785.3650399587441
 20
-655.7778970725848
 10
786.9167274103365
 20
-657.1477576999022
 10
797.1451843461909
 20
-666.1776687127894
 10
808.6166994628056
 20
-667.1301653288355
 10
821.0352908836322
 20
-662.3859142065957
 10
823.1682657165292
 20
-668.9489263271934
 10
823.4366532782841
 20
-675.8567031308521
 10
825.9809148031235
 20
-682.2649899863481
 10
833.7531492184844
 20
-701.8400355477369
 10
855.0802695174752
 20
-712.8987857055435
 10
875.3867286728
 20
-707.6522523532876
 10
896.4242729183188
 20
-702.2168293461854
 10
909.8917768050997
 20
-682.4275993413903
 10
907.3258340329193
 20
-661.4550988378887
 97
        0
 97
        1
330
97
 75
     2
 76
     1
 98
        1
 10
0.0
 20
0.0
450
        0
451
        0
460
0.0
461
0.0
452
        0
462
0.0
453
        0
470

  0
SPLINE
  5
99
330
79
100
AcDbEntity
  8
katman 1
100
AcDbSpline
210
0.0
220
0.0
230
1.0
 70
     9
 71
     3
 72
    17
 73
    13
 74
     0
 42
0.0000000001
 43
0.0000000001
 40
0.0
 40
0.0
 40
0.0
 40
0.0
 40
1.0
 40
1.0
 40
1.0
 40
2.0
 40
2.0
 40
2.0
 40
3.0
 40
3.0
 40
3.0
 40
4.0
 40
4.0
 40
4.0
 40
4.0
 10
660.6916261891037
 20
-663.3922854372412
 30
0.0
 10
654.8348971257582
 20
-666.8722898870019
 30
0.0
 10
652.9274401155598
 20
-674.3657888725574
 30
0.0
 10
656.4220629820866
 20
-680.1658510394499
 30
0.0
 10
659.8544343884514
 20
-685.8624345258613
 30
0.0
 10
667.1639712753749
 20
-687.6802100129771
 30
0.0
 10
672.8807577422612
 20
-684.2588434821554
 30
0.0
 10
678.8394872192238
 20
-680.6927710505333
 30
0.0
 10
680.720335425869
 20
-673.3958815578916
 30
0.0
 10
677.1834998277808
 20
-667.5652685424757
 30
0.0
 10
673.7851285592896
 20
-661.9626371278664
 30
0.0
 10
666.2898228031208
 20
-660.0661849932111
 30
0.0
 10
660.6916261891037
 20
-663.3922854372412
 30
0.0
  0
HATCH
  5
9A
330
79
100
AcDbEntity
  8
katman 1
 62
    18
420
        0
440
 33554687
100
AcDbHatch
 10
0.0
 20
0.0
 30
0.0
210
0.0
220
0.0
230
1.0
  2
SOLID
 70
     1
 71
     1
 91
        1
 92
        1
 93
        1
 72
     4
 94
        3
 73
     0
 74
     0
 95
       17
 96
       13
 40
0.0
 40
0.0
 40
0.0
 40
0.0
 40
1.0
 40
1.0
 40
1.0
 40
2.0
 40
2.0
 40
2.0
 40
3.0
 40
3.0
 40
3.0
 40
4.0
 40
4.0
 40
4.0
 40
4.0
 10
660.6916261891037
 20
-663.3922854372412
 10
654.8348971257582
 20
-666.8722898870019
 10
652.9274401155598
 20
-674.3657888725574
 10
656.4220629820866
 20
-680.1658510394499
 10
659.8544343884514
 20
-685.8624345258613
 10
667.1639712753749
 20
-687.6802100129771
 10
672.8807577422612
 20
-684.2588434821554
 10
678.8394872192238
 20
-680.6927710505333
 10
680.720335425869
 20
-673.3958815578916
 10
677.1834998277808
 20
-667.5652685424757
 10
673.7851285592896
 20
-661.9626371278664
 10
666.2898228031208
 20
-660.0661849932111
 10
660.6916261891037
 20
-663.3922854372412
 97
        0
 97
        1
330
99
 75
     2
 76
     1
 98
        1
 10
0.0
 20
0.0
450
        0
451
        0
460
0.0
461
0.0
452
        0
462
0.0
453
        0
470

  0
SPLINE
  5
9B
330
79
100
AcDbEntity
  8
katman 1
100
AcDbSpline
210
0.0
220
0.0
230
1.0
 70
     9
 71
     3
 72
    17
 73
    13
 74
     0
 42
0.0000000001
 43
0.0000000001
 40
0.0
 40
0.0
 40
0.0
 40
0.0
 40
1.0
 40
1.0
 40
1.0
 40
2.0
 40
2.0
 40
2.0
 40
3.0
 40
3.0
 40
3.0
 40
4.0
 40
4.0
 40
4.0
 40
4.0
 10
630.8896019587264
 20
-614.8929776589539
 30
0.0
 10
625.0844479837469
 20
-618.4712047292341
 30
0.0
 10
623.3133200287848
 20
-625.4515808611031
 30
0.0
 10
626.7461841907715
 20
-631.2224061944634
 30
0.0
 10
630.2353867454639
 20
-637.087676355246
 30
0.0
 10
637.5202858513203
 20
-638.8121567780526
 30
0.0
 10
643.4643969115168
 20
-635.1798908413002
 30
0.0
 10
649.1453764699181
 20
-631.7084274889748
 30
0.0
 10
650.9332581160052
 20
-624.0171692473886
 30
0.0
 10
647.3681711956269
 20
-618.3872720217332
 30
0.0
 10
643.8085045870848
 20
-612.7660801453857
 30
0.0
 10
636.7637417206934
 20
-611.272209353363
 30
0.0
 10
630.8896019587264
 20
-614.8929776589539
 30
0.0
  0
HATCH
  5
9C
330
79
100
AcDbEntity
  8
katman 1
 62
    18
420
        0
440
 33554687
100
AcDbHatch
 10
0.0
 20
0.0
 30
0.0
210
0.0
220
0.0
230
1.0
  2
SOLID
 70
     1
 71
     1
 91
        1
 92
        1
 93
        1
 72
     4
 94
        3
 73
     0
 74
     0
 95
       17
 96
       13
 40
0.0
 40
0.0
 40
0.0
 40
0.0
 40
1.0
 40
1.0
 40
1.0
 40
2.0
 40
2.0
 40
2.0
 40
3.0
 40
3.0
 40
3.0
 40
4.0
 40
4.0
 40
4.0
 40
4.0
 10
630.8896019587264
 20
-614.8929776589539
 10
625.0844479837469
 20
-618.4712047292341
 10
623.3133200287848
 20
-625.4515808611031
 10
626.7461841907715
 20
-631.2224061944634
 10
630.2353867454639
 20
-637.087676355246
 10
637.5202858513203
 20
-638.8121567780526
 10
643.4643969115168
 20
-635.1798908413002
 10
649.1453764699181
 20
-631.7084274889748
 10
650.9332581160052
 20
-624.0171692473886
 10
647.3681711956269
 20
-618.3872720217332
 10
643.8085045870848
 20
-612.7660801453857
 10
636.7637417206934
 20
-611.272209353363
 10
630.8896019587264
 20
-614.8929776589539
 97
        0
 97
        1
330
9B
 75
     2
 76
     1
 98
        1
 10
0.0
 20
0.0
450
        0
451
        0
460
0.0
461
0.0
452
        0
462
0.0
453
        0
470

  0
SPLINE
  5
9D
330
79
100
AcDbEntity
  8
katman 1
100
AcDbSpline
210
0.0
220
0.0
230
1.0
 70
     9
 71
     3
 72
    17
 73
    13
 74
     0
 42
0.0000000001
 43
0.0000000001
 40
0.0
 40
0.0
 40
0.0
 40
0.0
 40
1.0
 40
1.0
 40
1.0
 40
2.0
 40
2.0
 40
2.0
 40
3.0
 40
3.0
 40
3.0
 40
4.0
 40
4.0
 40
4.0
 40
4.0
 10
621.4369066227318
 20
-653.965706149178
 30
0.0
 10
615.4335006360997
 20
-657.579904379816
 30
0.0
 10
613.6180246752192
 20
-664.7596822864543
 30
0.0
 10
617.2226962971781
 20
-670.6321795296826
 30
0.0
 10
620.6972804351043
 20
-676.2926276038615
 30
0.0
 10
627.9143435170899
 20
-677.980644110692
 30
0.0
 10
633.6871398729345
 20
-674.4829004585626
 30
0.0
 10
639.7260242643024
 20
-670.8238614663823
 30
0.0
 10
641.5413359733102
 20
-663.6736488970255
 30
0.0
 10
637.9161328671289
 20
-657.8251324273678
 30
0.0
 10
634.4164181925134
 20
-652.1789742662076
 30
0.0
 10
627.2085532154597
 20
-650.4909577593789
 30
0.0
 10
621.4369066227318
 20
-653.965706149178
 30
0.0
  0
HATCH
  5
9E
330
79
100
AcDbEntity
  8
katman 1
 62
    18
420
        0
440
 33554687
100
AcDbHatch
 10
0.0
 20
0.0
 30
0.0
210
0.0
220
0.0
230
1.0
  2
SOLID
 70
     1
 71
     1
 91
        1
 92
        1
 93
        1
 72
     4
 94
        3
 73
     0
 74
     0
 95
       17
 96
       13
 40
0.0
 40
0.0
 40
0.0
 40
0.0
 40
1.0
 40
1.0
 40
1.0
 40
2.0
 40
2.0
 40
2.0
 40
3.0
 40
3.0
 40
3.0
 40
4.0
 40
4.0
 40
4.0
 40
4.0
 10
621.4369066227318
 20
-653.965706149178
 10
615.4335006360997
 20
-657.579904379816
 10
613.6180246752192
 20
-664.7596822864543
 10
617.2226962971781
 20
-670.6321795296826
 10
620.6972804351043
 20
-676.2926276038615
 10
627.9143435170899
 20
-677.980644110692
 10
633.6871398729345
 20
-674.4829004585626
 10
639.7260242643024
 20
-670.8238614663823
 10
641.5413359733102
 20
-663.6736488970255
 10
637.9161328671289
 20
-657.8251324273678
 10
634.4164181925134
 20
-652.1789742662076
 10
627.2085532154597
 20
-650.4909577593789
 10
621.4369066227318
 20
-653.965706149178
 97
        0
 97
        1
330
9D
 75
     2
 76
     1
 98
        1
 10
0.0
 20
0.0
450
        0
451
        0
460
0.0
461
0.0
452
        0
462
0.0
453
        0
470

  0
SPLINE
  5
9F
330
79
100
AcDbEntity
  8
katman 1
100
AcDbSpline
210
0.0
220
0.0
230
1.0
 70
     9
 71
     3
 72
    17
 73
    13
 74
     0
 42
0.0000000001
 43
0.0000000001
 40
0.0
 40
0.0
 40
0.0
 40
0.0
 40
1.0
 40
1.0
 40
1.0
 40
2.0
 40
2.0
 40
2.0
 40
3.0
 40
3.0
 40
3.0
 40
4.0
 40
4.0
 40
4.0
 40
4.0
 10
670.3409310180123
 20
-624.5665917651804
 30
0.0
 10
664.1785292175627
 20
-628.4930328078735
 30
0.0
 10
662.5320684348007
 20
-635.1715139957377
 30
0.0
 10
666.2650207701808
 20
-641.0991998685549
 30
0.0
 10
669.9682435164068
 20
-646.9797454536001
 30
0.0
 10
676.9505906707617
 20
-648.4391233521273
 30
0.0
 10
682.9909533289938
 20
-644.5949724981983
 30
0.0
 10
688.6607637599791
 20
-640.9866873350165
 30
0.0
 10
690.2400455263668
 20
-633.9028325226664
 30
0.0
 10
686.6580406629891
 20
-628.1464613541993
 30
0.0
 10
683.0837556376791
 20
-622.4029018318869
 30
0.0
 10
676.1309738206037
 20
-620.8773304282258
 30
0.0
 10
670.3409310180123
 20
-624.5665917651804
 30
0.0
  0
HATCH
  5
A0
330
79
100
AcDbEntity
  8
katman 1
 62
    18
420
        0
440
 33554687
100
AcDbHatch
 10
0.0
 20
0.0
 30
0.0
210
0.0
220
0.0
230
1.0
  2
SOLID
 70
     1
 71
     1
 91
        1
 92
        1
 93
        1
 72
     4
 94
        3
 73
     0
 74
     0
 95
       17
 96
       13
 40
0.0
 40
0.0
 40
0.0
 40
0.0
 40
1.0
 40
1.0
 40
1.0
 40
2.0
 40
2.0
 40
2.0
 40
3.0
 40
3.0
 40
3.0
 40
4.0
 40
4.0
 40
4.0
 40
4.0
 10
670.3409310180123
 20
-624.5665917651804
 10
664.1785292175627
 20
-628.4930328078735
 10
662.5320684348007
 20
-635.1715139957377
 10
666.2650207701808
 20
-641.0991998685549
 10
669.9682435164068
 20
-646.9797454536001
 10
676.9505906707617
 20
-648.4391233521273
 10
682.9909533289938
 20
-644.5949724981983
 10
688.6607637599791
 20
-640.9866873350165
 10
690.2400455263668
 20
-633.9028325226664
 10
686.6580406629891
 20
-628.1464613541993
 10
683.0837556376791
 20
-622.4029018318869
 10
676.1309738206037
 20
-620.8773304282258
 10
670.3409310180123
 20
-624.5665917651804
 97
        0
 97
        1
330
9F
 75
     2
 76
     1
 98
        1
 10
0.0
 20
0.0
450
        0
451
        0
460
0.0
461
0.0
452
        0
462
0.0
453
        0
470

  0
SPLINE
  5
A1
330
79
100
AcDbEntity
  8
katman 1
100
AcDbSpline
210
0.0
220
0.0
230
1.0
 70
     9
 71
     3
 72
    29
 73
    25
 74
     0
 42
0.0000000001
 43
0.0000000001
 40
0.0
 40
0.0
 40
0.0
 40
0.0
 40
1.0
 40
1.0
 40
1.0
 40
2.0
 40
2.0
 40
2.0
 40
3.0
 40
3.0
 40
3.0
 40
4.0
 40
4.0
 40
4.0
 40
5.0
 40
5.0
 40
5.0
 40
6.0
 40
6.0
 40
6.0
 40
7.0
 40
7.0
 40
7.0
 40
8.0
 40
8.0
 40
8.0
 40
8.0
 10
823.5954848402288
 20
-521.5752465937676
 30
0.0
 10
821.3963165021977
 20
-518.5224612677084
 30
0.0
 10
819.6332368890525
 20
-515.1447857353123
 30
0.0
 10
817.8060990451323
 20
-511.8380670123879
 30
0.0
 10
816.3730014464089
 20
-509.2445299254141
 30
0.0
 10
814.6181344269516
 20
-508.6049331289177
 30
0.0
 10
812.0608970040812
 20
-510.3013264813089
 30
0.0
 10
810.0982513642939
 20
-511.6033510847573
 30
0.0
 10
808.0396826302186
 20
-512.7613267949018
 30
0.0
 10
806.0231623758317
 20
-513.9822109727028
 30
0.0
 10
795.3666650569084
 20
-520.5460443526681
 30
0.0
 10
796.8579078189504
 20
-518.0965561589983
 30
0.0
 10
802.1680066463595
 20
-529.0368807158119
 30
0.0
 10
806.0415585856954
 20
-537.0177150108702
 30
0.0
 10
812.578947413982
 20
-537.9702116269164
 30
0.0
 10
819.6744641093701
 20
-539.168593298009
 30
0.0
 10
821.396152250325
 20
-539.4594833664723
 30
0.0
 10
822.0674496584598
 20
-538.7190359194756
 30
0.0
 10
822.4568908511901
 20
-537.2557159759763
 30
0.0
 10
823.2955609187083
 20
-534.1040510219008
 30
0.0
 10
824.2689175227242
 20
-530.9847436869586
 30
0.0
 10
825.0026306428953
 20
-527.8095907149327
 30
0.0
 10
825.5183815265628
 20
-525.5774077502719
 30
0.0
 10
825.0499351825437
 20
-523.5939021225148
 30
0.0
 10
823.5954848402288
 20
-521.5752465937676
 30
0.0
  0
HATCH
  5
A2
330
79
100
AcDbEntity
  8
katman 1
 62
    18
420
        0
440
 33554687
100
AcDbHatch
 10
0.0
 20
0.0
 30
0.0
210
0.0
220
0.0
230
1.0
  2
SOLID
 70
     1
 71
     1
 91
        1
 92
        1
 93
        1
 72
     4
 94
        3
 73
     0
 74
     0
 95
       29
 96
       25
 40
0.0
 40
0.0
 40
0.0
 40
0.0
 40
1.0
 40
1.0
 40
1.0
 40
2.0
 40
2.0
 40
2.0
 40
3.0
 40
3.0
 40
3.0
 40
4.0
 40
4.0
 40
4.0
 40
5.0
 40
5.0
 40
5.0
 40
6.0
 40
6.0
 40
6.0
 40
7.0
 40
7.0
 40
7.0
 40
8.0
 40
8.0
 40
8.0
 40
8.0
 10
823.5954848402288
 20
-521.5752465937676
 10
821.3963165021977
 20
-518.5224612677084
 10
819.6332368890525
 20
-515.1447857353123
 10
817.8060990451323
 20
-511.8380670123879
 10
816.3730014464089
 20
-509.2445299254141
 10
814.6181344269516
 20
-508.6049331289177
 10
812.0608970040812
 20
-510.3013264813089
 10
810.0982513642939
 20
-511.6033510847573
 10
808.0396826302186
 20
-512.7613267949018
 10
806.0231623758317
 20
-513.9822109727028
 10
795.3666650569084
 20
-520.5460443526681
 10
796.8579078189504
 20
-518.0965561589983
 10
802.1680066463595
 20
-529.0368807158119
 10
806.0415585856954
 20
-537.0177150108702
 10
812.578947413982
 20
-537.9702116269164
 10
819.6744641093701
 20
-539.168593298009
 10
821.396152250325
 20
-539.4594833664723
 10
822.0674496584598
 20
-538.7190359194756
 10
822.4568908511901
 20
-537.2557159759763
 10
823.2955609187083
 20
-534.1040510219008
 10
824.2689175227242
 20
-530.9847436869586
 10
825.0026306428953
 20
-527.8095907149327
 10
825.5183815265628
 20
-525.5774077502719
 10
825.0499351825437
 20
-523.5939021225148
 10
823.5954848402288
 20
-521.5752465937676
 97
        0
 97
        1
330
A1
 75
     2
 76
     1
 98
        1
 10
0.0
 20
0.0
450
        0
451
        0
460
0.0
461
0.0
452
        0
462
0.0
453
        0
470

  0
SPLINE
  5
A3
330
79
100
AcDbEntity
  8
katman 1
100
AcDbSpline
210
0.0
220
0.0
230
1.0
 70
     9
 71
     3
 72
    29
 73
    25
 74
     0
 42
0.0000000001
 43
0.0000000001
 40
0.0
 40
0.0
 40
0.0
 40
0.0
 40
1.0
 40
1.0
 40
1.0
 40
2.0
 40
2.0
 40
2.0
 40
3.0
 40
3.0
 40
3.0
 40
4.0
 40
4.0
 40
4.0
 40
5.0
 40
5.0
 40
5.0
 40
6.0
 40
6.0
 40
6.0
 40
7.0
 40
7.0
 40
7.0
 40
8.0
 40
8.0
 40
8.0
 40
8.0
 10
816.7974282882532
 20
-548.4506309371463
 30
0.0
 10
813.6457633341779
 20
-547.6119608696299
 30
0.0
 10
810.5264559992356
 20
-546.6386042656158
 30
0.0
 10
807.3513030272097
 20
-545.9048911454429
 30
0.0
 10
805.1191200625508
 20
-545.3891402617755
 30
0.0
 10
803.1356144347919
 20
-545.8575866057945
 30
0.0
 10
801.1167946541718
 20
-547.3120369481093
 30
0.0
 10
798.0641735799854
 20
-549.5112052861404
 30
0.0
 10
794.6864980475893
 20
-551.2742848992856
 30
0.0
 10
791.3797793246649
 20
-553.101422743206
 30
0.0
 10
788.7860779858165
 20
-554.534520341931
 30
0.0
 10
788.1466454411947
 20
-556.2893873613866
 30
0.0
 10
789.8430387935877
 20
-558.8466247842553
 30
0.0
 10
791.1450633970344
 20
-560.8094346759171
 30
0.0
 10
792.3028748553043
 20
-562.8678391581197
 30
0.0
 10
793.5239232849799
 20
-564.8843594125064
 30
0.0
 10
800.0877566649451
 20
-575.5408567314297
 30
0.0
 10
797.6382684712753
 20
-574.0496139693878
 30
0.0
 10
808.578593028089
 20
-568.7396793938533
 30
0.0
 10
816.5594273231473
 20
-564.8659632026428
 30
0.0
 10
817.5119239391934
 20
-558.3285743743563
 30
0.0
 10
818.7103056102859
 20
-551.2330576789682
 30
0.0
 10
819.0011956787493
 20
-549.5113695380132
 30
0.0
 10
818.2607482317525
 20
-548.8400721298785
 30
0.0
 10
816.7974282882532
 20
-548.4506309371463
 30
0.0
  0
HATCH
  5
A4
330
79
100
AcDbEntity
  8
katman 1
 62
    18
420
        0
440
 33554687
100
AcDbHatch
 10
0.0
 20
0.0
 30
0.0
210
0.0
220
0.0
230
1.0
  2
SOLID
 70
     1
 71
     1
 91
        1
 92
        1
 93
        1
 72
     4
 94
        3
 73
     0
 74
     0
 95
       29
 96
       25
 40
0.0
 40
0.0
 40
0.0
 40
0.0
 40
1.0
 40
1.0
 40
1.0
 40
2.0
 40
2.0
 40
2.0
 40
3.0
 40
3.0
 40
3.0
 40
4.0
 40
4.0
 40
4.0
 40
5.0
 40
5.0
 40
5.0
 40
6.0
 40
6.0
 40
6.0
 40
7.0
 40
7.0
 40
7.0
 40
8.0
 40
8.0
 40
8.0
 40
8.0
 10
816.7974282882532
 20
-548.4506309371463
 10
813.6457633341779
 20
-547.6119608696299
 10
810.5264559992356
 20
-546.6386042656158
 10
807.3513030272097
 20
-545.9048911454429
 10
805.1191200625508
 20
-545.3891402617755
 10
803.1356144347919
 20
-545.8575866057945
 10
801.1167946541718
 20
-547.3120369481093
 10
798.0641735799854
 20
-549.5112052861404
 10
794.6864980475893
 20
-551.2742848992856
 10
791.3797793246649
 20
-553.101422743206
 10
788.7860779858165
 20
-554.534520341931
 10
788.1466454411947
 20
-556.2893873613866
 10
789.8430387935877
 20
-558.8466247842553
 10
791.1450633970344
 20
-560.8094346759171
 10
792.3028748553043
 20
-562.8678391581197
 10
793.5239232849799
 20
-564.8843594125064
 10
800.0877566649451
 20
-575.5408567314297
 10
797.6382684712753
 20
-574.0496139693878
 10
808.578593028089
 20
-568.7396793938533
 10
816.5594273231473
 20
-564.8659632026428
 10
817.5119239391934
 20
-558.3285743743563
 10
818.7103056102859
 20
-551.2330576789682
 10
819.0011956787493
 20
-549.5113695380132
 10
818.2607482317525
 20
-548.8400721298785
 10
816.7974282882532
 20
-548.4506309371463
 97
        0
 97
        1
330
A3
 75
     2
 76
     1
 98
        1
 10
0.0
 20
0.0
450
        0
451
        0
460
0.0
461
0.0
452
        0
462
0.0
453
        0
470

  0
SPLINE
  5
A5
330
79
100
AcDbEntity
  8
katman 1
100
AcDbSpline
210
0.0
220
0.0
230
1.0
 70
     9
 71
     3
 72
    29
 73
    25
 74
     0
 42
0.0000000001
 43
0.0000000001
 40
0.0
 40
0.0
 40
0.0
 40
0.0
 40
1.0
 40
1.0
 40
1.0
 40
2.0
 40
2.0
 40
2.0
 40
3.0
 40
3.0
 40
3.0
 40
4.0
 40
4.0
 40
4.0
 40
5.0
 40
5.0
 40
5.0
 40
6.0
 40
6.0
 40
6.0
 40
7.0
 40
7.0
 40
7.0
 40
8.0
 40
8.0
 40
8.0
 40
8.0
 10
830.6440254997159
 20
-551.6832720649963
 30
0.0
 10
828.9223373587628
 20
-551.392381996533
 30
0.0
 10
828.2510399506262
 20
-552.1328294435297
 30
0.0
 10
827.8615987578959
 20
-553.596149387029
 30
0.0
 10
827.0229286903795
 20
-556.7478143411044
 30
0.0
 10
826.0495720863637
 20
-559.8671216760467
 30
0.0
 10
825.3158589661925
 20
-563.0422746480726
 30
0.0
 10
824.8001080825252
 20
-565.2746218646061
 30
0.0
 10
825.2685544265441
 20
-567.2579632404904
 30
0.0
 10
826.723004768859
 20
-569.2767830211105
 30
0.0
 10
828.9221731068883
 20
-572.3294040952987
 30
0.0
 10
830.6852527200353
 20
-575.7072438795676
 30
0.0
 10
832.5123905639557
 20
-579.0137983506174
 30
0.0
 10
833.9454881626789
 20
-581.6074996894658
 30
0.0
 10
835.7003551821362
 20
-582.2469322340875
 30
0.0
 10
838.2575926050048
 20
-580.5505388816964
 30
0.0
 10
840.220238244794
 20
-579.248514278248
 30
0.0
 10
842.2788069788694
 20
-578.0907028199781
 30
0.0
 10
844.2953272332561
 20
-576.8696543903042
 30
0.0
 10
854.9518245521793
 20
-570.3058210103372
 30
0.0
 10
853.4605817901374
 20
-572.7553092040071
 30
0.0
 10
848.1504829627283
 20
-561.8151488990679
 30
0.0
 10
844.2769310233925
 20
-553.834150352135
 30
0.0
 10
837.739542195106
 20
-552.8816537360889
 30
0.0
 10
830.6440254997159
 20
-551.6832720649963
 30
0.0
  0
HATCH
  5
A6
330
79
100
AcDbEntity
  8
katman 1
 62
    18
420
        0
440
 33554687
100
AcDbHatch
 10
0.0
 20
0.0
 30
0.0
210
0.0
220
0.0
230
1.0
  2
SOLID
 70
     1
 71
     1
 91
        1
 92
        1
 93
        1
 72
     4
 94
        3
 73
     0
 74
     0
 95
       29
 96
       25
 40
0.0
 40
0.0
 40
0.0
 40
0.0
 40
1.0
 40
1.0
 40
1.0
 40
2.0
 40
2.0
 40
2.0
 40
3.0
 40
3.0
 40
3.0
 40
4.0
 40
4.0
 40
4.0
 40
5.0
 40
5.0
 40
5.0
 40
6.0
 40
6.0
 40
6.0
 40
7.0
 40
7.0
 40
7.0
 40
8.0
 40
8.0
 40
8.0
 40
8.0
 10
830.6440254997159
 20
-551.6832720649963
 10
828.9223373587628
 20
-551.392381996533
 10
828.2510399506262
 20
-552.1328294435297
 10
827.8615987578959
 20
-553.596149387029
 10
827.0229286903795
 20
-556.7478143411044
 10
826.0495720863637
 20
-559.8671216760467
 10
825.3158589661925
 20
-563.0422746480726
 10
824.8001080825252
 20
-565.2746218646061
 10
825.2685544265441
 20
-567.2579632404904
 10
826.723004768859
 20
-569.2767830211105
 10
828.9221731068883
 20
-572.3294040952987
 10
830.6852527200353
 20
-575.7072438795676
 10
832.5123905639557
 20
-579.0137983506174
 10
833.9454881626789
 20
-581.6074996894658
 10
835.7003551821362
 20
-582.2469322340875
 10
838.2575926050048
 20
-580.5505388816964
 10
840.220238244794
 20
-579.248514278248
 10
842.2788069788694
 20
-578.0907028199781
 10
844.2953272332561
 20
-576.8696543903042
 10
854.9518245521793
 20
-570.3058210103372
 10
853.4605817901374
 20
-572.7553092040071
 10
848.1504829627283
 20
-561.8151488990679
 10
844.2769310233925
 20
-553.834150352135
 10
837.739542195106
 20
-552.8816537360889
 10
830.6440254997159
 20
-551.6832720649963
 97
        0
 97
        1
330
A5
 75
     2
 76
     1
 98
        1
 10
0.0
 20
0.0
450
        0
451
        0
460
0.0
461
0.0
452
        0
462
0.0
453
        0
470

  0
SPLINE
  5
A7
330
79
100
AcDbEntity
  8
katman 1
100
AcDbSpline
210
0.0
220
0.0
230
1.0
 70
     9
 71
     3
 72
    29
 73
    25
 74
     0
 42
0.0000000001
 43
0.0000000001
 40
0.0
 40
0.0
 40
0.0
 40
0.0
 40
1.0
 40
1.0
 40
1.0
 40
2.0
 40
2.0
 40
2.0
 40
3.0
 40
3.0
 40
3.0
 40
4.0
 40
4.0
 40
4.0
 40
5.0
 40
5.0
 40
5.0
 40
6.0
 40
6.0
 40
6.0
 40
7.0
 40
7.0
 40
7.0
 40
8.0
 40
8.0
 40
8.0
 40
8.0
 10
853.394552536878
 20
-520.3238115674448
 30
0.0
 10
851.9121793760204
 20
-517.6368151642891
 30
0.0
 10
850.0605680029075
 20
-517.3920798723592
 30
0.0
 10
847.5900555693934
 20
-519.0286855426948
 30
0.0
 10
844.4406901415513
 20
-521.1150128434383
 30
0.0
 10
841.3151412354054
 20
-523.2939782009943
 30
0.0
 10
837.9530696310194
 20
-524.9831444709398
 30
0.0
 10
835.729756267543
 20
-526.1000572126376
 30
0.0
 10
834.3970165636983
 20
-527.6418895518036
 30
0.0
 10
833.8216422498499
 20
-529.8594540996982
 30
0.0
 10
833.0033394146813
 20
-533.0139113356271
 30
0.0
 10
832.4232017964932
 20
-536.2296345204777
 30
0.0
 10
831.7088703974278
 20
-539.4118503230766
 30
0.0
 10
831.377245864267
 20
-540.88929592772
 30
0.0
 10
831.6298652461391
 20
-541.8562467086594
 30
0.0
 10
833.290944445669
 20
-542.3948286027807
 30
0.0
 10
840.1359770335439
 20
-544.614692676907
 30
0.0
 10
846.3724564290679
 20
-546.7943150419578
 30
0.0
 10
853.4985239729794
 20
-541.5106607662274
 30
0.0
 10
863.267075662252
 20
-534.2676458881851
 30
0.0
 10
863.4561295689728
 20
-537.1292420331664
 30
0.0
 10
857.044721927874
 20
-526.3802709093051
 30
0.0
 10
855.8217024757141
 20
-524.3649004180351
 30
0.0
 10
854.5323252665475
 20
-522.3861580946159
 30
0.0
 10
853.394552536878
 20
-520.3238115674448
 30
0.0
  0
HATCH
  5
A8
330
79
100
AcDbEntity
  8
katman 1
 62
    18
420
        0
440
 33554687
100
AcDbHatch
 10
0.0
 20
0.0
 30
0.0
210
0.0
220
0.0
230
1.0
  2
SOLID
 70
     1
 71
     1
 91
        1
 92
        1
 93
        1
 72
     4
 94
        3
 73
     0
 74
     0
 95
       29
 96
       25
 40
0.0
 40
0.0
 40
0.0
 40
0.0
 40
1.0
 40
1.0
 40
1.0
 40
2.0
 40
2.0
 40
2.0
 40
3.0
 40
3.0
 40
3.0
 40
4.0
 40
4.0
 40
4.0
 40
5.0
 40
5.0
 40
5.0
 40
6.0
 40
6.0
 40
6.0
 40
7.0
 40
7.0
 40
7.0
 40
8.0
 40
8.0
 40
8.0
 40
8.0
 10
853.394552536878
 20
-520.3238115674448
 10
851.9121793760204
 20
-517.6368151642891
 10
850.0605680029075
 20
-517.3920798723592
 10
847.5900555693934
 20
-519.0286855426948
 10
844.4406901415513
 20
-521.1150128434383
 10
841.3151412354054
 20
-523.2939782009943
 10
837.9530696310194
 20
-524.9831444709398
 10
835.729756267543
 20
-526.1000572126376
 10
834.3970165636983
 20
-527.6418895518036
 10
833.8216422498499
 20
-529.8594540996982
 10
833.0033394146813
 20
-533.0139113356271
 10
832.4232017964932
 20
-536.2296345204777
 10
831.7088703974278
 20
-539.4118503230766
 10
831.377245864267
 20
-540.88929592772
 10
831.6298652461391
 20
-541.8562467086594
 10
833.290944445669
 20
-542.3948286027807
 10
840.1359770335439
 20
-544.614692676907
 10
846.3724564290679
 20
-546.7943150419578
 10
853.4985239729794
 20
-541.5106607662274
 10
863.267075662252
 20
-534.2676458881851
 10
863.4561295689728
 20
-537.1292420331664
 10
857.044721927874
 20
-526.3802709093051
 10
855.8217024757141
 20
-524.3649004180351
 10
854.5323252665475
 20
-522.3861580946159
 10
853.394552536878
 20
-520.3238115674448
 97
        0
 97
        1
330
A7
 75
     2
 76
     1
 98
        1
 10
0.0
 20
0.0
450
        0
451
        0
460
0.0
461
0.0
452
        0
462
0.0
453
        0
470

  0
ENDBLK
  5
7C
330
79
100
AcDbEntity
  8
0
100
AcDbBlockEnd
  0
ENDSEC
  0
SECTION
  2
ENTITIES
  0
INSERT
  5
7A
330
70
100
AcDbEntity
  8
katman 1
100
AcDbBlockReference
  2
Block_0
 10
0.0
 20
0.0
 30
0.0
  0
ENDSEC
  0
SECTION
  2
OBJECTS
  0
DICTIONARY
  5
C
330
0
100
AcDbDictionary
281
     1
  3
ACAD_COLOR
350
63
  3
ACAD_DETAILVIEWSTYLE
350
6A
  3
ACAD_GROUP
350
D
  3
ACAD_LAYOUT
350
62
  3
ACAD_MATERIAL
350
10
  3
ACAD_MLEADERSTYLE
350
66
  3
ACAD_MLINESTYLE
350
5F
  3
ACAD_PLOTSETTINGS
350
61
  3
ACAD_PLOTSTYLENAME
350
E
  3
ACAD_SCALELIST
350
42
  3
ACAD_SECTIONVIEWSTYLE
350
68
  3
ACAD_TABLESTYLE
350
64
  3
ACAD_VISUALSTYLE
350
29
  3
ACDB_RECOMPOSE_DATA
350
B1
  3
AcDbVariableDictionary
350
A9
  0
DICTIONARY
  5
63
102
{ACAD_REACTORS
330
C
102
}
330
C
100
AcDbDictionary
281
     1
  0
DICTIONARY
  5
6A
102
{ACAD_REACTORS
330
C
102
}
330
C
100
AcDbDictionary
281
     1
  3
Imperial24
350
6B
  0
DICTIONARY
  5
D
102
{ACAD_REACTORS
330
C
102
}
330
C
100
AcDbDictionary
281
     1
  0
DICTIONARY
  5
62
102
{ACAD_REACTORS
330
C
102
}
330
C
100
AcDbDictionary
281
     1
  3
Layout1
350
6F
  3
Layout2
350
77
  3
Model
350
73
  0
DICTIONARY
  5
10
102
{ACAD_REACTORS
330
C
102
}
330
C
100
AcDbDictionary
281
     1
  3
ByBlock
350
19
  3
ByLayer
350
11
  3
Global
350
21
  0
DICTIONARY
  5
66
102
{ACAD_REACTORS
330
C
102
}
330
C
100
AcDbDictionary
281
     1
  3
Standard
350
67
  0
DICTIONARY
  5
5F
102
{ACAD_REACTORS
330
C
102
}
330
C
100
AcDbDictionary
281
     1
  3
Standard
350
60
  0
DICTIONARY
  5
61
102
{ACAD_REACTORS
330
C
102
}
330
C
100
AcDbDictionary
281
     1
  0
ACDBDICTIONARYWDFLT
  5
E
102
{ACAD_REACTORS
330
C
102
}
330
C
100
AcDbDictionary
281
     1
  3
Normal
350
F
100
AcDbDictionaryWithDefault
340
F
  0
DICTIONARY
  5
42
102
{ACAD_REACTORS
330
C
102
}
330
C
100
AcDbDictionary
281
     1
  3
A0
350
43
  3
A1
350
44
  3
A2
350
45
  3
A3
350
46
  3
A4
350
47
  3
A5
350
48
  3
A6
350
49
  3
A7
350
4A
  3
A8
350
4B
  3
A9
350
4C
  3
B0
350
4D
  3
B1
350
4E
  3
B2
350
4F
  3
B3
350
50
  3
B4
350
51
  3
B5
350
52
  3
B6
350
53
  0
DICTIONARY
  5
68
102
{ACAD_REACTORS
330
C
102
}
330
C
100
AcDbDictionary
281
     1
  3
Imperial24
350
69
  0
DICTIONARY
  5
64
102
{ACAD_REACTORS
330
C
102
}
330
C
100
AcDbDictionary
281
     1
  3
Standard
350
65
  0
DICTIONARY
  5
29
102
{ACAD_REACTORS
330
C
102
}
330
C
100
AcDbDictionary
281
     1
  3
2dWireframe
350
2F
  3
Basic
350
2E
  3
Brighten
350
35
  3
ColorChange
350
39
  3
Conceptual
350
32
  3
Dim
350
34
  3
EdgeColorOff
350
41
  3
Facepattern
350
38
  3
Flat
350
2A
  3
FlatWithEdges
350
2B
  3
Gouraud
350
2C
  3
GouraudWithEdges
350
2D
  3
Hidden
350
31
  3
JitterOff
350
3F
  3
Linepattern
350
37
  3
OverhangOff
350
40
  3
Realistic
350
33
  3
Shaded
350
3E
  3
Shaded with edges
350
3D
  3
Shades of Gray
350
3A
  3
Sketchy
350
3B
  3
Thicken
350
36
  3
Wireframe
350
30
  3
X-Ray
350
3C
  0
XRECORD
  5
B1
102
{ACAD_REACTORS
330
C
102
}
330
C
100
AcDbXrecord
280
     1
 90
        1
330
65
  0
DICTIONARY
  5
A9
102
{ACAD_REACTORS
330
C
102
}
330
C
100
AcDbDictionary
281
     1
  3
CANNOSCALE
350
AE
  3
CMLEADERSTYLE
350
AB
  3
CTABLESTYLE
350
AA
  3
CVIEWDETAILSTYLE
350
AC
  3
CVIEWSECTIONSTYLE
350
AD
  0
ACDBDETAILVIEWSTYLE
  5
6B
102
{ACAD_REACTORS
330
6A
102
}
330
6A
100
AcDbModelDocViewStyle
 70
     0
  3
Imperial24
290
     1
300
Imperial24
 90
        0
100
AcDbDetailViewStyle
 70
     0
 71
     0
 90
        3
 71
     1
340
55
 62
   256
 40
0.24
340
0
 62
   256
 40
0.24
300

 40
0.36
280
     3
 71
     2
340
5D
 90
       25
 62
   256
 71
     3
340
55
 62
   256
 40
0.24
 90
        1
 40
0.75
 90
        1
300
%<\AcVar ViewType \f "%tc1">% %<\AcVar ViewDetailId>%\PSCALE %<\AcVar ViewScale \f "%sn">%
 71
     4
340
5D
 90
       25
 62
   256
340
5D
 90
       25
 62
   256
280
     0
  0
LAYOUT
  5
6F
102
{ACAD_REACTORS
330
62
102
}
330
62
100
AcDbPlotSettings
  1

  2

  4

  6

 40
0.0
 41
0.0
 42
0.0
 43
0.0
 44
0.0
 45
0.0
 46
0.0
 47
0.0
 48
0.0
 49
0.0
140
0.0
141
0.0
142
1.0
143
1.0
 70
   688
 72
     0
 73
     0
 74
     5
  7

 75
    16
147
1.0
 76
     0
 77
     2
 78
   300
148
0.0
149
0.0
100
AcDbLayout
  1
Layout1
 70
     1
 71
     1
 10
0.0
 20
0.0
 11
12.0
 21
9.0
 12
0.0
 22
0.0
 32
0.0
 14
0.0
 24
0.0
 34
0.0
 15
0.0
 25
0.0
 35
0.0
146
0.0
 13
0.0
 23
0.0
 33
0.0
 16
1.0
 26
0.0
 36
0.0
 17
0.0
 27
1.0
 37
0.0
 76
     0
330
6C
  0
LAYOUT
  5
77
102
{ACAD_REACTORS
330
62
102
}
330
62
100
AcDbPlotSettings
  1

  2

  4

  6

 40
0.0
 41
0.0
 42
0.0
 43
0.0
 44
0.0
 45
0.0
 46
0.0
 47
0.0
 48
0.0
 49
0.0
140
0.0
141
0.0
142
1.0
143
1.0
 70
   688
 72
     0
 73
     0
 74
     5
  7

 75
    16
147
1.0
 76
     0
 77
     2
 78
   300
148
0.0
149
0.0
100
AcDbLayout
  1
Layout2
 70
     1
 71
     2
 10
0.0
 20
0.0
 11
12.0
 21
9.0
 12
0.0
 22
0.0
 32
0.0
 14
0.0
 24
0.0
 34
0.0
 15
0.0
 25
0.0
 35
0.0
146
0.0
 13
0.0
 23
0.0
 33
0.0
 16
1.0
 26
0.0
 36
0.0
 17
0.0
 27
1.0
 37
0.0
 76
     0
330
74
  0
LAYOUT
  5
73
102
{ACAD_REACTORS
330
62
102
}
330
62
100
AcDbPlotSettings
  1

  2

  4

  6

 40
0.0
 41
0.0
 42
0.0
 43
0.0
 44
0.0
 45
0.0
 46
0.0
 47
0.0
 48
0.0
 49
0.0
140
0.0
141
0.0
142
1.0
143
1.0
 70
  1712
 72
     0
 73
     0
 74
     0
  7

 75
     0
147
1.0
 76
     0
 77
     2
 78
   300
148
0.0
149
0.0
100
AcDbLayout
  1
Model
 70
     1
 71
     0
 10
0.0
 20
0.0
 11
12.0
 21
9.0
 12
0.0
 22
0.0
 32
0.0
 14
0.0
 24
0.0
 34
0.0
 15
0.0
 25
0.0
 35
0.0
146
0.0
 13
0.0
 23
0.0
 33
0.0
 16
1.0
 26
0.0
 36
0.0
 17
0.0
 27
1.0
 37
0.0
 76
     0
330
70
  0
MATERIAL
  5
19
102
{ACAD_XDICTIONARY
360
1A
102
}
102
{ACAD_REACTORS
330
10
102
}
330
10
100
AcDbMaterial
  1
ByBlock
 72
     0
 43
0.0208333333333333
 43
0.0
 43
0.0
 43
0.0
 43
0.0
 43
0.0208333333333333
 43
0.0
 43
0.0
 43
0.0
 43
0.0
 43
1.0
 43
0.0
 43
0.0
 43
0.0
 43
0.0
 43
1.0
 77
     0
 47
0.0208333333333333
 47
0.0
 47
0.0
 47
0.0
 47
0.0
 47
0.0208333333333333
 47
0.0
 47
0.0
 47
0.0
 47
0.0
 47
1.0
 47
0.0
 47
0.0
 47
0.0
 47
0.0
 47
1.0
171
     0
 49
0.0208333333333333
 49
0.0
 49
0.0
 49
0.0
 49
0.0
 49
0.0208333333333333
 49
0.0
 49
0.0
 49
0.0
 49
0.0
 49
1.0
 49
0.0
 49
0.0
 49
0.0
 49
0.0
 49
1.0
175
     0
142
0.0208333333333333
142
0.0
142
0.0
142
0.0
142
0.0
142
0.0208333333333333
142
0.0
142
0.0
142
0.0
142
0.0
142
1.0
142
0.0
142
0.0
142
0.0
142
0.0
142
1.0
179
     0
144
0.0208333333333333
144
0.0
144
0.0
144
0.0
144
0.0
144
0.0208333333333333
144
0.0
144
0.0
144
0.0
144
0.0
144
1.0
144
0.0
144
0.0
144
0.0
144
0.0
144
1.0
147
0.0208333333333333
147
0.0
147
0.0
147
0.0
147
0.0
147
0.0208333333333333
147
0.0
147
0.0
147
0.0
147
0.0
147
1.0
147
0.0
147
0.0
147
0.0
147
0.0
147
1.0
  0
MATERIAL
  5
11
102
{ACAD_XDICTIONARY
360
12
102
}
102
{ACAD_REACTORS
330
10
102
}
330
10
100
AcDbMaterial
  1
ByLayer
 72
     0
 43
0.0208333333333333
 43
0.0
 43
0.0
 43
0.0
 43
0.0
 43
0.0208333333333333
 43
0.0
 43
0.0
 43
0.0
 43
0.0
 43
1.0
 43
0.0
 43
0.0
 43
0.0
 43
0.0
 43
1.0
 77
     0
 47
0.0208333333333333
 47
0.0
 47
0.0
 47
0.0
 47
0.0
 47
0.0208333333333333
 47
0.0
 47
0.0
 47
0.0
 47
0.0
 47
1.0
 47
0.0
 47
0.0
 47
0.0
 47
0.0
 47
1.0
171
     0
 49
0.0208333333333333
 49
0.0
 49
0.0
 49
0.0
 49
0.0
 49
0.0208333333333333
 49
0.0
 49
0.0
 49
0.0
 49
0.0
 49
1.0
 49
0.0
 49
0.0
 49
0.0
 49
0.0
 49
1.0
175
     0
142
0.0208333333333333
142
0.0
142
0.0
142
0.0
142
0.0
142
0.0208333333333333
142
0.0
142
0.0
142
0.0
142
0.0
142
1.0
142
0.0
142
0.0
142
0.0
142
0.0
142
1.0
179
     0
144
0.0208333333333333
144
0.0
144
0.0
144
0.0
144
0.0
144
0.0208333333333333
144
0.0
144
0.0
144
0.0
144
0.0
144
1.0
144
0.0
144
0.0
144
0.0
144
0.0
144
1.0
147
0.0208333333333333
147
0.0
147
0.0
147
0.0
147
0.0
147
0.0208333333333333
147
0.0
147
0.0
147
0.0
147
0.0
147
1.0
147
0.0
147
0.0
147
0.0
147
0.0
147
1.0
  0
MATERIAL
  5
21
102
{ACAD_XDICTIONARY
360
22
102
}
102
{ACAD_REACTORS
330
10
102
}
330
10
100
AcDbMaterial
  1
Global
 72
     0
 43
0.0208333333333333
 43
0.0
 43
0.0
 43
0.0
 43
0.0
 43
0.0208333333333333
 43
0.0
 43
0.0
 43
0.0
 43
0.0
 43
1.0
 43
0.0
 43
0.0
 43
0.0
 43
0.0
 43
1.0
 77
     0
 47
0.0208333333333333
 47
0.0
 47
0.0
 47
0.0
 47
0.0
 47
0.0208333333333333
 47
0.0
 47
0.0
 47
0.0
 47
0.0
 47
1.0
 47
0.0
 47
0.0
 47
0.0
 47
0.0
 47
1.0
171
     0
 49
0.0208333333333333
 49
0.0
 49
0.0
 49
0.0
 49
0.0
 49
0.0208333333333333
 49
0.0
 49
0.0
 49
0.0
 49
0.0
 49
1.0
 49
0.0
 49
0.0
 49
0.0
 49
0.0
 49
1.0
175
     0
142
0.0208333333333333
142
0.0
142
0.0
142
0.0
142
0.0
142
0.0208333333333333
142
0.0
142
0.0
142
0.0
142
0.0
142
1.0
142
0.0
142
0.0
142
0.0
142
0.0
142
1.0
179
     0
144
0.0208333333333333
144
0.0
144
0.0
144
0.0
144
0.0
144
0.0208333333333333
144
0.0
144
0.0
144
0.0
144
0.0
144
1.0
144
0.0
144
0.0
144
0.0
144
0.0
144
1.0
147
0.0208333333333333
147
0.0
147
0.0
147
0.0
147
0.0
147
0.0208333333333333
147
0.0
147
0.0
147
0.0
147
0.0
147
1.0
147
0.0
147
0.0
147
0.0
147
0.0
147
1.0
  0
MLEADERSTYLE
  5
67
102
{ACAD_REACTORS
330
66
102
}
330
66
100
AcDbMLeaderStyle
179
     2
170
     2
171
     1
172
     0
 90
        2
 40
0.0
 41
0.0
173
     1
 91
-1056964608
340
5B
 92
       -2
290
     1
 42
0.09
291
     1
 43
0.36
  3
Standard
 44
0.18
300

342
55
174
     1
178
     6
175
     1
176
     0
 93
-1056964608
 45
0.18
292
     0
297
     0
 46
0.18
 94
-1056964608
 47
1.0
 49
1.0
140
1.0
293
     1
141
0.0
294
     1
177
     0
142
1.0
295
     1
296
     0
143
0.125
271
     0
272
     9
273
     9
298
     1
  0
MLINESTYLE
  5
60
102
{ACAD_REACTORS
330
5F
102
}
330
5F
100
AcDbMlineStyle
  2
STANDARD
 70
     0
  3

 62
   256
 51
90.0
 52
90.0
 71
     2
 49
0.5
 62
   256
  6
BYLAYER
 49
-0.5
 62
   256
  6
BYLAYER
  0
ACDBPLACEHOLDER
  5
F
102
{ACAD_REACTORS
330
E
102
}
330
E
  0
SCALE
  5
43
102
{ACAD_REACTORS
330
42
102
}
330
42
100
AcDbScale
 70
     0
300
1:1
140
1.0
141
1.0
290
     1
  0
SCALE
  5
44
102
{ACAD_REACTORS
330
42
102
}
330
42
100
AcDbScale
 70
     0
300
1/128" = 1'-0"
140
0.0078125
141
12.0
290
     0
  0
SCALE
  5
45
102
{ACAD_REACTORS
330
42
102
}
330
42
100
AcDbScale
 70
     0
300
1/64" = 1'-0"
140
0.015625
141
12.0
290
     0
  0
SCALE
  5
46
102
{ACAD_REACTORS
330
42
102
}
330
42
100
AcDbScale
 70
     0
300
1/32" = 1'-0"
140
0.03125
141
12.0
290
     0
  0
SCALE
  5
47
102
{ACAD_REACTORS
330
42
102
}
330
42
100
AcDbScale
 70
     0
300
1/16" = 1'-0"
140
0.0625
141
12.0
290
     0
  0
SCALE
  5
48
102
{ACAD_REACTORS
330
42
102
}
330
42
100
AcDbScale
 70
     0
300
3/32" = 1'-0"
140
0.09375
141
12.0
290
     0
  0
SCALE
  5
49
102
{ACAD_REACTORS
330
42
102
}
330
42
100
AcDbScale
 70
     0
300
1/8" = 1'-0"
140
0.125
141
12.0
290
     0
  0
SCALE
  5
4A
102
{ACAD_REACTORS
330
42
102
}
330
42
100
AcDbScale
 70
     0
300
3/16" = 1'-0"
140
0.1875
141
12.0
290
     0
  0
SCALE
  5
4B
102
{ACAD_REACTORS
330
42
102
}
330
42
100
AcDbScale
 70
     0
300
1/4" = 1'-0"
140
0.25
141
12.0
290
     0
  0
SCALE
  5
4C
102
{ACAD_REACTORS
330
42
102
}
330
42
100
AcDbScale
 70
     0
300
3/8" = 1'-0"
140
0.375
141
12.0
290
     0
  0
SCALE
  5
4D
102
{ACAD_REACTORS
330
42
102
}
330
42
100
AcDbScale
 70
     0
300
1/2" = 1'-0"
140
0.5
141
12.0
290
     0
  0
SCALE
  5
4E
102
{ACAD_REACTORS
330
42
102
}
330
42
100
AcDbScale
 70
     0
300
3/4" = 1'-0"
140
0.75
141
12.0
290
     0
  0
SCALE
  5
4F
102
{ACAD_REACTORS
330
42
102
}
330
42
100
AcDbScale
 70
     0
300
1" = 1'-0"
140
1.0
141
12.0
290
     0
  0
SCALE
  5
50
102
{ACAD_REACTORS
330
42
102
}
330
42
100
AcDbScale
 70
     0
300
1-1/2" = 1'-0"
140
1.5
141
12.0
290
     0
  0
SCALE
  5
51
102
{ACAD_REACTORS
330
42
102
}
330
42
100
AcDbScale
 70
     0
300
3" = 1'-0"
140
3.0
141
12.0
290
     0
  0
SCALE
  5
52
102
{ACAD_REACTORS
330
42
102
}
330
42
100
AcDbScale
 70
     0
300
6" = 1'-0"
140
6.0
141
12.0
290
     0
  0
SCALE
  5
53
102
{ACAD_REACTORS
330
42
102
}
330
42
100
AcDbScale
 70
     0
300
1'-0" = 1'-0"
140
12.0
141
12.0
290
     0
  0
ACDBSECTIONVIEWSTYLE
  5
69
102
{ACAD_REACTORS
330
68
102
}
330
68
100
AcDbModelDocViewStyle
 70
     0
  3
Imperial24
290
     1
300
Imperial24
 90
        0
100
AcDbSectionViewStyle
 70
     0
 71
     0
 90
       78
 71
     1
340
55
 62
   256
 40
0.24
340
0
340
0
 62
   256
 40
0.24
300
I, O, Q, S, X, Z
 40
0.48
 90
        3
 40
0.18
 90
        1
 71
     2
340
5D
 90
       25
 62
   256
340
5D
 90
       50
 62
   256
 40
0.24
 40
0.0
 40
0.24
 71
     3
340
55
 62
   256
 40
0.24
 90
        1
 40
0.75
 90
        1
300
%<\AcVar ViewType \f "%tc1">% %<\AcVar ViewSectionStartId>%-%<\AcVar ViewSectionEndId>%\PSCALE %<\AcVar ViewScale \f "%sn">%
 71
     4
 62
   256
 62
   257
300
ANSI31
 40
1.0
 90
        0
290
     0
290
     0
 90
        6
 40
0.0
 40
1.570796326794896
 40
0.2617993877991494
 40
1.308996938995747
 40
-0.2617993877991494
 40
1.832595714594046
  0
TABLESTYLE
  5
65
102
{ACAD_XDICTIONARY
360
AF
102
}
102
{ACAD_REACTORS
330
64
102
}
330
64
100
AcDbTableStyle
280
     0
  3
Standard
 70
     0
 71
     0
 40
0.06
 41
0.06
280
     0
281
     0
  7
Standard
140
0.18
170
     2
 62
     0
 63
     7
283
     0
 90
      512
 91
        0
  1

274
    -2
284
     1
 64
     0
275
    -2
285
     1
 65
     0
276
    -2
286
     1
 66
     0
277
    -2
287
     1
 67
     0
278
    -2
288
     1
 68
     0
279
    -2
289
     1
 69
     0
  7
Standard
140
0.25
170
     5
 62
     0
 63
     7
283
     0
 90
      512
 91
        0
  1

274
    -2
284
     1
 64
     0
275
    -2
285
     1
 65
     0
276
    -2
286
     1
 66
     0
277
    -2
287
     1
 67
     0
278
    -2
288
     1
 68
     0
279
    -2
289
     1
 69
     0
  7
Standard
140
0.18
170
     5
 62
     0
 63
     7
283
     0
 90
      512
 91
        0
  1

274
    -2
284
     1
 64
     0
275
    -2
285
     1
 65
     0
276
    -2
286
     1
 66
     0
277
    -2
287
     1
 67
     0
278
    -2
288
     1
 68
     0
279
    -2
289
     1
 69
     0
  0
VISUALSTYLE
  5
2F
102
{ACAD_REACTORS
330
29
102
}
330
29
100
AcDbVisualStyle
  2
2dWireframe
 70
     4
177
     3
291
     0
 70
    58
 90
        0
176
     1
 90
        2
176
     1
 90
        0
176
     1
 90
        0
176
     1
 40
0.6
176
     1
 40
30.0
176
     1
 62
     7
420
 16777215
176
     1
 90
        1
176
     1
 90
        4
176
     1
 62
     7
176
     1
 62
   257
176
     1
 90
        1
176
     1
 90
        1
176
     1
 40
1.0
176
     1
 90
        0
176
     1
 62
   257
176
     1
 40
1.0
176
     1
 90
        1
176
     1
 90
        6
176
     1
 90
        2
176
     1
 62
     7
176
     1
 90
        5
176
     1
 90
        0
176
     1
 90
        0
176
     1
290
     0
176
     1
 90
        1
176
     1
 40
0.0
176
     1
 90
        0
176
     1
290
     1
176
     1
290
     1
176
     1
290
     0
176
     1
290
     0
176
     1
290
     0
176
     1
290
     0
176
     1
290
     0
176
     1
290
     0
176
     1
290
     0
176
     1
 90
       50
176
     1
 40
0.0
176
     1
 40
1.0
176
     1
 90
        0
176
     1
 62
    18
420
        0
176
     1
 90
       50
176
     1
 90
        3
176
     1
 62
     5
420
      255
176
     1
290
     0
176
     1
 90
       50
176
     1
 90
       50
176
     1
 90
       50
176
     1
290
     0
176
     1
 90
       50
176
     1
 62
   256
176
     0
 40
1.0
176
     0
 90
        2
176
     1
  1
strokes_ogs.tif
176
     1
290
     0
176
     1
 40
1.0
176
     1
 40
1.0
176
     1
  0
VISUALSTYLE
  5
2E
102
{ACAD_REACTORS
330
29
102
}
330
29
100
AcDbVisualStyle
  2
Basic
 70
     7
177
     3
291
     1
 70
    58
 90
        1
176
     1
 90
        0
176
     1
 90
        1
176
     1
 90
        0
176
     1
 40
0.6
176
     1
 40
30.0
176
     1
 62
     7
420
 16777215
176
     1
 90
        0
176
     1
 90
        4
176
     1
 62
     7
176
     1
 62
   257
176
     1
 90
        1
176
     1
 90
        1
176
     1
 40
1.0
176
     1
 90
        8
176
     1
 62
     7
176
     1
 40
1.0
176
     1
 90
        1
176
     1
 90
        6
176
     1
 90
        2
176
     1
 62
     7
176
     1
 90
        5
176
     1
 90
        0
176
     1
 90
        0
176
     1
290
     0
176
     1
 90
        1
176
     1
 40
0.0
176
     1
 90
        0
176
     1
290
     0
176
     1
290
     1
176
     1
290
     1
176
     1
290
     0
176
     1
290
     0
176
     1
290
     0
176
     1
290
     0
176
     1
290
     0
176
     1
290
     0
176
     1
 90
       50
176
     1
 40
0.0
176
     1
 40
1.0
176
     1
 90
        0
176
     1
 62
    18
420
        0
176
     1
 90
       50
176
     1
 90
        3
176
     1
 62
     5
420
      255
176
     1
290
     0
176
     1
 90
       50
176
     1
 90
       50
176
     1
 90
       50
176
     1
290
     0
176
     1
 90
       50
176
     1
 62
   256
176
     0
 40
1.0
176
     0
 90
        2
176
     1
  1
strokes_ogs.tif
176
     1
290
     0
176
     1
 40
1.0
176
     1
 40
1.0
176
     1
  0
VISUALSTYLE
  5
35
102
{ACAD_REACTORS
330
29
102
}
330
29
100
AcDbVisualStyle
  2
Brighten
 70
    12
177
     3
291
     1
 70
    58
 90
        2
176
     1
 90
        2
176
     1
 90
        0
176
     1
 90
        0
176
     1
 40
0.6
176
     1
 40
30.0
176
     1
 62
     7
420
 16777215
176
     1
 90
        1
176
     1
 90
        4
176
     1
 62
     7
176
     1
 62
   257
176
     1
 90
        1
176
     1
 90
        1
176
     1
 40
1.0
176
     1
 90
        8
176
     1
 62
     7
176
     1
 40
1.0
176
     1
 90
        1
176
     1
 90
        6
176
     1
 90
        2
176
     1
 62
     7
176
     1
 90
        5
176
     1
 90
        0
176
     1
 90
        0
176
     1
290
     0
176
     1
 90
        1
176
     1
 40
50.0
176
     1
 90
        0
176
     1
290
     0
176
     1
290
     1
176
     1
290
     1
176
     1
290
     0
176
     1
290
     0
176
     1
290
     0
176
     1
290
     0
176
     1
290
     0
176
     1
290
     0
176
     1
 90
       50
176
     1
 40
0.0
176
     1
 40
1.0
176
     1
 90
        0
176
     1
 62
    18
420
        0
176
     1
 90
       50
176
     1
 90
        3
176
     1
 62
     5
420
      255
176
     1
290
     0
176
     1
 90
       50
176
     1
 90
       50
176
     1
 90
       50
176
     1
290
     0
176
     1
 90
       50
176
     1
 62
   256
176
     0
 40
1.0
176
     0
 90
        2
176
     1
  1
strokes_ogs.tif
176
     1
290
     0
176
     1
 40
1.0
176
     1
 40
1.0
176
     1
  0
VISUALSTYLE
  5
39
102
{ACAD_REACTORS
330
29
102
}
330
29
100
AcDbVisualStyle
  2
ColorChange
 70
    16
177
     3
291
     1
 70
    58
 90
        2
176
     1
 90
        2
176
     1
 90
        3
176
     1
 90
        0
176
     1
 40
0.6
176
     1
 40
30.0
176
     1
 62
     8
420
  8421504
176
     1
 90
        1
176
     1
 90
        4
176
     1
 62
     7
176
     1
 62
   257
176
     1
 90
        1
176
     1
 90
        1
176
     1
 40
1.0
176
     1
 90
        8
176
     1
 62
     8
420
  8421504
176
     1
 40
1.0
176
     1
 90
        1
176
     1
 90
        6
176
     1
 90
        2
176
     1
 62
     7
176
     1
 90
        5
176
     1
 90
        0
176
     1
 90
        0
176
     1
290
     0
176
     1
 90
        1
176
     1
 40
0.0
176
     1
 90
        0
176
     1
290
     0
176
     1
290
     1
176
     1
290
     1
176
     1
290
     0
176
     1
290
     0
176
     1
290
     0
176
     1
290
     0
176
     1
290
     0
176
     1
290
     0
176
     1
 90
       50
176
     1
 40
0.0
176
     1
 40
1.0
176
     1
 90
        0
176
     1
 62
    18
420
        0
176
     1
 90
       50
176
     1
 90
        3
176
     1
 62
     5
420
      255
176
     1
290
     0
176
     1
 90
       50
176
     1
 90
       50
176
     1
 90
       50
176
     1
290
     0
176
     1
 90
       50
176
     1
 62
   256
176
     0
 40
1.0
176
     0
 90
        2
176
     1
  1
strokes_ogs.tif
176
     1
290
     0
176
     1
 40
1.0
176
     1
 40
1.0
176
     1
  0
VISUALSTYLE
  5
32
102
{ACAD_REACTORS
330
29
102
}
330
29
100
AcDbVisualStyle
  2
Conceptual
 70
     9
177
     3
291
     0
 70
    58
 90
        3
176
     1
 90
        2
176
     1
 90
        0
176
     1
 90
        0
176
     1
 40
0.6
176
     1
 40
30.0
176
     1
 62
     7
420
 16777215
176
     1
 90
        2
176
     1
 90
        2
176
     1
 62
     7
176
     1
 62
   257
176
     1
 90
        1
176
     1
 90
        1
176
     1
 40
179.0
176
     1
 90
        8
176
     1
 62
     7
176
     1
 40
1.0
176
     1
 90
        1
176
     1
 90
        6
176
     1
 90
        2
176
     1
 62
     7
176
     1
 90
        3
176
     1
 90
        0
176
     1
 90
        0
176
     1
290
     0
176
     1
 90
        1
176
     1
 40
0.0
176
     1
 90
        0
176
     1
290
     0
176
     1
290
     1
176
     1
290
     1
176
     1
290
     0
176
     1
290
     0
176
     1
290
     0
176
     1
290
     0
176
     1
290
     0
176
     1
290
     0
176
     1
 90
       50
176
     1
 40
0.0
176
     1
 40
1.0
176
     1
 90
        0
176
     1
 62
    18
420
        0
176
     1
 90
       50
176
     1
 90
        3
176
     1
 62
     5
420
      255
176
     1
290
     0
176
     1
 90
       50
176
     1
 90
       50
176
     1
 90
       50
176
     1
290
     0
176
     1
 90
       50
176
     1
 62
   256
176
     0
 40
1.0
176
     0
 90
        2
176
     1
  1
strokes_ogs.tif
176
     1
290
     0
176
     1
 40
1.0
176
     1
 40
1.0
176
     1
  0
VISUALSTYLE
  5
34
102
{ACAD_REACTORS
330
29
102
}
330
29
100
AcDbVisualStyle
  2
Dim
 70
    11
177
     3
291
     1
 70
    58
 90
        2
176
     1
 90
        2
176
     1
 90
        0
176
     1
 90
        0
176
     1
 40
0.6
176
     1
 40
30.0
176
     1
 62
     7
420
 16777215
176
     1
 90
        1
176
     1
 90
        4
176
     1
 62
     7
176
     1
 62
   257
176
     1
 90
        1
176
     1
 90
        1
176
     1
 40
1.0
176
     1
 90
        8
176
     1
 62
     7
176
     1
 40
1.0
176
     1
 90
        1
176
     1
 90
        6
176
     1
 90
        2
176
     1
 62
     7
176
     1
 90
        5
176
     1
 90
        0
176
     1
 90
        0
176
     1
290
     0
176
     1
 90
        1
176
     1
 40
-50.0
176
     1
 90
        0
176
     1
290
     0
176
     1
290
     1
176
     1
290
     1
176
     1
290
     0
176
     1
290
     0
176
     1
290
     0
176
     1
290
     0
176
     1
290
     0
176
     1
290
     0
176
     1
 90
       50
176
     1
 40
0.0
176
     1
 40
1.0
176
     1
 90
        0
176
     1
 62
    18
420
        0
176
     1
 90
       50
176
     1
 90
        3
176
     1
 62
     5
420
      255
176
     1
290
     0
176
     1
 90
       50
176
     1
 90
       50
176
     1
 90
       50
176
     1
290
     0
176
     1
 90
       50
176
     1
 62
   256
176
     0
 40
1.0
176
     0
 90
        2
176
     1
  1
strokes_ogs.tif
176
     1
290
     0
176
     1
 40
1.0
176
     1
 40
1.0
176
     1
  0
VISUALSTYLE
  5
41
102
{ACAD_REACTORS
330
29
102
}
330
29
100
AcDbVisualStyle
  2
EdgeColorOff
 70
    22
177
     3
291
     1
 70
    58
 90
        2
176
     0
 90
        2
176
     0
 90
        0
176
     0
 90
        0
176
     0
 40
0.6
176
     0
 40
30.0
176
     0
 62
     7
420
 16777215
176
     0
 90
        1
176
     0
 90
        4
176
     0
 62
     7
176
     0
 62
   257
176
     0
 90
        1
176
     0
 90
        1
176
     0
 40
1.0
176
     0
 90
        8
176
     2
 62
     7
176
     0
 40
1.0
176
     0
 90
        1
176
     0
 90
        6
176
     0
 90
        2
176
     0
 62
     7
176
     0
 90
        5
176
     0
 90
        0
176
     0
 90
        0
176
     0
290
     0
176
     0
 90
        1
176
     0
 40
0.0
176
     0
 90
        0
176
     0
290
     0
176
     0
290
     1
176
     0
290
     1
176
     0
290
     0
176
     0
290
     0
176
     0
290
     0
176
     0
290
     0
176
     0
290
     0
176
     0
290
     0
176
     0
 90
       50
176
     0
 40
0.0
176
     0
 40
1.0
176
     0
 90
        0
176
     0
 62
    18
420
        0
176
     0
 90
       50
176
     0
 90
        3
176
     0
 62
     5
420
      255
176
     0
290
     0
176
     0
 90
       50
176
     0
 90
       50
176
     0
 90
       50
176
     0
290
     0
176
     0
 90
       50
176
     0
 62
   256
176
     0
 40
1.0
176
     0
 90
        2
176
     0
  1
strokes_ogs.tif
176
     0
290
     0
176
     0
 40
1.0
176
     0
 40
1.0
176
     0
  0
VISUALSTYLE
  5
38
102
{ACAD_REACTORS
330
29
102
}
330
29
100
AcDbVisualStyle
  2
Facepattern
 70
    15
177
     3
291
     1
 70
    58
 90
        2
176
     1
 90
        2
176
     1
 90
        0
176
     1
 90
        0
176
     1
 40
0.6
176
     1
 40
30.0
176
     1
 62
     7
420
 16777215
176
     1
 90
        1
176
     1
 90
        4
176
     1
 62
     7
176
     1
 62
   257
176
     1
 90
        1
176
     1
 90
        1
176
     1
 40
1.0
176
     1
 90
        8
176
     1
 62
     7
176
     1
 40
1.0
176
     1
 90
        1
176
     1
 90
        6
176
     1
 90
        2
176
     1
 62
     7
176
     1
 90
        5
176
     1
 90
        0
176
     1
 90
        0
176
     1
290
     0
176
     1
 90
        1
176
     1
 40
0.0
176
     1
 90
        0
176
     1
290
     0
176
     1
290
     1
176
     1
290
     1
176
     1
290
     0
176
     1
290
     0
176
     1
290
     0
176
     1
290
     0
176
     1
290
     0
176
     1
290
     0
176
     1
 90
       50
176
     1
 40
0.0
176
     1
 40
1.0
176
     1
 90
        0
176
     1
 62
    18
420
        0
176
     1
 90
       50
176
     1
 90
        3
176
     1
 62
     5
420
      255
176
     1
290
     0
176
     1
 90
       50
176
     1
 90
       50
176
     1
 90
       50
176
     1
290
     0
176
     1
 90
       50
176
     1
 62
   256
176
     0
 40
1.0
176
     0
 90
        2
176
     1
  1
strokes_ogs.tif
176
     1
290
     0
176
     1
 40
1.0
176
     1
 40
1.0
176
     1
  0
VISUALSTYLE
  5
2A
102
{ACAD_REACTORS
330
29
102
}
330
29
100
AcDbVisualStyle
  2
Flat
 70
     0
177
     3
291
     1
 70
    58
 90
        2
176
     1
 90
        1
176
     1
 90
        1
176
     1
 90
        2
176
     1
 40
0.6
176
     1
 40
30.0
176
     1
 62
     7
420
 16777215
176
     1
 90
        0
176
     1
 90
        0
176
     1
 62
     7
176
     1
 62
   257
176
     1
 90
        1
176
     1
 90
        1
176
     1
 40
1.0
176
     1
 90
        8
176
     1
 62
     7
176
     1
 40
1.0
176
     1
 90
        1
176
     1
 90
        6
176
     1
 90
        2
176
     1
 62
     7
176
     1
 90
        5
176
     1
 90
        0
176
     1
 90
        0
176
     1
290
     0
176
     1
 90
       13
176
     1
 40
0.0
176
     1
 90
        0
176
     1
290
     0
176
     1
290
     1
176
     1
290
     1
176
     1
290
     0
176
     1
290
     0
176
     1
290
     0
176
     1
290
     0
176
     1
290
     0
176
     1
290
     0
176
     1
 90
       50
176
     1
 40
0.0
176
     1
 40
1.0
176
     1
 90
        0
176
     1
 62
    18
420
        0
176
     1
 90
       50
176
     1
 90
        3
176
     1
 62
     5
420
      255
176
     1
290
     0
176
     1
 90
       50
176
     1
 90
       50
176
     1
 90
       50
176
     1
290
     0
176
     1
 90
       50
176
     1
 62
   256
176
     0
 40
1.0
176
     0
 90
        2
176
     1
  1
strokes_ogs.tif
176
     1
290
     0
176
     1
 40
1.0
176
     1
 40
1.0
176
     1
  0
VISUALSTYLE
  5
2B
102
{ACAD_REACTORS
330
29
102
}
330
29
100
AcDbVisualStyle
  2
FlatWithEdges
 70
     1
177
     3
291
     1
 70
    58
 90
        2
176
     1
 90
        1
176
     1
 90
        1
176
     1
 90
        2
176
     1
 40
0.6
176
     1
 40
30.0
176
     1
 62
     7
420
 16777215
176
     1
 90
        1
176
     1
 90
        0
176
     1
 62
     7
176
     1
 62
   257
176
     1
 90
        1
176
     1
 90
        1
176
     1
 40
1.0
176
     1
 90
        0
176
     1
 62
   257
176
     1
 40
1.0
176
     1
 90
        1
176
     1
 90
        6
176
     1
 90
        2
176
     1
 62
     7
176
     1
 90
        5
176
     1
 90
        0
176
     1
 90
        0
176
     1
290
     0
176
     1
 90
       13
176
     1
 40
0.0
176
     1
 90
        0
176
     1
290
     0
176
     1
290
     1
176
     1
290
     1
176
     1
290
     0
176
     1
290
     0
176
     1
290
     0
176
     1
290
     0
176
     1
290
     0
176
     1
290
     0
176
     1
 90
       50
176
     1
 40
0.0
176
     1
 40
1.0
176
     1
 90
        0
176
     1
 62
    18
420
        0
176
     1
 90
       50
176
     1
 90
        3
176
     1
 62
     5
420
      255
176
     1
290
     0
176
     1
 90
       50
176
     1
 90
       50
176
     1
 90
       50
176
     1
290
     0
176
     1
 90
       50
176
     1
 62
   256
176
     0
 40
1.0
176
     0
 90
        2
176
     1
  1
strokes_ogs.tif
176
     1
290
     0
176
     1
 40
1.0
176
     1
 40
1.0
176
     1
  0
VISUALSTYLE
  5
2C
102
{ACAD_REACTORS
330
29
102
}
330
29
100
AcDbVisualStyle
  2
Gouraud
 70
     2
177
     3
291
     1
 70
    58
 90
        2
176
     1
 90
        2
176
     1
 90
        1
176
     1
 90
        2
176
     1
 40
0.6
176
     1
 40
30.0
176
     1
 62
     7
420
 16777215
176
     1
 90
        0
176
     1
 90
        0
176
     1
 62
     7
176
     1
 62
   257
176
     1
 90
        1
176
     1
 90
        1
176
     1
 40
1.0
176
     1
 90
        0
176
     1
 62
     7
176
     1
 40
1.0
176
     1
 90
        1
176
     1
 90
        6
176
     1
 90
        2
176
     1
 62
     7
176
     1
 90
        5
176
     1
 90
        0
176
     1
 90
        0
176
     1
290
     0
176
     1
 90
       13
176
     1
 40
0.0
176
     1
 90
        0
176
     1
290
     0
176
     1
290
     1
176
     1
290
     1
176
     1
290
     0
176
     1
290
     0
176
     1
290
     0
176
     1
290
     0
176
     1
290
     0
176
     1
290
     0
176
     1
 90
       50
176
     1
 40
0.0
176
     1
 40
1.0
176
     1
 90
        0
176
     1
 62
    18
420
        0
176
     1
 90
       50
176
     1
 90
        3
176
     1
 62
     5
420
      255
176
     1
290
     0
176
     1
 90
       50
176
     1
 90
       50
176
     1
 90
       50
176
     1
290
     0
176
     1
 90
       50
176
     1
 62
   256
176
     0
 40
1.0
176
     0
 90
        2
176
     1
  1
strokes_ogs.tif
176
     1
290
     0
176
     1
 40
1.0
176
     1
 40
1.0
176
     1
  0
VISUALSTYLE
  5
2D
102
{ACAD_REACTORS
330
29
102
}
330
29
100
AcDbVisualStyle
  2
GouraudWithEdges
 70
     3
177
     3
291
     1
 70
    58
 90
        2
176
     1
 90
        2
176
     1
 90
        1
176
     1
 90
        2
176
     1
 40
0.6
176
     1
 40
30.0
176
     1
 62
     7
420
 16777215
176
     1
 90
        1
176
     1
 90
        0
176
     1
 62
     7
176
     1
 62
   257
176
     1
 90
        1
176
     1
 90
        1
176
     1
 40
1.0
176
     1
 90
        0
176
     1
 62
   257
176
     1
 40
1.0
176
     1
 90
        1
176
     1
 90
        6
176
     1
 90
        2
176
     1
 62
     7
176
     1
 90
        5
176
     1
 90
        0
176
     1
 90
        0
176
     1
290
     0
176
     1
 90
       13
176
     1
 40
0.0
176
     1
 90
        0
176
     1
290
     0
176
     1
290
     1
176
     1
290
     1
176
     1
290
     0
176
     1
290
     0
176
     1
290
     0
176
     1
290
     0
176
     1
290
     0
176
     1
290
     0
176
     1
 90
       50
176
     1
 40
0.0
176
     1
 40
1.0
176
     1
 90
        0
176
     1
 62
    18
420
        0
176
     1
 90
       50
176
     1
 90
        3
176
     1
 62
     5
420
      255
176
     1
290
     0
176
     1
 90
       50
176
     1
 90
       50
176
     1
 90
       50
176
     1
290
     0
176
     1
 90
       50
176
     1
 62
   256
176
     0
 40
1.0
176
     0
 90
        2
176
     1
  1
strokes_ogs.tif
176
     1
290
     0
176
     1
 40
1.0
176
     1
 40
1.0
176
     1
  0
VISUALSTYLE
  5
31
102
{ACAD_REACTORS
330
29
102
}
330
29
100
AcDbVisualStyle
  2
Hidden
 70
     6
177
     3
291
     0
 70
    58
 90
        1
176
     1
 90
        2
176
     1
 90
        2
176
     1
 90
        0
176
     1
 40
0.6
176
     1
 40
30.0
176
     1
 62
     7
420
 16777215
176
     1
 90
        2
176
     1
 90
        2
176
     1
 62
     7
176
     1
 62
   257
176
     1
 90
        2
176
     1
 90
        1
176
     1
 40
40.0
176
     1
 90
        0
176
     1
 62
   257
176
     1
 40
1.0
176
     1
 90
        1
176
     1
 90
        6
176
     1
 90
        2
176
     1
 62
     7
176
     1
 90
        3
176
     1
 90
        0
176
     1
 90
        0
176
     1
290
     0
176
     1
 90
        1
176
     1
 40
0.0
176
     1
 90
        0
176
     1
290
     0
176
     1
290
     1
176
     1
290
     1
176
     1
290
     0
176
     1
290
     0
176
     1
290
     0
176
     1
290
     0
176
     1
290
     0
176
     1
290
     0
176
     1
 90
       50
176
     1
 40
0.0
176
     1
 40
1.0
176
     1
 90
        0
176
     1
 62
    18
420
        0
176
     1
 90
       50
176
     1
 90
        3
176
     1
 62
     5
420
      255
176
     1
290
     0
176
     1
 90
       50
176
     1
 90
       50
176
     1
 90
       50
176
     1
290
     0
176
     1
 90
       50
176
     1
 62
   256
176
     0
 40
1.0
176
     0
 90
        2
176
     1
  1
strokes_ogs.tif
176
     1
290
     0
176
     1
 40
1.0
176
     1
 40
1.0
176
     1
  0
VISUALSTYLE
  5
3F
102
{ACAD_REACTORS
330
29
102
}
330
29
100
AcDbVisualStyle
  2
JitterOff
 70
    20
177
     3
291
     1
 70
    58
 90
        2
176
     0
 90
        2
176
     0
 90
        0
176
     0
 90
        0
176
     0
 40
0.6
176
     0
 40
30.0
176
     0
 62
     7
420
 16777215
176
     0
 90
        1
176
     0
 90
        4
176
     0
 62
     7
176
     0
 62
   257
176
     0
 90
        1
176
     0
 90
        1
176
     0
 40
1.0
176
     0
 90
       10
176
     2
 62
     7
176
     0
 40
1.0
176
     0
 90
        1
176
     0
 90
        6
176
     0
 90
        2
176
     0
 62
     7
176
     0
 90
        5
176
     0
 90
        0
176
     0
 90
        0
176
     0
290
     0
176
     0
 90
        1
176
     0
 40
0.0
176
     0
 90
        0
176
     0
290
     0
176
     0
290
     1
176
     0
290
     1
176
     0
290
     0
176
     0
290
     0
176
     0
290
     0
176
     0
290
     0
176
     0
290
     0
176
     0
290
     0
176
     0
 90
       50
176
     0
 40
0.0
176
     0
 40
1.0
176
     0
 90
        0
176
     0
 62
    18
420
        0
176
     0
 90
       50
176
     0
 90
        3
176
     0
 62
     5
420
      255
176
     0
290
     0
176
     0
 90
       50
176
     0
 90
       50
176
     0
 90
       50
176
     0
290
     0
176
     0
 90
       50
176
     0
 62
   256
176
     0
 40
1.0
176
     0
 90
        2
176
     0
  1
strokes_ogs.tif
176
     0
290
     0
176
     0
 40
1.0
176
     0
 40
1.0
176
     0
  0
VISUALSTYLE
  5
37
102
{ACAD_REACTORS
330
29
102
}
330
29
100
AcDbVisualStyle
  2
Linepattern
 70
    14
177
     3
291
     1
 70
    58
 90
        2
176
     1
 90
        2
176
     1
 90
        0
176
     1
 90
        0
176
     1
 40
0.6
176
     1
 40
30.0
176
     1
 62
     7
420
 16777215
176
     1
 90
        1
176
     1
 90
        4
176
     1
 62
     7
176
     1
 62
   257
176
     1
 90
        7
176
     1
 90
        7
176
     1
 40
1.0
176
     1
 90
        8
176
     1
 62
     7
176
     1
 40
1.0
176
     1
 90
        1
176
     1
 90
        6
176
     1
 90
        2
176
     1
 62
     7
176
     1
 90
        5
176
     1
 90
        0
176
     1
 90
        0
176
     1
290
     0
176
     1
 90
        1
176
     1
 40
0.0
176
     1
 90
        0
176
     1
290
     0
176
     1
290
     1
176
     1
290
     1
176
     1
290
     0
176
     1
290
     0
176
     1
290
     0
176
     1
290
     0
176
     1
290
     0
176
     1
290
     0
176
     1
 90
       50
176
     1
 40
0.0
176
     1
 40
1.0
176
     1
 90
        0
176
     1
 62
    18
420
        0
176
     1
 90
       50
176
     1
 90
        3
176
     1
 62
     5
420
      255
176
     1
290
     0
176
     1
 90
       50
176
     1
 90
       50
176
     1
 90
       50
176
     1
290
     0
176
     1
 90
       50
176
     1
 62
   256
176
     0
 40
1.0
176
     0
 90
        2
176
     1
  1
strokes_ogs.tif
176
     1
290
     0
176
     1
 40
1.0
176
     1
 40
1.0
176
     1
  0
VISUALSTYLE
  5
40
102
{ACAD_REACTORS
330
29
102
}
330
29
100
AcDbVisualStyle
  2
OverhangOff
 70
    21
177
     3
291
     1
 70
    58
 90
        2
176
     0
 90
        2
176
     0
 90
        0
176
     0
 90
        0
176
     0
 40
0.6
176
     0
 40
30.0
176
     0
 62
     7
420
 16777215
176
     0
 90
        1
176
     0
 90
        4
176
     0
 62
     7
176
     0
 62
   257
176
     0
 90
        1
176
     0
 90
        1
176
     0
 40
1.0
176
     0
 90
        9
176
     2
 62
     7
176
     0
 40
1.0
176
     0
 90
        1
176
     0
 90
        6
176
     0
 90
        2
176
     0
 62
     7
176
     0
 90
        5
176
     0
 90
        0
176
     0
 90
        0
176
     0
290
     0
176
     0
 90
        1
176
     0
 40
0.0
176
     0
 90
        0
176
     0
290
     0
176
     0
290
     1
176
     0
290
     1
176
     0
290
     0
176
     0
290
     0
176
     0
290
     0
176
     0
290
     0
176
     0
290
     0
176
     0
290
     0
176
     0
 90
       50
176
     0
 40
0.0
176
     0
 40
1.0
176
     0
 90
        0
176
     0
 62
    18
420
        0
176
     0
 90
       50
176
     0
 90
        3
176
     0
 62
     5
420
      255
176
     0
290
     0
176
     0
 90
       50
176
     0
 90
       50
176
     0
 90
       50
176
     0
290
     0
176
     0
 90
       50
176
     0
 62
   256
176
     0
 40
1.0
176
     0
 90
        2
176
     0
  1
strokes_ogs.tif
176
     0
290
     0
176
     0
 40
1.0
176
     0
 40
1.0
176
     0
  0
VISUALSTYLE
  5
33
102
{ACAD_REACTORS
330
29
102
}
330
29
100
AcDbVisualStyle
  2
Realistic
 70
     8
177
     3
291
     0
 70
    58
 90
        2
176
     1
 90
        3
176
     1
 90
        0
176
     1
 90
        2
176
     1
 40
0.6
176
     1
 40
30.0
176
     1
 62
     7
420
 16777215
176
     1
 90
        0
176
     1
 90
        0
176
     1
 62
     7
176
     1
 62
   257
176
     1
 90
        1
176
     1
 90
        1
176
     1
 40
1.0
176
     1
 90
        8
176
     1
 62
   257
176
     1
 40
1.0
176
     1
 90
        1
176
     1
 90
        6
176
     1
 90
        2
176
     1
 62
     7
176
     1
 90
        3
176
     1
 90
        0
176
     1
 90
        0
176
     1
290
     0
176
     1
 90
       13
176
     1
 40
0.0
176
     1
 90
        0
176
     1
290
     0
176
     1
290
     1
176
     1
290
     1
176
     1
290
     0
176
     1
290
     0
176
     1
290
     0
176
     1
290
     0
176
     1
290
     0
176
     1
290
     0
176
     1
 90
       50
176
     1
 40
0.0
176
     1
 40
1.0
176
     1
 90
        0
176
     1
 62
    18
420
        0
176
     1
 90
       50
176
     1
 90
        3
176
     1
 62
     5
420
      255
176
     1
290
     0
176
     1
 90
       50
176
     1
 90
       50
176
     1
 90
       50
176
     1
290
     0
176
     1
 90
       50
176
     1
 62
   256
176
     0
 40
1.0
176
     0
 90
        2
176
     1
  1
strokes_ogs.tif
176
     1
290
     0
176
     1
 40
1.0
176
     1
 40
1.0
176
     1
  0
VISUALSTYLE
  5
3E
102
{ACAD_REACTORS
330
29
102
}
330
29
100
AcDbVisualStyle
  2
Shaded
 70
    27
177
     3
291
     0
 70
    58
 90
        2
176
     1
 90
        2
176
     1
 90
        1
176
     1
 90
        2
176
     1
 40
0.6
176
     1
 40
30.0
176
     1
 62
     7
420
 16777215
176
     1
 90
        0
176
     1
 90
        4
176
     1
 62
     7
176
     1
 62
   257
176
     1
 90
        1
176
     1
 90
        1
176
     1
 40
1.0
176
     1
 90
        8
176
     1
 62
   257
176
     1
 40
1.0
176
     1
 90
        1
176
     1
 90
        6
176
     1
 90
        2
176
     1
 62
     8
420
  7895160
176
     1
 90
        3
176
     1
 90
        0
176
     1
 90
        0
176
     1
290
     0
176
     1
 90
        5
176
     1
 40
0.0
176
     1
 90
        0
176
     1
290
     0
176
     1
290
     1
176
     1
290
     1
176
     1
290
     0
176
     1
290
     0
176
     1
290
     0
176
     1
290
     0
176
     1
290
     0
176
     1
290
     0
176
     1
 90
       50
176
     1
 40
0.0
176
     1
 40
1.0
176
     1
 90
        0
176
     1
 62
    18
420
        0
176
     1
 90
       50
176
     1
 90
        3
176
     1
 62
     5
420
      255
176
     1
290
     0
176
     1
 90
       50
176
     1
 90
       50
176
     1
 90
       50
176
     1
290
     0
176
     1
 90
       50
176
     1
 62
   256
176
     0
 40
1.0
176
     0
 90
        2
176
     1
  1
strokes_ogs.tif
176
     1
290
     0
176
     1
 40
1.0
176
     1
 40
1.0
176
     1
  0
VISUALSTYLE
  5
3D
102
{ACAD_REACTORS
330
29
102
}
330
29
100
AcDbVisualStyle
  2
Shaded with edges
 70
    26
177
     3
291
     0
 70
    58
 90
        2
176
     1
 90
        2
176
     1
 90
        1
176
     1
 90
        2
176
     1
 40
0.6
176
     1
 40
30.0
176
     1
 62
     7
420
 16777215
176
     1
 90
        1
176
     1
 90
        2
176
     1
 62
     7
176
     1
 62
   257
176
     1
 90
        2
176
     1
 90
        1
176
     1
 40
1.0
176
     1
 90
        8
176
     1
 62
   257
176
     1
 40
1.0
176
     1
 90
        1
176
     1
 90
        6
176
     1
 90
        2
176
     1
 62
     7
176
     1
 90
        3
176
     1
 90
        0
176
     1
 90
        0
176
     1
290
     0
176
     1
 90
        5
176
     1
 40
0.0
176
     1
 90
        0
176
     1
290
     0
176
     1
290
     1
176
     1
290
     1
176
     1
290
     0
176
     1
290
     0
176
     1
290
     0
176
     1
290
     0
176
     1
290
     0
176
     1
290
     0
176
     1
 90
       50
176
     1
 40
0.0
176
     1
 40
1.0
176
     1
 90
        0
176
     1
 62
    18
420
        0
176
     1
 90
       50
176
     1
 90
        3
176
     1
 62
     5
420
      255
176
     1
290
     0
176
     1
 90
       50
176
     1
 90
       50
176
     1
 90
       50
176
     1
290
     0
176
     1
 90
       50
176
     1
 62
   256
176
     0
 40
1.0
176
     0
 90
        2
176
     1
  1
strokes_ogs.tif
176
     1
290
     0
176
     1
 40
1.0
176
     1
 40
1.0
176
     1
  0
VISUALSTYLE
  5
3A
102
{ACAD_REACTORS
330
29
102
}
330
29
100
AcDbVisualStyle
  2
Shades of Gray
 70
    23
177
     3
291
     0
 70
    58
 90
        2
176
     1
 90
        2
176
     1
 90
        3
176
     1
 90
        0
176
     1
 40
0.6
176
     1
 40
30.0
176
     1
 62
     7
420
 16777215
176
     1
 90
        2
176
     1
 90
        2
176
     1
 62
     7
176
     1
 62
     7
176
     1
 90
        1
176
     1
 90
        1
176
     1
 40
40.0
176
     1
 90
        8
176
     1
 62
     7
176
     1
 40
1.0
176
     1
 90
        1
176
     1
 90
        6
176
     1
 90
        2
176
     1
 62
     7
176
     1
 90
        3
176
     1
 90
        0
176
     1
 90
        0
176
     1
290
     0
176
     1
 90
        1
176
     1
 40
0.0
176
     1
 90
        0
176
     1
290
     0
176
     1
290
     1
176
     1
290
     1
176
     1
290
     0
176
     1
290
     0
176
     1
290
     0
176
     1
290
     0
176
     1
290
     0
176
     1
290
     0
176
     1
 90
       50
176
     1
 40
0.0
176
     1
 40
1.0
176
     1
 90
        0
176
     1
 62
    18
420
        0
176
     1
 90
       50
176
     1
 90
        3
176
     1
 62
     5
420
      255
176
     1
290
     0
176
     1
 90
       50
176
     1
 90
       50
176
     1
 90
       50
176
     1
290
     0
176
     1
 90
       50
176
     1
 62
   256
176
     0
 40
1.0
176
     0
 90
        2
176
     1
  1
strokes_ogs.tif
176
     1
290
     0
176
     1
 40
1.0
176
     1
 40
1.0
176
     1
  0
VISUALSTYLE
  5
3B
102
{ACAD_REACTORS
330
29
102
}
330
29
100
AcDbVisualStyle
  2
Sketchy
 70
    24
177
     3
291
     0
 70
    58
 90
        1
176
     1
 90
        2
176
     1
 90
        2
176
     1
 90
        0
176
     1
 40
0.6
176
     1
 40
30.0
176
     1
 62
     7
420
 16777215
176
     1
 90
        2
176
     1
 90
        2
176
     1
 62
     7
176
     1
 62
     7
176
     1
 90
        1
176
     1
 90
        1
176
     1
 40
40.0
176
     1
 90
       11
176
     1
 62
     7
176
     1
 40
1.0
176
     1
 90
        1
176
     1
 90
        6
176
     1
 90
        2
176
     1
 62
     7
176
     1
 90
        6
176
     1
 90
        0
176
     1
 90
        0
176
     1
290
     0
176
     1
 90
        1
176
     1
 40
0.0
176
     1
 90
        0
176
     1
290
     0
176
     1
290
     1
176
     1
290
     1
176
     1
290
     0
176
     1
290
     0
176
     1
290
     0
176
     1
290
     0
176
     1
290
     0
176
     1
290
     0
176
     1
 90
       50
176
     1
 40
0.0
176
     1
 40
1.0
176
     1
 90
        0
176
     1
 62
    18
420
        0
176
     1
 90
       50
176
     1
 90
        3
176
     1
 62
     5
420
      255
176
     1
290
     0
176
     1
 90
       50
176
     1
 90
       50
176
     1
 90
       50
176
     1
290
     0
176
     1
 90
       50
176
     1
 62
   256
176
     0
 40
1.0
176
     0
 90
        2
176
     1
  1
strokes_ogs.tif
176
     1
290
     0
176
     1
 40
1.0
176
     1
 40
1.0
176
     1
  0
VISUALSTYLE
  5
36
102
{ACAD_REACTORS
330
29
102
}
330
29
100
AcDbVisualStyle
  2
Thicken
 70
    13
177
     3
291
     1
 70
    58
 90
        2
176
     1
 90
        2
176
     1
 90
        0
176
     1
 90
        0
176
     1
 40
0.6
176
     1
 40
30.0
176
     1
 62
     7
420
 16777215
176
     1
 90
        1
176
     1
 90
        4
176
     1
 62
     7
176
     1
 62
   257
176
     1
 90
        1
176
     1
 90
        1
176
     1
 40
1.0
176
     1
 90
       12
176
     1
 62
     7
176
     1
 40
1.0
176
     1
 90
        1
176
     1
 90
        6
176
     1
 90
        2
176
     1
 62
     7
176
     1
 90
        5
176
     1
 90
        0
176
     1
 90
        0
176
     1
290
     0
176
     1
 90
        1
176
     1
 40
0.0
176
     1
 90
        0
176
     1
290
     0
176
     1
290
     1
176
     1
290
     1
176
     1
290
     0
176
     1
290
     0
176
     1
290
     0
176
     1
290
     0
176
     1
290
     0
176
     1
290
     0
176
     1
 90
       50
176
     1
 40
0.0
176
     1
 40
1.0
176
     1
 90
        0
176
     1
 62
    18
420
        0
176
     1
 90
       50
176
     1
 90
        3
176
     1
 62
     5
420
      255
176
     1
290
     0
176
     1
 90
       50
176
     1
 90
       50
176
     1
 90
       50
176
     1
290
     0
176
     1
 90
       50
176
     1
 62
   256
176
     0
 40
1.0
176
     0
 90
        2
176
     1
  1
strokes_ogs.tif
176
     1
290
     0
176
     1
 40
1.0
176
     1
 40
1.0
176
     1
  0
VISUALSTYLE
  5
30
102
{ACAD_REACTORS
330
29
102
}
330
29
100
AcDbVisualStyle
  2
Wireframe
 70
     5
177
     3
291
     0
 70
    58
 90
        0
176
     1
 90
        2
176
     1
 90
        0
176
     1
 90
        0
176
     1
 40
0.6
176
     1
 40
30.0
176
     1
 62
     7
420
 16777215
176
     1
 90
        1
176
     1
 90
        4
176
     1
 62
     7
176
     1
 62
   257
176
     1
 90
        1
176
     1
 90
        1
176
     1
 40
1.0
176
     1
 90
        0
176
     1
 62
   257
176
     1
 40
1.0
176
     1
 90
        1
176
     1
 90
        6
176
     1
 90
        2
176
     1
 62
     7
176
     1
 90
        3
176
     1
 90
        0
176
     1
 90
        0
176
     1
290
     0
176
     1
 90
        1
176
     1
 40
0.0
176
     1
 90
        0
176
     1
290
     0
176
     1
290
     1
176
     1
290
     1
176
     1
290
     0
176
     1
290
     0
176
     1
290
     0
176
     1
290
     0
176
     1
290
     0
176
     1
290
     0
176
     1
 90
       50
176
     1
 40
0.0
176
     1
 40
1.0
176
     1
 90
        0
176
     1
 62
    18
420
        0
176
     1
 90
       50
176
     1
 90
        3
176
     1
 62
     5
420
      255
176
     1
290
     0
176
     1
 90
       50
176
     1
 90
       50
176
     1
 90
       50
176
     1
290
     0
176
     1
 90
       50
176
     1
 62
   256
176
     0
 40
1.0
176
     0
 90
        2
176
     1
  1
strokes_ogs.tif
176
     1
290
     0
176
     1
 40
1.0
176
     1
 40
1.0
176
     1
  0
VISUALSTYLE
  5
3C
102
{ACAD_REACTORS
330
29
102
}
330
29
100
AcDbVisualStyle
  2
X-Ray
 70
    25
177
     3
291
     0
 70
    58
 90
        2
176
     1
 90
        2
176
     1
 90
        1
176
     1
 90
        1
176
     1
 40
0.5
176
     1
 40
30.0
176
     1
 62
     7
420
 16777215
176
     1
 90
        1
176
     1
 90
        0
176
     1
 62
     7
176
     1
 62
   257
176
     1
 90
        1
176
     1
 90
        1
176
     1
 40
1.0
176
     1
 90
        8
176
     1
 62
     7
176
     1
 40
1.0
176
     1
 90
        1
176
     1
 90
        6
176
     1
 90
        2
176
     1
 62
     7
176
     1
 90
        3
176
     1
 90
        0
176
     1
 90
        0
176
     1
290
     0
176
     1
 90
       13
176
     1
 40
0.0
176
     1
 90
        0
176
     1
290
     0
176
     1
290
     1
176
     1
290
     1
176
     1
290
     0
176
     1
290
     0
176
     1
290
     0
176
     1
290
     0
176
     1
290
     0
176
     1
290
     0
176
     1
 90
       50
176
     1
 40
0.0
176
     1
 40
1.0
176
     1
 90
        0
176
     1
 62
    18
420
        0
176
     1
 90
       50
176
     1
 90
        3
176
     1
 62
     5
420
      255
176
     1
290
     0
176
     1
 90
       50
176
     1
 90
       50
176
     1
 90
       50
176
     1
290
     0
176
     1
 90
       50
176
     1
 62
   256
176
     0
 40
1.0
176
     0
 90
        2
176
     1
  1
strokes_ogs.tif
176
     1
290
     0
176
     1
 40
1.0
176
     1
 40
1.0
176
     1
  0
DICTIONARYVAR
  5
AE
102
{ACAD_REACTORS
330
A9
102
}
330
A9
100
DictionaryVariables
280
     0
  1
1:1
  0
DICTIONARYVAR
  5
AB
102
{ACAD_REACTORS
330
A9
102
}
330
A9
100
DictionaryVariables
280
     0
  1
STANDARD
  0
DICTIONARYVAR
  5
AA
102
{ACAD_REACTORS
330
A9
102
}
330
A9
100
DictionaryVariables
280
     0
  1
STANDARD
  0
DICTIONARYVAR
  5
AC
102
{ACAD_REACTORS
330
A9
102
}
330
A9
100
DictionaryVariables
280
     0
  1
Imperial24
  0
DICTIONARYVAR
  5
AD
102
{ACAD_REACTORS
330
A9
102
}
330
A9
100
DictionaryVariables
280
     0
  1
Imperial24
  0
DICTIONARY
  5
1A
330
19
100
AcDbDictionary
280
     1
281
     1
  3
BUMPTILE
360
1C
  3
DIFFUSETILE
360
1B
  3
OPACITYTILE
360
1F
  3
REFLECTIONTILE
360
1E
  3
REFRACTIONTILE
360
20
  3
SPECULARTILE
360
1D
  0
DICTIONARY
  5
12
330
11
100
AcDbDictionary
280
     1
281
     1
  3
BUMPTILE
360
14
  3
DIFFUSETILE
360
13
  3
OPACITYTILE
360
17
  3
REFLECTIONTILE
360
16
  3
REFRACTIONTILE
360
18
  3
SPECULARTILE
360
15
  0
DICTIONARY
  5
22
330
21
100
AcDbDictionary
280
     1
281
     1
  3
BUMPTILE
360
24
  3
DIFFUSETILE
360
23
  3
OPACITYTILE
360
27
  3
REFLECTIONTILE
360
26
  3
REFRACTIONTILE
360
28
  3
SPECULARTILE
360
25
  0
DICTIONARY
  5
AF
330
65
100
AcDbDictionary
280
     1
281
     1
  3
ACAD_ROUNDTRIP_2008_TABLESTYLE_CELLSTYLEMAP
360
B0
  0
XRECORD
  5
1C
102
{ACAD_REACTORS
330
1A
102
}
330
1A
100
AcDbXrecord
280
     1
270
     1
271
     1
  0
XRECORD
  5
1B
102
{ACAD_REACTORS
330
1A
102
}
330
1A
100
AcDbXrecord
280
     1
270
     1
271
     1
  0
XRECORD
  5
1F
102
{ACAD_REACTORS
330
1A
102
}
330
1A
100
AcDbXrecord
280
     1
270
     1
271
     1
  0
XRECORD
  5
1E
102
{ACAD_REACTORS
330
1A
102
}
330
1A
100
AcDbXrecord
280
     1
270
     1
271
     1
  0
XRECORD
  5
20
102
{ACAD_REACTORS
330
1A
102
}
330
1A
100
AcDbXrecord
280
     1
270
     1
271
     1
  0
XRECORD
  5
1D
102
{ACAD_REACTORS
330
1A
102
}
330
1A
100
AcDbXrecord
280
     1
270
     1
271
     1
  0
XRECORD
  5
14
102
{ACAD_REACTORS
330
12
102
}
330
12
100
AcDbXrecord
280
     1
270
     1
271
     1
  0
XRECORD
  5
13
102
{ACAD_REACTORS
330
12
102
}
330
12
100
AcDbXrecord
280
     1
270
     1
271
     1
  0
XRECORD
  5
17
102
{ACAD_REACTORS
330
12
102
}
330
12
100
AcDbXrecord
280
     1
270
     1
271
     1
  0
XRECORD
  5
16
102
{ACAD_REACTORS
330
12
102
}
330
12
100
AcDbXrecord
280
     1
270
     1
271
     1
  0
XRECORD
  5
18
102
{ACAD_REACTORS
330
12
102
}
330
12
100
AcDbXrecord
280
     1
270
     1
271
     1
  0
XRECORD
  5
15
102
{ACAD_REACTORS
330
12
102
}
330
12
100
AcDbXrecord
280
     1
270
     1
271
     1
  0
XRECORD
  5
24
102
{ACAD_REACTORS
330
22
102
}
330
22
100
AcDbXrecord
280
     1
270
     1
271
     1
  0
XRECORD
  5
23
102
{ACAD_REACTORS
330
22
102
}
330
22
100
AcDbXrecord
280
     1
270
     1
271
     1
  0
XRECORD
  5
27
102
{ACAD_REACTORS
330
22
102
}
330
22
100
AcDbXrecord
280
     1
270
     1
271
     1
  0
XRECORD
  5
26
102
{ACAD_REACTORS
330
22
102
}
330
22
100
AcDbXrecord
280
     1
270
     1
271
     1
  0
XRECORD
  5
28
102
{ACAD_REACTORS
330
22
102
}
330
22
100
AcDbXrecord
280
     1
270
     1
271
     1
  0
XRECORD
  5
25
102
{ACAD_REACTORS
330
22
102
}
330
22
100
AcDbXrecord
280
     1
270
     1
271
     1
  0
CELLSTYLEMAP
  5
B0
102
{ACAD_REACTORS
330
AF
102
}
330
AF
100
AcDbCellStyleMap
 90
        3
300
CELLSTYLE
  1
TABLEFORMAT_BEGIN
 90
        5
170
     1
 91
        0
 92
    32768
 62
   257
 93
        1
300
CONTENTFORMAT
  1
CONTENTFORMAT_BEGIN
 90
        0
 91
        0
 92
      512
 93
        0
300

 40
0.0
140
1.0
 94
        5
 62
     0
340
55
144
0.25
309
CONTENTFORMAT_END
171
     0
 94
        0
309
TABLEFORMAT_END
  1
CELLSTYLE_BEGIN
 90
        1
 91
        1
300
_TITLE
309
CELLSTYLE_END
300
CELLSTYLE
  1
TABLEFORMAT_BEGIN
 90
        5
170
     1
 91
        0
 92
        0
 62
   257
 93
        1
300
CONTENTFORMAT
  1
CONTENTFORMAT_BEGIN
 90
        0
 91
        0
 92
      512
 93
        0
300

 40
0.0
140
1.0
 94
        5
 62
     0
340
55
144
0.18
309
CONTENTFORMAT_END
171
     0
 94
        0
309
TABLEFORMAT_END
  1
CELLSTYLE_BEGIN
 90
        2
 91
        1
300
_HEADER
309
CELLSTYLE_END
300
CELLSTYLE
  1
TABLEFORMAT_BEGIN
 90
        5
170
     1
 91
        0
 92
        0
 62
   257
 93
        1
300
CONTENTFORMAT
  1
CONTENTFORMAT_BEGIN
 90
        0
 91
        0
 92
      512
 93
        0
300

 40
0.0
140
1.0
 94
        2
 62
     0
340
55
144
0.18
309
CONTENTFORMAT_END
171
     0
 94
        0
309
TABLEFORMAT_END
  1
CELLSTYLE_BEGIN
 90
        3
 91
        2
300
_DATA
309
CELLSTYLE_END
  0
ENDSEC
  0
EOF
