<svg id="katman_1" data-name="katman 1" xmlns="http://www.w3.org/2000/svg" viewBox="0 0 815.8 573.75"><path d="M322.29,671.16a12.14,12.14,0,0,0,20.76,12.6,12.14,12.14,0,0,0-20.76-12.6Z" transform="translate(-91.84 -214.28)"/><path d="M356,638.77a11.94,11.94,0,1,0,12.58-20.29c-5.88-3.62-12.92-2.12-16.48,3.5A12.21,12.21,0,0,0,356,638.77Z" transform="translate(-91.84 -214.28)"/><path d="M361.56,661.42c-3.63,5.84-1.81,13,4.23,16.65a11.95,11.95,0,1,0-4.23-16.65Z" transform="translate(-91.84 -214.28)"/><path d="M316.49,648.19c6,3.84,13,2.38,16.72-3.5s2.09-12.61-4.07-16.53a11.41,11.41,0,0,0-16.32,3.58A11.75,11.75,0,0,0,316.49,648.19Z" transform="translate(-91.84 -214.28)"/><path d="M197.31,532.63c5.31-10.94,6.8-8.49-3.86-15.06-2-1.22-4.07-2.38-6-3.68-2.56-1.69-4.32-1-5.75,1.54a96.09,96.09,0,0,1-5.79,9.74,7.31,7.31,0,0,0-1.41,6.23c.74,3.18,1.71,6.3,2.55,9.45.39,1.46,1.06,2.2,2.78,1.91C186.9,541.56,193.43,540.61,197.31,532.63Z" transform="translate(-91.84 -214.28)"/><path d="M208.1,556.69a93.22,93.22,0,0,1-9.74-5.79,7.27,7.27,0,0,0-6.23-1.4c-3.18.73-6.3,1.7-9.45,2.54-1.46.39-2.2,1.06-1.91,2.78,1.19,7.1,2.15,13.64,10.13,17.51,10.94,5.31,8.49,6.8,15-3.85,1.22-2,2.38-4.08,3.68-6C211.33,559.88,210.69,558.13,208.1,556.69Z" transform="translate(-91.84 -214.28)"/><path d="M171.61,557.19c-.38-1.47-1.06-2.21-2.78-1.92-7.09,1.2-13.63,2.16-17.5,10.14-5.31,10.94-6.81,8.49,3.85,15.05,2,1.22,4.08,2.38,6,3.68,2.56,1.7,4.31,1.06,5.74-1.53a95,95,0,0,1,5.79-9.74,7.26,7.26,0,0,0,1.41-6.24C173.43,563.46,172.45,560.34,171.61,557.19Z" transform="translate(-91.84 -214.28)"/><path d="M166.19,546c1.66-.54,1.91-1.51,1.58-3-.72-3.18-1.3-6.39-2.12-9.55a7.25,7.25,0,0,0-4.13-4.88,93.11,93.11,0,0,1-9.63-6c-2.47-1.64-4.33-1.39-5.81,1.3-1.14,2.06-2.43,4-3.65,6.05-6.41,10.75-6.22,7.89,3.55,15.13C153.1,550.39,159.34,548.21,166.19,546Z" transform="translate(-91.84 -214.28)"/><path d="M907.33,661.46c-2.6-21.24-4.75-42.52-7.05-63.79-1.71-15.79-3.62-31.57-4.9-47.4-.8-9.84-1.43-19.57-4.9-29-14.64-39.77-60.5-59.47-99-42.37-12.41,5.51-23.38,13.53-35,20.39-15.84,9.34-31.53,19-47.19,28.62-2.59,1.6-3.8,1.48-5.41-1.27q-9-15.46-18.55-30.65c-3.77-6-7.7-11.82-13.78-15.94-11.35-7.68-23.32-8.3-35-2-21.42,11.51-41.61,25.13-62.56,37.47-8.81,5.2-17.15,11.24-26.78,15a47.28,47.28,0,0,1-14.51,3.38c-6,.34-11.32-.87-15.78-3.93,29.79-17.47,58.43-36.58,84.27-59.72,28.45-25.47,53-54,68.23-89.45,9.3-21.65,14.43-44.16,12.27-67.95-2.89-31.76-15.91-58.3-41.07-78.23-32.2-25.51-75.36-27.92-109.78-2.39a117.79,117.79,0,0,0-27.2,28.92c-1.86,2.74-3.13,3.39-5.27.11a111.88,111.88,0,0,0-9-11.92c-18.71-21.71-41.88-34.5-67.3-35.09-20.24.07-35.7,4.28-49.62,12.85-34.59,21.28-51,53.29-52.52,93.15-.9,24.29,5.8,47.16,16.45,68.83,17.05,34.69,42.49,62.62,71.61,87.45,24.22,20.65,50.71,38,78.1,54.05-5,5.27-11.65,7.35-19.31,6.91a46.93,46.93,0,0,1-14.5-3.38c-9.63-3.77-18-9.81-26.79-15-20.94-12.34-41.13-26-62.55-37.47-11.72-6.29-23.69-5.68-35,2-6.08,4.12-10,10-13.78,15.94q-9.56,15.15-18.55,30.65c-1.61,2.76-2.82,2.87-5.41,1.27-15.67-9.65-31.35-19.28-47.19-28.62-11.64-6.86-22.6-14.88-35-20.39-38.45-17.1-84.31,2.6-99,42.37-3.46,9.4-4.1,19.13-4.89,29-1.29,15.83-3.19,31.61-4.9,47.4-2.3,21.27-4.45,42.55-7,63.79a42.5,42.5,0,0,0,31.94,46.19c20.31,5.25,41.63-5.81,49.41-25.38,2.54-6.41,2.81-13.32,4.94-19.88,12.42,4.74,23.89,3.79,34.12-5.24,1.55-1.37,3.18-1.41,5-.16,3.57,2.44,7.22,4.79,11,7,1.95,1.14,2.71,2.23,2.15,4.69-2.73,11.91.78,22.1,9.5,30.39,2,1.93,1.62,2.6-.17,4-4.87,3.78-9.94,7.38-13.86,12.2-11.79,14.45-12.79,34.11-2.78,50,9.44,15,29.41,22.42,46.07,17.85,7.31-2,13.26-6.16,19.37-10.26q27.15-18.2,54.42-36.21c12.26-8.11,24.18-16.86,37-24,36.19-20.29,49.24-66.89,28.22-102.69-7.31-12.46-17.71-21.43-30.07-28.71-22.86-13.48-45.45-27.44-68.14-41.2-1.62-1-3.69-1.52-1.94-4.33,7.41-11.95,14.43-24.15,22-36,6.76-10.55,16.91-12.86,27.59-6.46C382,511.29,406,526,430,540.52c9.73,5.88,20,10.54,31.34,12.17,16.12,2.31,29.44-2.39,39.5-15.21.26,0,.51,0,.77,0,9.65,10.14,21.92,13.74,36.47,11.65,11.36-1.63,21.61-6.28,31.34-12.17,24-14.56,48-29.22,72.16-43.69,10.68-6.4,20.84-4.09,27.6,6.46,7.58,11.84,14.6,24,22,36,1.75,2.82-.33,3.36-1.94,4.34-22.7,13.76-45.28,27.72-68.15,41.2-12.35,7.28-22.75,16.25-30.07,28.7-21,35.81-8,82.41,28.23,102.7,12.79,7.17,24.7,15.91,37,24q27.27,18,54.43,36.21c6.11,4.1,12.06,8.25,19.36,10.25,16.66,4.57,36.64-2.85,46.08-17.84,10-15.9,9-35.56-2.78-50-3.93-4.82-9-8.42-13.86-12.2-1.8-1.4-2.2-2.07-.17-4,8.72-8.29,12.22-18.48,9.5-30.39-.56-2.46.2-3.55,2.14-4.7,3.73-2.19,7.38-4.54,11-7,1.82-1.25,3.46-1.21,5,.16,10.23,9,21.7,10,34.12,5.24,2.13,6.56,2.4,13.47,4.94,19.87,7.77,19.58,29.1,30.64,49.41,25.39A42.52,42.52,0,0,0,907.33,661.46ZM206.92,647.22a17.51,17.51,0,0,1-24.06,5.57,17.79,17.79,0,0,1,18.58-30.35C209.85,627.61,212.25,638.47,206.92,647.22ZM221,576.94c-15.43,24.82-47.68,32.34-73.07,16.76-24.14-14.81-31.65-47.33-16.61-71.91,15.36-25.1,47.89-33.15,72.89-17.37A52.69,52.69,0,0,1,221,576.94Zm55.11,111.6a17.81,17.81,0,0,1-24.45,5.93,17.79,17.79,0,1,1,24.45-5.93Zm-9.73-95.85a26.84,26.84,0,0,1-8.82-36.57,26.3,26.3,0,0,1,36.13-8.76c12.85,7.78,16.81,23.5,9.12,36.22C295.19,596.15,278.59,600.3,266.35,592.69Zm108.8,15.39c25.62,16.48,31,49.25,15.92,73-15.35,24.21-48,31.36-73.09,15.67C294.21,682,286.84,649.15,301.84,625,317.5,599.82,350.11,592,375.15,608.08ZM681.5,693.2c-25.14,15.69-57.74,8.54-73.09-15.67-15.09-23.79-9.7-56.56,15.92-73,25-16.1,57.65-8.26,73.31,16.93C712.64,645.56,705.27,678.37,681.5,693.2ZM696.69,580c-7.68-12.72-3.73-28.44,9.12-36.22A26.31,26.31,0,0,1,742,552.53a26.84,26.84,0,0,1-8.83,36.57C720.89,596.71,704.29,592.56,696.69,580Zm51.16,110.89a17.79,17.79,0,1,1,5.87-24.24A17.83,17.83,0,0,1,747.85,690.88Zm68.77-41.68a17.53,17.53,0,0,1-24.07-5.57c-5.32-8.75-2.92-19.61,5.49-24.78a17.79,17.79,0,0,1,18.58,30.35Zm35-59.09c-25.38,15.58-57.63,8.06-73.06-16.76a52.68,52.68,0,0,1,16.79-72.52c25-15.78,57.53-7.73,72.89,17.37C883.23,542.78,875.71,575.3,851.57,590.11Z" transform="translate(-91.84 -214.28)"/><path d="M660.69,663.39a12.18,12.18,0,0,0-4.27,16.78,12.14,12.14,0,0,0,20.76-12.6A12.21,12.21,0,0,0,660.69,663.39Z" transform="translate(-91.84 -214.28)"/><path d="M630.89,614.89a11.74,11.74,0,0,0-4.14,16.33,11.86,11.86,0,0,0,16.71,4,12.21,12.21,0,0,0,3.91-16.79C643.81,612.77,636.76,611.27,630.89,614.89Z" transform="translate(-91.84 -214.28)"/><path d="M621.44,654a11.95,11.95,0,1,0,12.25,20.51c6-3.66,7.85-10.81,4.23-16.65A11.92,11.92,0,0,0,621.44,654Z" transform="translate(-91.84 -214.28)"/><path d="M670.34,624.57c-6.16,3.92-7.81,10.6-4.07,16.53S677,648.44,683,644.59a11.74,11.74,0,0,0,3.67-16.44A11.42,11.42,0,0,0,670.34,624.57Z" transform="translate(-91.84 -214.28)"/><path d="M823.6,521.58a95.34,95.34,0,0,1-5.79-9.74c-1.44-2.6-3.19-3.24-5.75-1.54-2,1.3-4,2.46-6,3.68-10.65,6.57-9.16,4.12-3.85,15.06,3.87,8,10.41,8.93,17.5,10.13,1.73.29,2.4-.45,2.79-1.91.84-3.16,1.81-6.28,2.54-9.45A7.26,7.26,0,0,0,823.6,521.58Z" transform="translate(-91.84 -214.28)"/><path d="M816.8,548.45c-3.15-.84-6.27-1.81-9.45-2.55a7.31,7.31,0,0,0-6.23,1.41,96.09,96.09,0,0,1-9.74,5.79c-2.59,1.43-3.23,3.19-1.54,5.75,1.31,2,2.46,4,3.68,6,6.57,10.66,4.12,9.17,15.06,3.86,8-3.87,8.93-10.41,10.13-17.51C819,549.51,818.26,548.84,816.8,548.45Z" transform="translate(-91.84 -214.28)"/><path d="M830.64,551.68c-1.72-.29-2.39.45-2.78,1.92-.84,3.15-1.81,6.27-2.54,9.44a7.29,7.29,0,0,0,1.4,6.24,94.13,94.13,0,0,1,5.79,9.73c1.44,2.6,3.19,3.24,5.75,1.54,2-1.3,4-2.46,6-3.68,10.65-6.56,9.16-4.11,3.85-15C844.28,553.83,837.74,552.88,830.64,551.68Z" transform="translate(-91.84 -214.28)"/><path d="M853.39,520.32c-1.48-2.68-3.33-2.93-5.8-1.29a93.91,93.91,0,0,1-9.64,6,7.31,7.31,0,0,0-4.13,4.88c-.82,3.15-1.4,6.37-2.11,9.55-.33,1.48-.08,2.45,1.58,3,6.85,2.22,13.08,4.4,20.21-.88,9.77-7.24,10-4.38,3.54-15.13C855.82,524.36,854.53,522.39,853.39,520.32Z" transform="translate(-91.84 -214.28)"/></svg>