<?xml version="1.0" standalone="no"?>
<!DOCTYPE svg PUBLIC "-//W3C//DTD SVG 20010904//EN"
 "http://www.w3.org/TR/2001/REC-SVG-20010904/DTD/svg10.dtd">
<svg version="1.0" xmlns="http://www.w3.org/2000/svg"
 width="600.000000pt" height="600.000000pt" viewBox="0 0 600.000000 600.000000"
 preserveAspectRatio="xMidYMid meet">
<metadata>
Created by potrace 1.16, written by Peter Selinger 2001-2019
</metadata>
<g transform="translate(0.000000,600.000000) scale(0.100000,-0.100000)"
fill="#ffffff" stroke="none">
<path d="M2545 5964 c-272 -42 -538 -221 -689 -464 -59 -95 -123 -258 -143
-363 -20 -105 -13 -333 12 -427 25 -92 84 -226 141 -317 53 -86 183 -219 278
-285 188 -130 448 -195 679 -169 139 16 236 44 362 106 90 45 128 71 212 147
115 104 122 113 192 226 114 186 157 356 148 582 -11 269 -114 494 -314 692
-95 94 -140 124 -278 192 -111 53 -174 72 -290 86 -116 13 -198 11 -310 -6z"/>
<path d="M4124 5637 l-24 -29 2 -628 3 -628 -35 -6 c-19 -3 -74 -8 -122 -12
l-88 -7 0 -108 0 -109 484 0 484 0 31 53 c38 65 46 75 95 111 98 73 230 91
328 43 63 -31 122 -88 157 -154 l26 -48 268 -3 267 -2 0 110 c0 103 -1 110
-20 110 -20 0 -20 7 -20 644 0 617 -1 645 -19 667 l-19 23 -887 1 -887 0 -24
-28z m1684 -632 c1 -280 0 -520 -3 -532 l-5 -23 -770 0 -770 0 0 535 0 535
773 -3 772 -2 3 -510z"/>
<path d="M4890 5175 l0 -85 -90 0 -90 0 0 -125 0 -125 90 0 90 0 0 -85 0 -85
120 0 120 0 0 85 0 85 85 0 85 0 0 125 0 125 -85 0 -84 0 -3 83 -3 82 -117 3
-118 3 0 -86z"/>
<path d="M5016 4275 c-127 -52 -173 -132 -211 -370 -43 -272 -73 -385 -133
-498 -79 -151 -190 -242 -306 -254 -102 -10 -181 51 -327 252 -124 171 -227
294 -288 343 -25 20 -54 45 -64 54 -11 9 -32 22 -48 28 -27 11 -31 10 -67 -27
-85 -86 -286 -151 -522 -169 -52 -4 -102 -8 -110 -10 -8 -1 -26 -3 -39 -3 -21
-1 -23 -4 -17 -33 55 -269 41 -588 -39 -862 -69 -236 -200 -455 -376 -627 -67
-65 -209 -172 -286 -216 l-38 -21 70 -32 c177 -80 408 -251 546 -405 226 -252
380 -614 438 -1026 12 -80 21 -179 21 -220 0 -41 3 -98 6 -126 l7 -53 363 0
364 0 -1 1264 -1 1264 -35 34 c-19 18 -44 46 -56 62 l-21 30 48 -33 c127 -88
328 -151 479 -151 171 0 297 38 438 132 143 94 252 226 349 423 67 135 104
238 156 440 25 94 51 195 59 225 34 123 57 267 53 325 -5 73 -45 162 -95 210
-76 74 -208 95 -317 50z"/>
<path d="M1425 3978 c-208 -23 -468 -153 -584 -292 -55 -65 -72 -88 -113 -146
-56 -80 -92 -164 -124 -295 -48 -191 -41 -334 27 -546 53 -167 190 -354 335
-457 147 -103 274 -158 429 -183 106 -17 307 -7 410 21 332 89 599 351 688
676 43 155 52 237 38 350 -25 200 -83 345 -197 497 -98 130 -188 203 -349 285
-93 47 -195 77 -315 92 -95 11 -131 11 -245 -2z m-100 -549 c20 -12 43 -35 52
-53 23 -43 20 -121 -4 -155 -92 -124 -269 -78 -281 73 -3 44 0 56 26 92 55 75
127 90 207 43z m662 1 c18 -10 40 -31 50 -46 24 -37 24 -129 -1 -166 -60 -90
-196 -90 -255 0 -46 70 -22 179 47 217 40 21 121 19 159 -5z m127 -532 c-66
-113 -178 -224 -279 -276 -109 -56 -150 -66 -280 -66 -172 -1 -265 29 -390
126 -55 44 -135 139 -160 190 -15 32 -15 33 2 9 61 -82 188 -173 296 -211 123
-43 309 -50 437 -15 30 8 93 33 140 56 66 33 100 59 160 119 78 81 86 88 74
68z"/>
<path d="M210 2585 c-63 -80 -127 -203 -164 -316 -82 -247 -52 -425 104 -615
59 -71 185 -179 273 -232 148 -90 337 -139 487 -127 113 9 180 36 239 94 164
161 70 430 -216 618 -80 52 -135 80 -322 163 -132 58 -189 104 -246 195 -52
83 -89 168 -100 228 -4 20 -10 37 -14 37 -3 -1 -22 -21 -41 -45z"/>
<path d="M1370 1839 c-47 -6 -86 -12 -87 -13 -2 -1 13 -47 33 -102 31 -87 35
-108 32 -179 -4 -98 -39 -177 -108 -237 -95 -86 -257 -132 -415 -121 -156 12
-141 17 -186 -62 -102 -180 -163 -332 -233 -585 -26 -96 -56 -293 -63 -419
l-6 -121 1410 0 1411 0 -5 68 c-12 185 -65 478 -108 607 -119 350 -256 580
-462 775 -276 261 -581 385 -973 395 -85 2 -193 -1 -240 -6z"/>
</g>
</svg>
