<svg xmlns="http://www.w3.org/2000/svg" viewBox="0 0 701.01114 701.06819"><g fill="#ffffff" id="Layer_2" data-name="Layer 2"><g id="katman_1" data-name="katman 1"><polygon points="223.38 392.024 223.4 392.044 223.42 392.024 223.38 392.024"/><path d="M26.74092,588.703l-3.85422,4.25143a59.59953,59.59953,0,0,0,88.088,80.06218L307.65349,476.33776,223.4,392.04412Z"/><path d="M619.83212,535.615,429.97229,345.75464,270.10587,185.8889A139.06563,139.06563,0,0,0,92.41955,8.12306l88.80392,88.92268q.74418.71957,1.46449,1.4646a59.59969,59.59969,0,1,1-85.73863,82.80931L8.10594,92.43667a139.06618,139.06618,0,0,0,177.68678,177.766L429.97229,514.35936,451.22968,535.615,616.69753,701.06819l84.31361-84.27379Z"/><polygon points="462.215 293.685 546.45 209.411 616.698 195.345 686.946 68.915 630.763 12.732 504.333 82.98 490.268 153.228 429.972 213.524 405.993 237.502 429.972 261.464 462.215 293.685"/></g></g></svg>